<?xml version="1.0" encoding="utf-8"?>
<!-- Generator: Adobe Illustrator 25.4.1, SVG Export Plug-In . SVG Version: 6.00 Build 0)  -->
<svg version="1.1" id="Layer_1" xmlns="http://www.w3.org/2000/svg" xmlns:xlink="http://www.w3.org/1999/xlink" x="0px" y="0px"
	 viewBox="0 0 127.28 11.37" style="enable-background:new 0 0 127.28 11.37;" xml:space="preserve">
<style type="text/css">
	.st0{fill:#5A4A42;}
</style>
<g>
	<g>
		<path class="st0" d="M5.62,0.03C6.35,0.11,7.01,0.32,7.6,0.66s1.06,0.82,1.44,1.41c0.06,0,0.11-0.03,0.15-0.1
			c0.03-0.06,0.06-0.15,0.08-0.24C9.29,1.63,9.3,1.54,9.3,1.44c0-0.1,0.01-0.18,0.01-0.24V1.13h0.28v3.42H9.31V4.48
			c0-0.3-0.05-0.65-0.14-1.04C9.08,3.06,8.96,2.74,8.81,2.49c-0.39-0.67-0.9-1.18-1.52-1.54C6.66,0.6,5.95,0.41,5.15,0.4
			c-0.65,0-1.2,0.13-1.67,0.4C3.02,1.06,2.64,1.43,2.34,1.9c-0.3,0.47-0.52,1.03-0.66,1.67C1.54,4.21,1.47,4.91,1.47,5.65v0.02V5.7
			v0.02v0.03c0,0.75,0.08,1.44,0.23,2.07c0.16,0.64,0.39,1.19,0.7,1.66c0.31,0.47,0.7,0.84,1.17,1.1c0.46,0.26,1.01,0.4,1.64,0.4
			c1.08,0,1.98-0.24,2.7-0.72c0.72-0.48,1.25-1.15,1.6-2c0.01-0.04,0.04-0.06,0.1-0.06c0.09,0,0.12,0.04,0.1,0.13
			c-0.32,0.91-0.87,1.64-1.63,2.2c-0.76,0.56-1.71,0.84-2.84,0.84c-0.72,0.01-1.4-0.11-2.03-0.37c-0.63-0.26-1.19-0.63-1.66-1.12
			C1.06,9.39,0.69,8.8,0.41,8.1C0.14,7.39,0,6.61,0,5.73V5.7V5.67c0-0.69,0.08-1.33,0.25-1.9c0.17-0.58,0.4-1.09,0.7-1.55
			S1.6,1.37,2.02,1.05c0.42-0.32,0.87-0.57,1.37-0.75c0.19-0.08,0.41-0.13,0.65-0.18c0.21-0.04,0.44-0.08,0.71-0.1
			C5.02,0.01,5.31,0.01,5.62,0.03z"/>
		<path class="st0" d="M17.67,0.52c-0.17,0.17-0.26,0.38-0.26,0.62v7.21v1.85c0,0.25,0.09,0.46,0.26,0.63
			c0.17,0.17,0.38,0.26,0.63,0.26h0.06v0.26h-3.38v-0.26h0.06c0.25,0,0.46-0.09,0.63-0.26c0.17-0.17,0.26-0.38,0.26-0.63V2.99V1.15
			c0-0.25-0.09-0.46-0.26-0.62c-0.17-0.17-0.38-0.25-0.63-0.25h-0.06V0h3.38v0.28H18.3C18.05,0.27,17.84,0.36,17.67,0.52z"/>
		<path class="st0" d="M33.43,11.35H33.2h-1.24v-1.7c-0.17,0.32-0.4,0.61-0.68,0.86c-0.25,0.22-0.57,0.41-0.96,0.58
			c-0.39,0.17-0.88,0.26-1.47,0.26c-0.58,0-1.14-0.08-1.66-0.25c-0.52-0.17-1-0.41-1.43-0.73c-0.43-0.32-0.81-0.71-1.13-1.17
			c-0.32-0.46-0.57-0.99-0.74-1.59V7.56c-0.02-0.08-0.04-0.15-0.06-0.22c-0.02-0.07-0.04-0.15-0.06-0.23
			c-0.02-0.12-0.04-0.23-0.06-0.35c-0.02-0.11-0.03-0.21-0.04-0.3c-0.01-0.11-0.02-0.21-0.03-0.31C23.62,6.08,23.61,6,23.61,5.93
			c0-0.07,0-0.14,0-0.22V5.68V5.65V5.63c0-0.88,0.13-1.66,0.4-2.36c0.27-0.7,0.64-1.29,1.1-1.77c0.46-0.49,1.01-0.86,1.64-1.12
			C27.38,0.13,28.06,0,28.78,0c0.84,0.01,1.59,0.19,2.25,0.55c0.66,0.36,1.2,0.86,1.62,1.51c0.06,0,0.11-0.03,0.15-0.1
			c0.03-0.06,0.06-0.15,0.08-0.24c0.02-0.1,0.03-0.19,0.04-0.29c0-0.1,0.01-0.18,0.01-0.24V1.12h0.28v3.42h-0.28V4.47
			c0-0.31-0.04-0.66-0.13-1.04c-0.09-0.38-0.21-0.7-0.37-0.95c-0.39-0.67-0.9-1.18-1.52-1.54c-0.63-0.36-1.34-0.54-2.14-0.55
			c-0.87-0.01-1.58,0.22-2.12,0.7c-0.54,0.48-0.94,1.11-1.2,1.91c-0.16,0.41-0.27,0.85-0.32,1.32c-0.05,0.47-0.08,0.9-0.07,1.3
			c0.01,0.46,0.05,0.92,0.11,1.38c0.08,0.58,0.21,1.12,0.4,1.6c0.19,0.49,0.45,0.9,0.75,1.26c0.31,0.35,0.67,0.62,1.08,0.82
			c0.42,0.19,0.89,0.29,1.42,0.29c0.63,0,1.14-0.11,1.54-0.33c0.4-0.22,0.72-0.47,0.96-0.74c0.28-0.31,0.49-0.67,0.63-1.07V6.83
			c0-0.22-0.07-0.4-0.2-0.54c-0.13-0.15-0.32-0.22-0.54-0.22h-0.53V5.68h3.71v0.26h-0.06c-0.25,0-0.46,0.09-0.63,0.26
			c-0.17,0.17-0.26,0.38-0.26,0.63v2.41V11.35z"/>
		<path class="st0" d="M39.63,0h0.32h1.93l6.4,9.6V1.42c0-0.24-0.04-0.43-0.13-0.58c-0.09-0.15-0.19-0.26-0.32-0.35
			c-0.13-0.09-0.27-0.15-0.41-0.18c-0.15-0.03-0.28-0.05-0.4-0.05h-0.06V0h3v0.28h-0.06c-0.12,0-0.25,0.02-0.4,0.05
			c-0.15,0.03-0.28,0.09-0.4,0.18c-0.12,0.09-0.22,0.2-0.3,0.35c-0.08,0.15-0.12,0.34-0.12,0.58v8.76l0.16,0.24
			c0.14,0.18,0.29,0.34,0.45,0.47c0.16,0.13,0.36,0.19,0.61,0.19h0.06v0.26H47.7l-6.41-9.6v8.19c0,0.24,0.04,0.43,0.13,0.58
			c0.09,0.15,0.19,0.26,0.32,0.35c0.13,0.09,0.27,0.15,0.41,0.18c0.15,0.03,0.28,0.05,0.4,0.05h0.06v0.26h-2.98v-0.26h0.06
			c0.12,0,0.25-0.02,0.39-0.05c0.14-0.03,0.27-0.09,0.39-0.18c0.12-0.09,0.22-0.2,0.3-0.35c0.08-0.15,0.12-0.34,0.12-0.58V1.16
			l-0.16-0.24c-0.12-0.17-0.28-0.31-0.49-0.4c-0.21-0.1-0.41-0.16-0.62-0.18V0z"/>
		<path class="st0" d="M65.92,10.95c0.05,0.03,0.13,0.07,0.24,0.11c0.11,0.04,0.2,0.07,0.28,0.09v0.23h-0.36h-0.53h-2.48v-0.28h0.06
			c0.24,0,0.42-0.08,0.55-0.23c0.13-0.15,0.16-0.32,0.08-0.52l-0.02-0.06l-1.1-2.54h-4.57l-0.94,2.25c-0.09,0.22-0.12,0.39-0.1,0.53
			c0.02,0.14,0.08,0.25,0.18,0.33c0.1,0.08,0.22,0.14,0.38,0.18c0.16,0.04,0.33,0.06,0.51,0.06h0.06v0.28h-1.62h-0.42h-0.92v-0.28
			h0.06c0.3,0,0.57-0.09,0.82-0.26c0.24-0.17,0.46-0.46,0.64-0.87L57.54,8l0.28-0.65l3.08-7.34L65.3,10.2
			c0.05,0.12,0.13,0.25,0.23,0.38c0.1,0.13,0.2,0.25,0.32,0.33L65.92,10.95z M62.47,7.35l-2.14-4.97l-2.09,4.97H62.47z"/>
		<path class="st0" d="M81.72,0v1.91h-0.28V1.84c0-0.12-0.02-0.26-0.05-0.43c-0.03-0.17-0.09-0.33-0.18-0.48
			c-0.09-0.15-0.2-0.28-0.35-0.39c-0.14-0.11-0.34-0.16-0.57-0.16h-0.75h-1.25c-0.31,0-0.53,0.06-0.66,0.19
			c-0.12,0.13-0.19,0.32-0.19,0.57v9.05c0,0.25,0.08,0.46,0.25,0.63c0.17,0.17,0.38,0.26,0.62,0.26h0.05h0.02v0.26h-0.02h-3.35
			h-0.02v-0.26h0.02h0.05c0.25,0,0.45-0.09,0.62-0.26c0.17-0.17,0.25-0.38,0.25-0.63V1.15c0-0.25-0.06-0.44-0.19-0.57
			c-0.12-0.13-0.34-0.19-0.66-0.19h-1.26h-0.73c-0.24,0-0.43,0.05-0.58,0.16c-0.15,0.11-0.26,0.24-0.35,0.39
			c-0.09,0.15-0.15,0.31-0.18,0.48c-0.03,0.17-0.05,0.31-0.05,0.43v0.07H71.7V0h2.15h2.85h2.85H81.72z"/>
		<path class="st0" d="M89.56,0.52C89.39,0.69,89.3,0.9,89.3,1.15V6.4c0,0.71,0.04,1.35,0.11,1.92c0.08,0.57,0.22,1.05,0.43,1.44
			c0.21,0.39,0.5,0.69,0.87,0.9c0.37,0.2,0.85,0.31,1.44,0.31c0.69,0,1.24-0.11,1.64-0.33c0.41-0.22,0.71-0.53,0.92-0.93
			c0.21-0.4,0.34-0.87,0.4-1.43c0.05-0.55,0.08-1.16,0.08-1.81V1.42c0-0.24-0.04-0.43-0.12-0.58C95,0.7,94.89,0.59,94.77,0.5
			c-0.12-0.09-0.26-0.15-0.4-0.18c-0.14-0.03-0.27-0.05-0.39-0.05h-0.07V0h3v0.28h-0.06c-0.12,0-0.25,0.02-0.4,0.05
			c-0.14,0.03-0.28,0.09-0.41,0.18c-0.13,0.09-0.24,0.2-0.32,0.35c-0.09,0.15-0.13,0.34-0.13,0.58v5.07c0,0.6-0.03,1.2-0.07,1.78
			c-0.05,0.58-0.19,1.1-0.41,1.55c-0.23,0.45-0.57,0.82-1.03,1.1c-0.46,0.28-1.1,0.42-1.92,0.42c-1.54,0-2.65-0.41-3.32-1.23
			c-0.67-0.82-1-2.07-1-3.76V1.15c0-0.24-0.08-0.44-0.23-0.61c-0.15-0.17-0.36-0.26-0.62-0.27V0h3.27v0.28h-0.07
			C89.94,0.27,89.73,0.36,89.56,0.52z"/>
		<path class="st0" d="M102.18,0h0.39h0.26h2.72h2.17c0.67,0,1.27,0.09,1.79,0.28c0.52,0.19,0.97,0.45,1.33,0.78
			c0.36,0.33,0.64,0.72,0.83,1.17c0.19,0.45,0.28,0.93,0.28,1.45c0,0.85-0.25,1.6-0.74,2.23c-0.49,0.63-1.2,1.06-2.13,1.29
			c0.33,0.09,0.67,0.2,1.01,0.34c0.34,0.14,0.65,0.32,0.92,0.55c0.27,0.23,0.49,0.5,0.66,0.83c0.17,0.32,0.25,0.71,0.25,1.17v0.13
			c0,0.25,0.09,0.46,0.26,0.63c0.17,0.17,0.38,0.26,0.63,0.26h0.06v0.26h-3.37v-0.26h0.07c0.25,0,0.46-0.09,0.63-0.26
			c0.17-0.17,0.26-0.38,0.26-0.63V9.88c0-0.56-0.11-1.01-0.34-1.34c-0.23-0.33-0.49-0.59-0.79-0.77c-0.3-0.18-0.61-0.29-0.92-0.35
			c-0.31-0.05-0.55-0.08-0.73-0.08h-3.07v2.87c0,0.25,0.09,0.46,0.26,0.63c0.17,0.17,0.38,0.26,0.63,0.26h0.06v0.26h-3.38v-0.26
			h0.07c0.25,0,0.46-0.09,0.63-0.26c0.17-0.17,0.26-0.38,0.26-0.63V1.15V1.12c-0.01-0.14-0.05-0.26-0.11-0.36
			c-0.07-0.1-0.15-0.18-0.24-0.23c-0.1-0.06-0.2-0.1-0.31-0.13c-0.11-0.03-0.21-0.05-0.29-0.06V0z M104.61,6.95h3.12
			c0.5,0,0.92-0.08,1.26-0.24c0.35-0.16,0.63-0.39,0.85-0.68s0.38-0.64,0.48-1.04c0.1-0.4,0.15-0.84,0.15-1.31s-0.05-0.91-0.15-1.31
			c-0.1-0.4-0.26-0.74-0.48-1.04s-0.5-0.52-0.85-0.69c-0.34-0.17-0.76-0.25-1.26-0.25h-2.31c-0.3,0-0.51,0.06-0.63,0.19
			c-0.12,0.13-0.18,0.32-0.18,0.57V6.95z"/>
		<path class="st0" d="M127.01,9.44h0.27v1.91h-2.67h-0.1h-6.38v-0.26h0.07c0.25,0,0.46-0.09,0.63-0.26
			c0.17-0.17,0.26-0.38,0.26-0.63V1.16c0-0.25-0.09-0.46-0.26-0.62c-0.17-0.17-0.38-0.25-0.63-0.25h-0.07V0h8.81l0.34,1.91h-0.27
			V1.84c-0.03-0.14-0.08-0.3-0.15-0.47c-0.07-0.17-0.17-0.33-0.3-0.48c-0.13-0.15-0.29-0.27-0.48-0.36
			c-0.19-0.1-0.42-0.15-0.69-0.15h-3.97c-0.31,0-0.53,0.07-0.66,0.2c-0.13,0.14-0.19,0.33-0.19,0.58v3.68h1.47
			c0.24,0,0.43-0.05,0.57-0.15c0.15-0.1,0.26-0.23,0.35-0.38c0.09-0.15,0.15-0.31,0.18-0.48c0.03-0.17,0.05-0.32,0.05-0.45V3.32
			h0.28v3.43h-0.28V6.7c0-0.13-0.02-0.28-0.05-0.45c-0.03-0.17-0.09-0.33-0.18-0.48c-0.09-0.15-0.2-0.28-0.35-0.39
			c-0.15-0.11-0.34-0.16-0.57-0.16h-1.47v4.97c0,0.25,0.06,0.44,0.19,0.57c0.13,0.13,0.35,0.19,0.66,0.19h3.09h0.1h1.26
			c0.23,0,0.42-0.05,0.57-0.15c0.15-0.1,0.27-0.23,0.35-0.38c0.08-0.15,0.14-0.31,0.17-0.48c0.03-0.17,0.05-0.32,0.05-0.45V9.44z"/>
	</g>
</g>
</svg>
