<?xml version="1.0" encoding="utf-8"?>
<!-- Generator: Adobe Illustrator 25.4.1, SVG Export Plug-In . SVG Version: 6.00 Build 0)  -->
<svg version="1.1" id="Layer_1" xmlns="http://www.w3.org/2000/svg" xmlns:xlink="http://www.w3.org/1999/xlink" x="0px" y="0px"
	 viewBox="0 0 304.69 11.37" style="enable-background:new 0 0 304.69 11.37;" xml:space="preserve">
<style type="text/css">
	.st0{fill:#4D5753;}
</style>
<g>
	<g>
		<path class="st0" d="M11.22,11.14v0.23h-0.36h-0.53H7.85v-0.28h0.06c0.47,0,0.78-0.36,0.63-0.75l-0.02-0.06l-1.1-2.54H2.87
			L1.93,9.99c-0.34,0.84,0.24,1.1,0.97,1.1h0.06v0.28H1.34H0.92H0v-0.28h0.06c0.6,0,1.1-0.32,1.46-1.13L2.33,8l0.28-0.65l3.08-7.33
			l4.4,10.18c0.11,0.24,0.31,0.53,0.55,0.71c0,0,0.03,0.02,0.06,0.03C10.8,11.01,11.07,11.11,11.22,11.14z M7.25,7.35L5.12,2.38
			L3.03,7.35H7.25z"/>
		<path class="st0" d="M16.49,0c0.08,0,0.32,0,0.39,0h0.26h2.72h2.17c2.69,0,4.23,1.59,4.23,3.67c0,1.7-1.02,3.06-2.87,3.51
			c1.36,0.32,2.83,1.08,2.83,2.88c0,0.06,0,0.1,0,0.13c0,0.49,0.4,0.89,0.89,0.89h0.06v0.26H23.8v-0.26h0.06
			c0.49,0,0.89-0.4,0.89-0.89c0,0,0-0.08,0-0.32c0-2.25-2.09-2.53-2.78-2.54H18.9v2.87c0,0.49,0.4,0.89,0.89,0.89h0.06v0.26h-3.37
			v-0.26h0.06c0.49,0,0.89-0.4,0.89-0.89V1.15c0,0,0-0.02,0-0.03c-0.03-0.58-0.6-0.75-0.96-0.78V0z M18.9,6.95h3.12
			c1.98,0,2.75-1.38,2.75-3.27c0-1.89-0.78-3.29-2.75-3.29h-2.31c-0.6,0-0.81,0.28-0.81,0.76V6.95z"/>
		<path class="st0" d="M41.38,0v1.91H41.1V1.85c0-0.49-0.21-1.46-1.15-1.46h-0.74h-1.25c-0.62,0-0.84,0.28-0.84,0.76v9.05
			c0,0.49,0.39,0.89,0.87,0.89h0.05h0.02v0.26h-0.02h-3.35h-0.02v-0.26h0.02h0.05c0.49,0,0.87-0.4,0.87-0.89V1.15
			c0-0.49-0.23-0.76-0.84-0.76h-1.26h-0.73c-0.94,0-1.15,0.97-1.15,1.46v0.06h-0.28V0h2.15h2.85h2.85H41.38z"/>
		<path class="st0" d="M49.06,1.15v9.05c0,0.49,0.4,0.89,0.89,0.89h0.06v0.26h-3.37v-0.26h0.06c0.49,0,0.89-0.4,0.89-0.89V1.15
			c0-0.49-0.4-0.87-0.89-0.87h-0.06V0h3.37v0.28h-0.06C49.46,0.28,49.06,0.66,49.06,1.15z"/>
		<path class="st0" d="M55.28,0h2.25l6.39,9.6V1.42c0-0.94-0.78-1.15-1.26-1.15h-0.06V0h3v0.28h-0.06c-0.49,0-1.21,0.21-1.21,1.15
			v8.76l0.16,0.24c0.27,0.37,0.57,0.66,1.05,0.66h0.06v0.26h-2.25l-6.41-9.6v8.19c0,0.94,0.78,1.15,1.26,1.15h0.06v0.26h-2.98v-0.26
			h0.06c0.49,0,1.2-0.21,1.2-1.15V1.17l-0.16-0.24c-0.24-0.34-0.7-0.53-1.1-0.58V0z"/>
		<path class="st0" d="M90.85,2.07c0.24,0,0.28-0.62,0.28-0.87V1.13h0.27v3.42h-0.27V4.48c0-0.6-0.19-1.51-0.5-1.99
			c-0.78-1.33-2.07-2.07-3.66-2.09c-2.61-0.02-3.66,2.27-3.68,5.25v0.02V5.7v0.02v0.03c0.02,2.96,1.25,5.23,3.74,5.23
			c2.14,0,3.59-1.02,4.29-2.72c0.02-0.05,0.06-0.06,0.1-0.06c0.06,0,0.11,0.06,0.1,0.13c-0.65,1.81-2.2,3.04-4.47,3.04
			c-2.88,0.03-5.21-2.14-5.23-5.63c0-0.02,0-0.03,0-0.03c0-0.02,0-0.03,0-0.03C81.84,2.91,83.21,1,85.2,0.31c0,0,1-0.39,2.23-0.28
			C88.9,0.18,90.09,0.89,90.85,2.07z"/>
		<path class="st0" d="M99.12,1.15c0,0,0,5.23,0,5.25c0,2.87,0.49,4.57,2.85,4.57c2.78,0,3.04-1.88,3.04-4.5V1.42
			c0-0.94-0.73-1.15-1.21-1.15h-0.06V0h3v0.28h-0.06c-0.49,0-1.26,0.21-1.26,1.15v5.07c0,2.43-0.16,4.86-3.43,4.86
			c-3.09,0-4.32-1.62-4.32-4.99V1.15c0-0.47-0.32-0.86-0.84-0.87V0h3.27v0.28h-0.06C99.5,0.28,99.12,0.66,99.12,1.15z"/>
		<path class="st0" d="M120.64,8.27c-0.1,1.67-1.88,3.08-5.04,3.08c-2.17,0-3.95-1.04-4.45-2.36c-0.1-0.24,0.28-0.36,0.36-0.16
			c0.45,1.2,2.22,2.14,4.13,2.14c2.62,0,3.77-1.17,3.61-2.62c-0.36-3.08-7.8-1.46-7.64-5.73c0.05-1.33,1.55-2.57,4.34-2.61
			c1.68,0,2.77,0.68,3.22,1.29c0.13,0,0.23-0.53,0.23-0.79V0.45h0.26V3.4h-0.26V3.33c0-1.96-1.59-2.95-3.38-2.95
			c-1.73,0-3.04,0.75-3.04,2.02C112.96,5.49,120.91,3.95,120.64,8.27z"/>
		<path class="st0" d="M135.41,0v1.91h-0.28V1.85c0-0.49-0.21-1.46-1.15-1.46h-0.74h-1.25c-0.62,0-0.84,0.28-0.84,0.76v9.05
			c0,0.49,0.39,0.89,0.87,0.89h0.05h0.02v0.26h-0.02h-3.35h-0.02v-0.26h0.02h0.05c0.49,0,0.87-0.4,0.87-0.89V1.15
			c0-0.49-0.23-0.76-0.84-0.76h-1.26h-0.73c-0.94,0-1.15,0.97-1.15,1.46v0.06h-0.28V0h2.15h2.85h2.85H135.41z"/>
		<path class="st0" d="M145.01,11.35c-2.88,0-4.99-2.17-4.99-5.67c0-3.51,2.1-5.68,4.99-5.68c2.23,0,4,1.29,4.68,3.5
			c0,0,0.32,0.96,0.32,2.19C150.02,9.18,147.9,11.35,145.01,11.35z M148.54,5.65c0-2.48-0.71-3.87-1.47-4.48
			c-0.74-0.62-1.34-0.84-2.14-0.84c-0.37,0-1.17,0.13-1.89,0.7c-1.12,0.88-1.54,2.59-1.54,4.63c0,0.02,0,0.02,0,0.03V5.7
			c0,2.98,0.91,5.26,3.51,5.26s3.53-2.28,3.53-5.26V5.68C148.54,5.67,148.54,5.67,148.54,5.65z"/>
		<path class="st0" d="M165.76,1.17v9.03c0,0.49,0.39,0.89,0.89,0.89h0.05v0.26h-3.37v-0.26h0.06c0.5,0,0.89-0.4,0.89-0.89V2.04
			l-3.9,9.31l-3.89-8.97v7.56c0,0.94,0.78,1.15,1.26,1.15h0.06v0.26h-2.98v-0.26h0.06c0.49,0,1.2-0.21,1.2-1.15V1.49l-0.13-0.32
			c-0.13-0.29-0.39-0.65-0.71-0.81c-0.11-0.03-0.24-0.07-0.36-0.07h-0.06V0h2.27l3.84,8.99l3.19-7.61l0.15-0.34
			c-0.06-0.44-0.44-0.76-0.89-0.76h-0.06V0h3.37v0.28h-0.05C166.15,0.28,165.76,0.66,165.76,1.17z"/>
		<path class="st0" d="M180.82,9.44h0.28v1.91h-9.13v-0.26h0.06c0.49,0,0.89-0.4,0.89-0.89V1.17c0-0.5-0.4-0.88-0.89-0.88h-0.06V0
			h8.79l0.34,1.91h-0.28V1.85c-0.11-0.58-0.55-1.46-1.62-1.46h-3.97c-0.62,0-0.86,0.28-0.86,0.78v3.67h1.47
			c0.94,0,1.15-0.96,1.15-1.46V3.32h0.27v3.43H177V6.7c0-0.5-0.21-1.47-1.15-1.47h-1.47v4.97c0,0.49,0.24,0.76,0.86,0.76h4.45
			c0.92,0,1.13-0.96,1.13-1.46V9.44z"/>
		<path class="st0" d="M186.36,0c0.08,0,0.32,0,0.39,0h0.26h2.72h2.17c2.69,0,4.23,1.59,4.23,3.67c0,1.7-1.02,3.06-2.87,3.51
			c1.36,0.32,2.83,1.08,2.83,2.88c0,0.06,0,0.1,0,0.13c0,0.49,0.4,0.89,0.89,0.89h0.06v0.26h-3.37v-0.26h0.06
			c0.49,0,0.89-0.4,0.89-0.89c0,0,0-0.08,0-0.32c0-2.25-2.09-2.53-2.78-2.54h-3.08v2.87c0,0.49,0.4,0.89,0.89,0.89h0.06v0.26h-3.37
			v-0.26h0.06c0.49,0,0.89-0.4,0.89-0.89V1.15c0,0,0-0.02,0-0.03c-0.03-0.58-0.6-0.75-0.96-0.78V0z M188.78,6.95h3.12
			c1.98,0,2.75-1.38,2.75-3.27c0-1.89-0.78-3.29-2.75-3.29h-2.31c-0.6,0-0.81,0.28-0.81,0.76V6.95z"/>
		<path class="st0" d="M222.78,8.27c-0.1,1.67-1.88,3.08-5.04,3.08c-2.17,0-3.95-1.04-4.45-2.36c-0.1-0.24,0.28-0.36,0.36-0.16
			c0.45,1.2,2.22,2.14,4.13,2.14c2.62,0,3.77-1.17,3.61-2.62c-0.36-3.08-7.8-1.46-7.64-5.73c0.05-1.33,1.55-2.57,4.34-2.61
			c1.68,0,2.77,0.68,3.22,1.29c0.13,0,0.23-0.53,0.23-0.79V0.45h0.26V3.4h-0.26V3.33c0-1.96-1.59-2.95-3.38-2.95
			c-1.73,0-3.04,0.75-3.04,2.02C215.11,5.49,223.06,3.95,222.78,8.27z"/>
		<path class="st0" d="M236.49,9.44h0.28v1.91h-9.13v-0.26h0.06c0.49,0,0.89-0.4,0.89-0.89V1.17c0-0.5-0.4-0.88-0.89-0.88h-0.06V0
			h8.79l0.34,1.91h-0.28V1.85c-0.11-0.58-0.55-1.46-1.62-1.46h-3.97c-0.62,0-0.86,0.28-0.86,0.78v3.67h1.47
			c0.94,0,1.15-0.96,1.15-1.46V3.32h0.27v3.43h-0.27V6.7c0-0.5-0.21-1.47-1.15-1.47h-1.47v4.97c0,0.49,0.24,0.76,0.86,0.76h4.45
			c0.92,0,1.13-0.96,1.13-1.46V9.44z"/>
		<path class="st0" d="M242.03,0c0.08,0,0.32,0,0.39,0h0.26h2.72h2.17c2.69,0,4.23,1.59,4.23,3.67c0,1.7-1.02,3.06-2.87,3.51
			c1.36,0.32,2.83,1.08,2.83,2.88c0,0.06,0,0.1,0,0.13c0,0.49,0.4,0.89,0.89,0.89h0.06v0.26h-3.37v-0.26h0.06
			c0.49,0,0.89-0.4,0.89-0.89c0,0,0-0.08,0-0.32c0-2.25-2.09-2.53-2.78-2.54h-3.08v2.87c0,0.49,0.4,0.89,0.89,0.89h0.06v0.26h-3.37
			v-0.26h0.06c0.49,0,0.89-0.4,0.89-0.89V1.15c0,0,0-0.02,0-0.03c-0.03-0.58-0.6-0.75-0.96-0.78V0z M244.44,6.95h3.12
			c1.98,0,2.75-1.38,2.75-3.27c0-1.89-0.78-3.29-2.75-3.29h-2.31c-0.6,0-0.81,0.28-0.81,0.76V6.95z"/>
		<path class="st0" d="M258.43,1.02l0.03,0.07l3.42,7.9l3.19-7.61c0.32-0.84-0.26-1.1-0.99-1.1h-0.05V0h1.6h0.42H267v0.28h-0.06
			c-0.74,0-1.12,0.31-1.46,1.13l-4.18,9.94l-4.4-10.2c-0.15-0.34-0.65-0.78-1.07-0.86V0h3.32v0.28h-0.06
			C258.61,0.28,258.29,0.63,258.43,1.02z"/>
		<path class="st0" d="M274.68,1.15v9.05c0,0.49,0.4,0.89,0.89,0.89h0.06v0.26h-3.37v-0.26h0.06c0.49,0,0.89-0.4,0.89-0.89V1.15
			c0-0.49-0.4-0.87-0.89-0.87h-0.06V0h3.37v0.28h-0.06C275.08,0.28,274.68,0.66,274.68,1.15z"/>
		<path class="st0" d="M289.61,2.07c0.24,0,0.28-0.62,0.28-0.87V1.13h0.27v3.42h-0.27V4.48c0-0.6-0.19-1.51-0.5-1.99
			c-0.78-1.33-2.07-2.07-3.66-2.09c-2.61-0.02-3.66,2.27-3.68,5.25v0.02V5.7v0.02v0.03c0.02,2.96,1.25,5.23,3.74,5.23
			c2.14,0,3.59-1.02,4.29-2.72c0.02-0.05,0.06-0.06,0.1-0.06c0.06,0,0.11,0.06,0.1,0.13c-0.65,1.81-2.2,3.04-4.47,3.04
			c-2.88,0.03-5.21-2.14-5.23-5.63c0-0.02,0-0.03,0-0.03c0-0.02,0-0.03,0-0.03c0.02-2.75,1.39-4.66,3.38-5.36c0,0,1-0.39,2.23-0.28
			C287.65,0.18,288.85,0.89,289.61,2.07z"/>
		<path class="st0" d="M304.41,9.44h0.28v1.91h-9.13v-0.26h0.06c0.49,0,0.89-0.4,0.89-0.89V1.17c0-0.5-0.4-0.88-0.89-0.88h-0.06V0
			h8.79l0.34,1.91h-0.28V1.85c-0.11-0.58-0.55-1.46-1.62-1.46h-3.97c-0.62,0-0.86,0.28-0.86,0.78v3.67h1.47
			c0.94,0,1.15-0.96,1.15-1.46V3.32h0.28v3.43h-0.28V6.7c0-0.5-0.21-1.47-1.15-1.47h-1.47v4.97c0,0.49,0.24,0.76,0.86,0.76h4.45
			c0.92,0,1.13-0.96,1.13-1.46V9.44z"/>
	</g>
</g>
</svg>
