<?xml version="1.0" encoding="utf-8"?>
<!-- Generator: Adobe Illustrator 25.4.1, SVG Export Plug-In . SVG Version: 6.00 Build 0)  -->
<svg version="1.1" id="Layer_1" xmlns="http://www.w3.org/2000/svg" xmlns:xlink="http://www.w3.org/1999/xlink" x="0px" y="0px"
	 viewBox="0 0 163.93 11.37" style="enable-background:new 0 0 163.93 11.37;" xml:space="preserve">
<style type="text/css">
	.st0{fill:#4D5753;}
</style>
<g>
	<g>
		<path class="st0" d="M2.58,0.5C2.45,0.65,2.42,0.83,2.49,1.02l0.03,0.07l3.4,7.9l1.3-3.08L5.17,1.15
			c-0.09-0.19-0.22-0.39-0.4-0.58c-0.18-0.19-0.4-0.29-0.65-0.29H4.05V0h3.37v0.28H7.35c-0.24,0-0.42,0.08-0.55,0.23
			C6.67,0.65,6.65,0.83,6.72,1.02l0.02,0.07l1.28,2.95l1.12-2.66C9.21,1.17,9.24,1,9.22,0.85C9.19,0.7,9.13,0.59,9.04,0.51
			c-0.1-0.08-0.22-0.14-0.38-0.18C8.5,0.29,8.33,0.28,8.15,0.28H8.08V0H9.7h0.42h0.92v0.28H11c-0.38,0-0.67,0.09-0.88,0.26
			C9.9,0.71,9.71,1,9.54,1.41L8.39,4.15L8.23,4.52l1.93,4.47l3.19-7.61c0.09-0.21,0.12-0.38,0.1-0.53
			c-0.02-0.15-0.08-0.26-0.18-0.34c-0.1-0.08-0.22-0.14-0.38-0.18c-0.16-0.04-0.33-0.06-0.51-0.06h-0.07V0h1.62h0.42h0.92v0.28
			h-0.06c-0.37,0-0.66,0.09-0.87,0.26C14.13,0.71,13.93,1,13.75,1.41l-4.18,9.94L7.43,6.4l-2.07,4.96L0.96,1.15
			C0.87,0.97,0.74,0.78,0.57,0.6C0.41,0.42,0.22,0.31,0,0.28V0h3.19v0.28H3.14C2.9,0.28,2.72,0.35,2.58,0.5z"/>
		<path class="st0" d="M31.24,10.95c0.05,0.03,0.13,0.07,0.24,0.11c0.11,0.04,0.2,0.07,0.28,0.09v0.23H31.4h-0.53h-2.48v-0.28h0.06
			c0.24,0,0.42-0.08,0.55-0.23c0.13-0.15,0.16-0.32,0.08-0.52l-0.02-0.06l-1.1-2.54H23.4l-0.94,2.25c-0.09,0.22-0.12,0.39-0.1,0.53
			c0.02,0.14,0.08,0.25,0.18,0.33c0.1,0.08,0.22,0.14,0.38,0.18c0.16,0.04,0.33,0.06,0.51,0.06h0.06v0.28h-1.62h-0.42h-0.92v-0.28
			h0.06c0.3,0,0.57-0.09,0.82-0.26c0.24-0.17,0.46-0.46,0.64-0.87L22.87,8l0.28-0.65l3.08-7.34l4.41,10.19
			c0.05,0.12,0.13,0.25,0.23,0.38c0.1,0.13,0.2,0.25,0.32,0.33L31.24,10.95z M27.79,7.35l-2.14-4.97l-2.09,4.97H27.79z"/>
		<path class="st0" d="M37.02,0h0.02h3.37v0.28h-0.06c-0.25,0-0.46,0.09-0.63,0.26c-0.17,0.17-0.26,0.38-0.26,0.63v9.04
			c0,0.25,0.06,0.44,0.19,0.57c0.13,0.13,0.35,0.19,0.66,0.19h4.5c0.24,0,0.43-0.05,0.58-0.16c0.15-0.11,0.26-0.24,0.35-0.39
			c0.09-0.15,0.15-0.31,0.18-0.48c0.03-0.17,0.05-0.31,0.05-0.43V9.44h0.28v1.91h-9.2v-0.26h0.06c0.25,0,0.46-0.09,0.62-0.26
			c0.17-0.17,0.25-0.38,0.25-0.63V1.17c0-0.09-0.01-0.15-0.02-0.19c-0.04-0.19-0.14-0.36-0.3-0.49c-0.16-0.13-0.34-0.19-0.56-0.19
			h-0.08V0z"/>
		<path class="st0" d="M51.5,0h0.32h1.93l6.4,9.6V1.43c0-0.24-0.04-0.43-0.13-0.58C59.93,0.7,59.83,0.59,59.7,0.5
			c-0.13-0.09-0.27-0.15-0.41-0.18c-0.15-0.03-0.28-0.05-0.4-0.05h-0.06V0h3v0.28h-0.06c-0.12,0-0.25,0.02-0.4,0.05
			c-0.15,0.03-0.28,0.09-0.4,0.18c-0.12,0.09-0.22,0.2-0.3,0.35C60.58,1,60.54,1.19,60.54,1.43v8.76l0.16,0.24
			c0.14,0.18,0.29,0.34,0.45,0.47c0.16,0.13,0.36,0.19,0.61,0.19h0.06v0.26h-2.25l-6.41-9.6v8.19c0,0.24,0.04,0.43,0.13,0.58
			c0.09,0.15,0.19,0.26,0.32,0.35c0.13,0.09,0.27,0.15,0.41,0.18c0.15,0.03,0.28,0.05,0.4,0.05h0.06v0.26H51.5v-0.26h0.06
			c0.12,0,0.25-0.02,0.39-0.05c0.14-0.03,0.27-0.09,0.39-0.18c0.12-0.09,0.22-0.2,0.3-0.35c0.08-0.15,0.12-0.34,0.12-0.58V1.17
			L52.6,0.92c-0.12-0.17-0.28-0.31-0.49-0.4c-0.21-0.1-0.41-0.16-0.62-0.18V0z"/>
		<path class="st0" d="M69.66,0.53C69.48,0.69,69.4,0.9,69.4,1.15V6.4c0,0.71,0.04,1.35,0.11,1.92c0.08,0.57,0.22,1.05,0.43,1.44
			c0.21,0.39,0.5,0.69,0.87,0.9c0.37,0.21,0.85,0.31,1.44,0.31c0.69,0,1.24-0.11,1.64-0.33c0.41-0.22,0.71-0.53,0.92-0.93
			c0.21-0.4,0.34-0.87,0.4-1.43c0.05-0.55,0.08-1.16,0.08-1.81V1.43c0-0.24-0.04-0.43-0.12-0.58c-0.08-0.15-0.18-0.26-0.31-0.35
			c-0.12-0.09-0.26-0.15-0.4-0.18c-0.14-0.03-0.27-0.05-0.39-0.05h-0.06V0h3v0.28h-0.06c-0.12,0-0.25,0.02-0.4,0.05
			c-0.15,0.03-0.28,0.09-0.41,0.18c-0.13,0.09-0.24,0.2-0.32,0.35C75.73,1,75.68,1.19,75.68,1.43v5.07c0,0.6-0.02,1.2-0.07,1.78
			c-0.05,0.58-0.19,1.1-0.41,1.55c-0.23,0.45-0.57,0.82-1.03,1.1c-0.46,0.28-1.1,0.42-1.92,0.42c-1.54,0-2.65-0.41-3.32-1.23
			c-0.67-0.82-1-2.07-1-3.76V1.15c0-0.24-0.08-0.44-0.23-0.61c-0.15-0.17-0.36-0.26-0.62-0.27V0h3.27v0.28h-0.06
			C70.04,0.28,69.83,0.36,69.66,0.53z"/>
		<path class="st0" d="M92.3,0v1.91h-0.28V1.85c0-0.12-0.02-0.26-0.05-0.43c-0.03-0.17-0.09-0.33-0.18-0.48
			c-0.09-0.15-0.2-0.28-0.35-0.39c-0.15-0.11-0.34-0.16-0.57-0.16h-0.75h-1.25c-0.31,0-0.53,0.06-0.66,0.19
			c-0.12,0.13-0.19,0.32-0.19,0.57v9.05c0,0.25,0.08,0.46,0.25,0.63c0.17,0.17,0.38,0.26,0.62,0.26h0.05h0.02v0.26h-0.02h-3.35
			h-0.02v-0.26h0.02h0.05c0.25,0,0.46-0.09,0.62-0.26c0.17-0.17,0.25-0.38,0.25-0.63V1.15c0-0.25-0.06-0.44-0.19-0.57
			C86.22,0.45,86,0.39,85.69,0.39h-1.26H83.7c-0.24,0-0.43,0.05-0.58,0.16c-0.15,0.11-0.26,0.24-0.35,0.39
			c-0.09,0.15-0.15,0.31-0.18,0.48c-0.03,0.17-0.05,0.31-0.05,0.43v0.06h-0.28V0h2.15h2.85h2.85H92.3z"/>
		<path class="st0" d="M114.15,0.03c0.73,0.08,1.39,0.29,1.98,0.63c0.58,0.35,1.06,0.82,1.44,1.41c0.06,0,0.11-0.03,0.15-0.1
			c0.03-0.06,0.06-0.15,0.08-0.24c0.02-0.1,0.04-0.19,0.04-0.29c0-0.1,0.01-0.18,0.01-0.24V1.13h0.28v3.42h-0.28V4.49
			c0-0.3-0.05-0.65-0.14-1.04c-0.09-0.39-0.21-0.71-0.36-0.96c-0.39-0.67-0.9-1.18-1.52-1.54c-0.63-0.36-1.34-0.54-2.14-0.55
			c-0.65,0-1.2,0.13-1.67,0.4c-0.46,0.26-0.85,0.63-1.14,1.1c-0.3,0.47-0.52,1.03-0.66,1.67C110.07,4.21,110,4.91,110,5.65v0.02V5.7
			v0.02v0.03c0,0.75,0.08,1.44,0.24,2.07c0.16,0.64,0.39,1.19,0.7,1.66c0.31,0.47,0.7,0.84,1.17,1.1c0.46,0.26,1.01,0.4,1.64,0.4
			c1.08,0,1.98-0.24,2.7-0.72c0.72-0.48,1.25-1.15,1.59-2c0.01-0.04,0.04-0.06,0.1-0.06c0.09,0,0.12,0.04,0.1,0.13
			c-0.32,0.91-0.87,1.64-1.63,2.2c-0.76,0.56-1.71,0.84-2.84,0.84c-0.72,0.01-1.4-0.11-2.03-0.37c-0.63-0.26-1.19-0.63-1.66-1.12
			c-0.48-0.49-0.85-1.08-1.13-1.78c-0.28-0.7-0.41-1.49-0.41-2.36V5.7V5.67c0-0.69,0.08-1.33,0.25-1.9c0.17-0.58,0.4-1.09,0.7-1.55
			c0.3-0.45,0.65-0.84,1.07-1.17c0.42-0.32,0.87-0.57,1.37-0.75c0.19-0.08,0.41-0.13,0.65-0.18c0.21-0.04,0.44-0.08,0.71-0.1
			C113.54,0.01,113.83,0.01,114.15,0.03z"/>
		<path class="st0" d="M134.21,10.95c0.05,0.03,0.13,0.07,0.24,0.11c0.11,0.04,0.2,0.07,0.28,0.09v0.23h-0.36h-0.53h-2.48v-0.28
			h0.06c0.24,0,0.42-0.08,0.55-0.23c0.13-0.15,0.16-0.32,0.08-0.52l-0.02-0.06l-1.1-2.54h-4.57l-0.94,2.25
			c-0.09,0.22-0.12,0.39-0.1,0.53c0.02,0.14,0.08,0.25,0.18,0.33c0.1,0.08,0.22,0.14,0.38,0.18c0.16,0.04,0.33,0.06,0.51,0.06h0.07
			v0.28h-1.62h-0.42h-0.92v-0.28h0.07c0.3,0,0.58-0.09,0.82-0.26c0.24-0.17,0.46-0.46,0.64-0.87L125.84,8l0.28-0.65l3.08-7.34
			l4.4,10.19c0.05,0.12,0.13,0.25,0.23,0.38c0.1,0.13,0.2,0.25,0.32,0.33L134.21,10.95z M130.76,7.35l-2.14-4.97l-2.09,4.97H130.76z
			"/>
		<path class="st0" d="M141.83,2.41c0,0.39,0.11,0.71,0.34,0.96c0.23,0.25,0.53,0.47,0.9,0.65c0.37,0.18,0.79,0.33,1.26,0.46
			c0.47,0.13,0.95,0.26,1.44,0.4c0.49,0.14,0.97,0.29,1.43,0.45c0.46,0.17,0.87,0.38,1.22,0.63c0.36,0.25,0.63,0.57,0.83,0.94
			c0.2,0.37,0.28,0.83,0.25,1.37c-0.02,0.42-0.15,0.82-0.38,1.19c-0.23,0.37-0.56,0.7-0.99,0.98c-0.43,0.28-0.95,0.5-1.56,0.66
			c-0.62,0.16-1.32,0.24-2.11,0.24c-0.54,0-1.05-0.06-1.54-0.19c-0.49-0.12-0.92-0.29-1.31-0.5c-0.39-0.21-0.72-0.46-1-0.74
			c-0.28-0.29-0.48-0.6-0.61-0.93c-0.02-0.06-0.02-0.12,0.01-0.16c0.03-0.04,0.06-0.07,0.11-0.09c0.04-0.02,0.09-0.02,0.14,0
			c0.05,0.02,0.08,0.05,0.11,0.09c0.11,0.3,0.3,0.58,0.57,0.84c0.27,0.26,0.59,0.49,0.96,0.68c0.37,0.19,0.77,0.35,1.22,0.45
			c0.45,0.11,0.91,0.16,1.38,0.16c0.66,0,1.22-0.07,1.69-0.2c0.47-0.14,0.86-0.32,1.16-0.56c0.3-0.24,0.51-0.52,0.64-0.83
			c0.12-0.32,0.16-0.66,0.12-1.03c-0.04-0.39-0.19-0.71-0.44-0.96c-0.25-0.25-0.56-0.46-0.93-0.63c-0.37-0.17-0.79-0.32-1.25-0.45
			c-0.46-0.12-0.93-0.25-1.4-0.38c-0.48-0.13-0.93-0.28-1.38-0.44c-0.44-0.16-0.83-0.37-1.17-0.62c-0.34-0.25-0.61-0.55-0.81-0.91
			c-0.2-0.36-0.29-0.81-0.27-1.35c0.01-0.33,0.11-0.66,0.31-0.96c0.19-0.31,0.47-0.58,0.83-0.83c0.36-0.24,0.81-0.44,1.34-0.58
			c0.54-0.15,1.15-0.22,1.85-0.23c0.42,0,0.8,0.04,1.15,0.11c0.35,0.08,0.65,0.18,0.92,0.3c0.27,0.12,0.5,0.26,0.69,0.42
			c0.19,0.16,0.34,0.31,0.46,0.46c0.03,0,0.06-0.03,0.09-0.09c0.03-0.06,0.05-0.13,0.07-0.21c0.02-0.08,0.04-0.17,0.05-0.26
			s0.02-0.17,0.02-0.23V0.45h0.26V3.4h-0.26V3.34c0-0.49-0.09-0.91-0.28-1.29c-0.18-0.37-0.43-0.68-0.75-0.92
			c-0.31-0.24-0.67-0.43-1.08-0.55c-0.4-0.12-0.83-0.19-1.29-0.19c-0.43,0-0.83,0.05-1.21,0.14c-0.37,0.09-0.69,0.22-0.96,0.4
			c-0.27,0.17-0.48,0.38-0.64,0.63C141.9,1.8,141.83,2.09,141.83,2.41z"/>
		<path class="st0" d="M163.66,9.44h0.27v1.91h-2.67h-0.1h-6.38v-0.26h0.07c0.25,0,0.46-0.09,0.63-0.26
			c0.17-0.17,0.26-0.38,0.26-0.63V1.17c0-0.25-0.09-0.46-0.26-0.62c-0.17-0.17-0.38-0.25-0.63-0.25h-0.07V0h8.81l0.34,1.91h-0.27
			V1.85c-0.03-0.14-0.08-0.3-0.15-0.47c-0.07-0.17-0.17-0.33-0.3-0.48c-0.13-0.15-0.29-0.27-0.48-0.36
			c-0.19-0.1-0.42-0.15-0.69-0.15h-3.97c-0.31,0-0.54,0.07-0.66,0.2c-0.13,0.14-0.2,0.33-0.2,0.58v3.68h1.47
			c0.24,0,0.43-0.05,0.57-0.15c0.15-0.1,0.26-0.23,0.35-0.38c0.09-0.15,0.15-0.31,0.18-0.48c0.03-0.17,0.05-0.32,0.05-0.45V3.32
			h0.28v3.43h-0.28V6.71c0-0.13-0.02-0.28-0.05-0.45c-0.03-0.17-0.09-0.33-0.18-0.48c-0.09-0.15-0.2-0.28-0.35-0.39
			c-0.14-0.11-0.34-0.16-0.57-0.16h-1.47v4.97c0,0.25,0.07,0.44,0.2,0.57c0.13,0.13,0.35,0.19,0.66,0.19h3.09h0.1h1.26
			c0.23,0,0.42-0.05,0.57-0.15c0.15-0.1,0.27-0.23,0.35-0.38c0.08-0.15,0.14-0.31,0.17-0.48c0.03-0.17,0.05-0.32,0.05-0.45V9.44z"/>
	</g>
</g>
</svg>
