<?xml version="1.0" encoding="utf-8"?>
<!-- Generator: Adobe Illustrator 25.4.1, SVG Export Plug-In . SVG Version: 6.00 Build 0)  -->
<svg version="1.1" id="Layer_1" xmlns="http://www.w3.org/2000/svg" xmlns:xlink="http://www.w3.org/1999/xlink" x="0px" y="0px"
	 viewBox="0 0 103.82 29.72" style="enable-background:new 0 0 103.82 29.72;" xml:space="preserve">
<style type="text/css">
	.st0{fill:#404041;}
</style>
<g>
	<g>
		<g>
			<path class="st0" d="M47.16,22.61c0-0.16,0.03-0.33,0.08-0.5c0.06-0.17,0.11-0.32,0.16-0.45c0.65-1.43,1.19-2.88,1.63-4.35
				c0.44-1.47,0.9-2.95,1.37-4.43l0.07-0.29c0.02-0.1-0.02-0.15-0.12-0.15c-0.1,0-0.18,0-0.24,0c-1.71,0.03-3.4,0.11-5.09,0.23
				c-1.68,0.12-3.38,0.21-5.09,0.25c-0.29,0-0.53,0.15-0.71,0.44c-0.34,0.62-0.68,1.22-1.02,1.82c-0.34,0.59-0.66,1.21-0.95,1.84
				c-0.08,0.16-0.14,0.31-0.17,0.45c-0.03,0.14-0.05,0.3-0.05,0.48l0.02,0.22c0,0.15-0.02,0.34-0.06,0.58
				c-0.04,0.24-0.1,0.48-0.18,0.71c-0.08,0.23-0.19,0.43-0.33,0.6c-0.14,0.17-0.31,0.25-0.5,0.25c-0.2,0-0.33-0.07-0.41-0.21
				c-0.08-0.14-0.12-0.3-0.12-0.5c0-0.31,0.06-0.64,0.17-0.99c0.11-0.35,0.21-0.61,0.29-0.77c0.05-0.13,0.07-0.24,0.07-0.32
				c0-0.18-0.07-0.34-0.22-0.49c-0.26-0.29-0.56-0.56-0.89-0.79c-0.33-0.24-0.68-0.46-1.04-0.67c-0.36-0.21-0.72-0.42-1.09-0.61
				c-0.37-0.2-0.72-0.39-1.06-0.59c-0.15-0.08-0.33-0.2-0.55-0.35c-0.22-0.16-0.33-0.32-0.33-0.5c0-0.13,0.07-0.25,0.21-0.35
				c0.14-0.11,0.3-0.2,0.48-0.27c0.18-0.07,0.37-0.13,0.56-0.17c0.2-0.04,0.34-0.07,0.44-0.09c0.83-0.13,1.65-0.24,2.46-0.32
				c0.81-0.08,1.63-0.14,2.46-0.17c0.41-0.02,0.76-0.04,1.06-0.07c0.3-0.03,0.54-0.19,0.72-0.46c0.73-1.12,1.49-2.21,2.27-3.27
				c0.78-1.06,1.61-2.09,2.49-3.1c0.39-0.46,0.9-0.98,1.54-1.59c0.63-0.6,1.32-1.17,2.05-1.72c0.73-0.54,1.48-1.01,2.26-1.39
				C50.58,0.19,51.29,0,51.94,0c0.37,0,0.68,0.08,0.93,0.23c0.24,0.16,0.43,0.36,0.57,0.61c0.14,0.25,0.24,0.54,0.29,0.85
				c0.06,0.32,0.08,0.63,0.08,0.94c0,0.2-0.01,0.4-0.02,0.6c-0.02,0.2-0.04,0.4-0.07,0.6c-0.15,1.33-0.4,2.64-0.76,3.93
				c-0.36,1.28-0.71,2.55-1.07,3.8h0.58c0.18,0,0.33,0.02,0.46,0.07c0.13,0.05,0.2,0.16,0.2,0.34c0,0.21-0.11,0.33-0.34,0.37
				c-0.23,0.03-0.46,0.06-0.68,0.07c-0.11,0-0.2,0-0.27,0.01c-0.06,0.01-0.12,0.03-0.16,0.05c-0.04,0.02-0.07,0.07-0.1,0.12
				c-0.02,0.06-0.05,0.14-0.09,0.25c-0.36,1.15-0.71,2.3-1.06,3.43c-0.35,1.13-0.71,2.26-1.09,3.38c-0.16,0.49-0.28,1-0.35,1.54
				c-0.07,0.54-0.23,1.02-0.48,1.44c-0.07,0.11-0.17,0.24-0.33,0.38c-0.16,0.14-0.32,0.21-0.5,0.21c-0.18,0-0.31-0.06-0.4-0.18
				C47.2,22.91,47.16,22.77,47.16,22.61z M36.48,16.54c0.28-0.6,0.58-1.19,0.9-1.76c0.33-0.57,0.65-1.16,0.98-1.78
				c-1.07,0.08-2.12,0.15-3.15,0.2c-1.02,0.05-2.07,0.19-3.15,0.41c0.8,0.47,1.57,0.92,2.32,1.35
				C35.12,15.39,35.82,15.92,36.48,16.54z M51.77,0.88c-0.31,0-0.64,0.07-0.99,0.22c-0.35,0.15-0.66,0.29-0.91,0.44
				c-1.04,0.58-2.01,1.26-2.9,2.02c-0.89,0.76-1.73,1.59-2.51,2.48c-0.78,0.88-1.51,1.81-2.19,2.77c-0.68,0.96-1.34,1.93-1.98,2.9
				c-0.03,0.03-0.06,0.07-0.09,0.11c-0.02,0.04-0.03,0.09-0.01,0.16c0.06,0.05,0.13,0.07,0.19,0.05c0.07-0.02,0.13-0.02,0.2-0.02
				c1.58-0.08,3.15-0.17,4.72-0.27c1.57-0.1,3.17-0.15,4.82-0.15h0.22c0.16,0,0.29-0.02,0.38-0.07c0.09-0.05,0.16-0.16,0.21-0.34
				c0.29-1.07,0.6-2.14,0.92-3.21c0.32-1.06,0.57-2.16,0.74-3.28c0.06-0.34,0.12-0.68,0.16-1.03c0.04-0.34,0.06-0.68,0.06-1.03
				c0-0.5-0.07-0.92-0.22-1.25C52.43,1.04,52.16,0.88,51.77,0.88z"/>
			<path class="st0" d="M52.47,18.49c-0.08,0-0.13-0.04-0.16-0.11c-0.02-0.07-0.04-0.15-0.04-0.23c0-0.16,0.02-0.34,0.07-0.52
				c0.05-0.19,0.09-0.32,0.12-0.4c0.13-0.46,0.28-0.9,0.46-1.33c0.18-0.43,0.36-0.87,0.54-1.31c0.05-0.13,0.12-0.23,0.22-0.29
				c0.1-0.07,0.2-0.1,0.29-0.1c0.13,0,0.24,0.05,0.34,0.13c0.1,0.09,0.15,0.22,0.15,0.4c0,0.16-0.02,0.3-0.06,0.4
				c-0.04,0.11-0.09,0.25-0.16,0.43c0.24-0.21,0.47-0.4,0.67-0.57c0.2-0.17,0.4-0.34,0.6-0.5c0.28-0.23,0.5-0.34,0.66-0.34
				c0.23,0,0.45,0.18,0.66,0.54c0.18,0.29,0.45,0.44,0.8,0.44c0.28,0,0.56-0.06,0.85-0.18c0.29-0.12,0.58-0.18,0.85-0.18
				c0.11,0,0.17,0.05,0.17,0.15c0,0.15-0.1,0.29-0.29,0.41c-0.2,0.13-0.42,0.25-0.67,0.34c-0.25,0.1-0.5,0.18-0.76,0.24
				c-0.25,0.06-0.43,0.1-0.52,0.1c-0.23,0-0.43-0.05-0.62-0.15c-0.19-0.1-0.35-0.26-0.48-0.49c-0.13-0.23-0.3-0.27-0.51-0.12
				c-0.31,0.21-0.6,0.44-0.87,0.7c-0.27,0.25-0.52,0.52-0.77,0.79c-0.05,0.07-0.14,0.19-0.27,0.38c-0.13,0.19-0.28,0.38-0.44,0.59
				c-0.16,0.2-0.32,0.39-0.48,0.55C52.7,18.41,52.57,18.49,52.47,18.49z"/>
			<path class="st0" d="M64.23,3.71c0.13,0,0.25,0.05,0.35,0.16c0.11,0.11,0.16,0.22,0.16,0.35c0,0.08-0.05,0.24-0.15,0.46
				c-0.1,0.23-0.22,0.49-0.38,0.79c-0.15,0.3-0.33,0.62-0.51,0.95c-0.19,0.33-0.37,0.65-0.54,0.95c-0.17,0.3-0.32,0.56-0.45,0.79
				c-0.13,0.23-0.22,0.38-0.27,0.46h0.27c0.23,0,0.45-0.02,0.66-0.07c0.21-0.05,0.42-0.09,0.63-0.12c0.68-0.1,1.37-0.2,2.06-0.29
				C66.76,8.05,67.46,8,68.16,8c0.13,0,0.28,0.01,0.44,0.04c0.16,0.02,0.32,0.07,0.46,0.12c0.15,0.06,0.27,0.13,0.38,0.21
				c0.11,0.08,0.16,0.19,0.16,0.32c0,0.16-0.06,0.27-0.17,0.32c-0.11,0.05-0.26,0.07-0.44,0.07c-0.2,0-0.4-0.02-0.62-0.05
				c-0.22-0.03-0.39-0.05-0.52-0.05c-0.88,0-1.73,0.03-2.55,0.1c-0.82,0.07-1.65,0.11-2.5,0.15c-0.26,0.02-0.47,0.07-0.63,0.16
				c-0.16,0.09-0.3,0.27-0.41,0.55c-0.47,1.14-0.95,2.27-1.43,3.4c-0.48,1.13-0.88,2.29-1.21,3.47c-0.08,0.28-0.16,0.55-0.22,0.82
				c-0.07,0.27-0.1,0.56-0.1,0.87v0.07l0.03,0.12v0.07c0.18-0.01,0.32-0.07,0.41-0.15c0.1-0.08,0.19-0.16,0.29-0.24
				c0.62-0.5,1.17-1.06,1.65-1.67c0.48-0.61,0.98-1.21,1.5-1.79c0.07-0.1,0.16-0.15,0.29-0.15c0.1,0,0.15,0.06,0.15,0.17
				c0,0.08-0.03,0.18-0.1,0.28c-0.06,0.11-0.13,0.21-0.21,0.32c-0.07,0.11-0.15,0.2-0.22,0.28c-0.07,0.08-0.13,0.14-0.16,0.17
				c-0.15,0.2-0.37,0.49-0.68,0.88c-0.31,0.39-0.64,0.78-1,1.17c-0.36,0.39-0.72,0.73-1.1,1.01c-0.37,0.28-0.7,0.43-0.97,0.43
				c-0.24,0-0.44-0.13-0.57-0.39c-0.14-0.26-0.21-0.55-0.21-0.88c0-0.52,0.1-1.15,0.3-1.89c0.2-0.74,0.45-1.5,0.73-2.29
				c0.28-0.79,0.58-1.54,0.89-2.27c0.31-0.72,0.57-1.33,0.78-1.82c0.03-0.05,0.06-0.1,0.09-0.16c0.02-0.06,0.04-0.12,0.04-0.21V9.49
				c-0.16-0.03-0.28-0.05-0.37-0.05c-0.33,0-0.66,0.02-0.99,0.06c-0.33,0.04-0.66,0.06-0.99,0.06h-0.66c-0.29,0-0.6-0.01-0.93-0.02
				c-0.33-0.02-0.62-0.06-0.9-0.12c-0.28-0.06-0.5-0.16-0.68-0.28c-0.18-0.12-0.27-0.29-0.27-0.5c0-0.13,0.04-0.24,0.12-0.33
				c0.08-0.09,0.18-0.13,0.29-0.13c0.1,0,0.19,0.05,0.29,0.15c0.33,0.33,0.72,0.52,1.19,0.6c0.47,0.07,0.97,0.11,1.49,0.11h1.46
				c0.34,0,0.64-0.03,0.9-0.1c0.26-0.07,0.46-0.24,0.59-0.51c0.29-0.64,0.59-1.27,0.9-1.9c0.31-0.63,0.65-1.24,1.02-1.83
				c0.05-0.07,0.11-0.16,0.17-0.27c0.07-0.11,0.14-0.22,0.23-0.33c0.09-0.11,0.19-0.2,0.29-0.27C64.01,3.74,64.12,3.71,64.23,3.71z"
				/>
			<path class="st0" d="M63.55,13.41c0.13,0,0.24,0.05,0.33,0.16c0.09,0.11,0.13,0.21,0.13,0.33c0,0.1-0.04,0.23-0.12,0.39
				c-0.24,0.44-0.48,0.88-0.69,1.33c-0.22,0.45-0.38,0.95-0.48,1.5l-0.03,0.07c0,0.21,0.09,0.32,0.27,0.32
				c0.18,0,0.39-0.06,0.62-0.18c0.23-0.12,0.39-0.21,0.48-0.28c0.52-0.33,0.99-0.69,1.4-1.08c0.41-0.4,0.86-0.79,1.33-1.16
				c0.03-0.03,0.08-0.05,0.15-0.05c0.13,0,0.2,0.07,0.2,0.19c0,0.11-0.13,0.3-0.39,0.57c-0.26,0.27-0.56,0.55-0.89,0.84
				c-0.33,0.29-0.65,0.57-0.96,0.82c-0.31,0.25-0.51,0.42-0.61,0.5c-0.21,0.15-0.43,0.29-0.66,0.43c-0.23,0.14-0.5,0.21-0.83,0.21
				c-0.29,0-0.54-0.1-0.73-0.31c-0.19-0.2-0.29-0.49-0.29-0.86c0.03-0.6,0.17-1.17,0.4-1.7c0.23-0.53,0.48-1.02,0.72-1.48
				c0.08-0.15,0.18-0.28,0.29-0.39C63.29,13.47,63.42,13.41,63.55,13.41z M64.45,12.29c-0.06,0.1-0.16,0.15-0.29,0.15
				c-0.18,0-0.27-0.11-0.27-0.34c0-0.1,0.04-0.26,0.11-0.48c0.07-0.22,0.17-0.45,0.28-0.68c0.11-0.24,0.24-0.44,0.38-0.62
				c0.14-0.18,0.27-0.27,0.4-0.27c0.13,0,0.25,0.05,0.35,0.15c0.1,0.1,0.16,0.21,0.16,0.34c0,0.05-0.01,0.09-0.02,0.13
				c-0.02,0.04-0.04,0.09-0.07,0.13c-0.16,0.26-0.33,0.51-0.5,0.76C64.8,11.8,64.63,12.05,64.45,12.29z"/>
			<path class="st0" d="M67.52,13.56c0.16,0,0.28,0.05,0.37,0.15c0.08,0.1,0.12,0.2,0.12,0.32c0,0.13-0.04,0.27-0.12,0.42
				c-0.08,0.15-0.15,0.28-0.22,0.39c-0.18,0.28-0.35,0.56-0.5,0.85c-0.15,0.29-0.29,0.6-0.4,0.93c0.39-0.28,0.76-0.57,1.1-0.89
				c0.34-0.32,0.69-0.64,1.05-0.96c0.13-0.11,0.27-0.24,0.42-0.38c0.15-0.14,0.3-0.21,0.46-0.21c0.18,0,0.32,0.06,0.42,0.17
				c0.1,0.12,0.17,0.26,0.23,0.43c0.06,0.17,0.1,0.36,0.12,0.56c0.02,0.2,0.04,0.39,0.04,0.57c0.02,0.16,0.07,0.27,0.17,0.33
				c0.1,0.06,0.22,0.09,0.37,0.09c0.26,0,0.54-0.04,0.85-0.12c0.31-0.08,0.62-0.19,0.93-0.32c0.31-0.13,0.61-0.27,0.89-0.42
				c0.28-0.15,0.52-0.29,0.72-0.44c0.1-0.06,0.2-0.13,0.29-0.18c0.1-0.06,0.21-0.09,0.34-0.09c0.15,0,0.22,0.06,0.22,0.17
				c0,0.15-0.06,0.27-0.19,0.37c-0.59,0.49-1.2,0.91-1.85,1.26c-0.65,0.35-1.37,0.59-2.15,0.72c-0.07,0.02-0.16,0.03-0.27,0.03
				c-0.31,0-0.55-0.06-0.73-0.17c-0.18-0.11-0.31-0.26-0.4-0.45c-0.09-0.19-0.15-0.41-0.17-0.67c-0.02-0.26-0.05-0.54-0.09-0.83
				c-0.13,0-0.24,0.04-0.33,0.11c-0.09,0.07-0.17,0.15-0.26,0.23c-0.08,0.08-0.15,0.15-0.22,0.22c-0.07,0.06-0.14,0.13-0.22,0.19
				l-0.9,0.88c-0.08,0.07-0.15,0.13-0.22,0.2c-0.07,0.06-0.14,0.14-0.22,0.22c-0.13,0.13-0.3,0.28-0.5,0.46
				c-0.2,0.18-0.42,0.27-0.65,0.27c-0.18,0-0.31-0.07-0.39-0.21c-0.08-0.14-0.12-0.31-0.12-0.52c0-0.23,0.06-0.5,0.18-0.81
				c0.12-0.31,0.27-0.63,0.43-0.95c0.16-0.32,0.33-0.64,0.51-0.94c0.18-0.3,0.33-0.54,0.44-0.72
				C67.16,13.64,67.31,13.56,67.52,13.56z"/>
		</g>
	</g>
	<g>
		<g>
			<path class="st0" d="M1.53,25.32c0.33,0.01,0.49,0.06,0.5,0.13c0.25-0.04,0.4-0.06,0.46-0.09c0.14,0.04,0.21,0.08,0.21,0.13v0.74
				c0,0.16-0.05,0.26-0.16,0.3c-0.06-0.03-0.19-0.23-0.37-0.61c-0.17-0.23-0.42-0.35-0.75-0.35c-0.32,0.09-0.55,0.25-0.7,0.48
				c-0.22,0.26-0.33,0.49-0.33,0.7v0.61c0,0.39,0.18,0.7,0.54,0.92c0.21,0.15,0.39,0.22,0.54,0.22h0.33c0.1,0,0.31-0.12,0.62-0.35
				c0.01-0.12,0.06-0.17,0.12-0.17h0.16c0.06,0.01,0.08,0.04,0.08,0.09v0.09c-0.32,0.46-0.68,0.7-1.08,0.7H1.49
				c-0.69-0.11-1.03-0.24-1.03-0.39C0.15,28.16,0,27.74,0,27.19v-0.26c0-0.52,0.14-0.87,0.41-1.05c0-0.25,0.25-0.44,0.74-0.57H1.53z
				 M0.45,26.5c0.04,0,0.08,0.04,0.12,0.13L0.5,26.67H0.45V26.5z"/>
			<path class="st0" d="M4.12,26.54c0.38,0,0.63,0.22,0.75,0.65l0.08-0.04h0.04c0.06,0.21,0.08,0.37,0.08,0.48
				c-0.03,0.26-0.04,0.42-0.04,0.48c-0.04,0-0.16,0.15-0.37,0.43c-0.29,0.15-0.5,0.22-0.62,0.22c-0.46,0-0.77-0.23-0.91-0.7
				c-0.09,0-0.15-0.15-0.16-0.44c0-0.48,0.28-0.84,0.83-1.09H4.12z M3.21,27.32c0,0.76,0.3,1.13,0.91,1.13
				c0.3,0,0.51-0.17,0.62-0.52c0.06,0,0.08-0.03,0.08-0.09v-0.09c0-0.44-0.18-0.75-0.54-0.92H3.87c-0.19,0-0.37,0.14-0.54,0.43
				C3.31,27.28,3.27,27.29,3.21,27.32z M4.66,27.8h0.08v0.09c0,0.06-0.03,0.09-0.08,0.09V27.8z"/>
			<path class="st0" d="M6.96,26.67c0.55,0.19,0.83,0.48,0.83,0.87v0.3c0,0.45-0.3,0.73-0.91,0.87H6.63
				c-0.36-0.15-0.54-0.26-0.54-0.3H6.05v0.09c0,0.56,0.07,0.86,0.21,0.91l0.17,0.09c0.03-0.06,0.04-0.1,0.04-0.13H6.5
				c0.06,0.01,0.08,0.04,0.08,0.09v0.13c0,0.06-0.03,0.09-0.08,0.09H5.51c-0.06,0-0.08-0.03-0.08-0.09v-0.13
				c0.09,0,0.21-0.06,0.37-0.18c0-0.04-0.01-0.25-0.04-0.61l0.04-0.52c-0.03-0.18-0.04-0.39-0.04-0.61
				c0.03-0.09,0.06-0.13,0.08-0.13L5.8,27.32c0-0.03,0.01-0.05,0.04-0.05c0-0.2-0.12-0.31-0.37-0.31l-0.04-0.09v-0.04
				c0-0.07,0.11-0.11,0.33-0.13c0.08,0,0.23,0.06,0.46,0.17C6.22,26.8,6.46,26.73,6.96,26.67z M6.05,27.71
				c0,0.38,0.25,0.63,0.74,0.74c0.36,0,0.6-0.23,0.75-0.7V27.5c-0.21-0.35-0.46-0.52-0.75-0.52H6.63
				C6.33,26.97,6.14,27.22,6.05,27.71z"/>
			<path class="st0" d="M8.66,26.63H8.7c0.06,0,0.1,0.07,0.12,0.22L8.7,26.93H8.49v0.04l0.62,1.35H9.2l0.54-1.17
				c-0.01-0.1-0.09-0.2-0.25-0.3V26.8c0.03-0.11,0.11-0.17,0.25-0.17c0.01,0.06,0.04,0.09,0.08,0.09h0.12l0.12-0.09h0.12
				c0.04,0,0.08,0.04,0.12,0.13v0.13c-0.14,0-0.24,0.09-0.29,0.26v0.13c-0.06,0-0.26,0.36-0.58,1.09c-0.03,0-0.04,0.01-0.04,0.04
				c0.03,0.05,0.04,0.1,0.04,0.13c-0.14,0.07-0.21,0.11-0.21,0.13l0.04,0.09c-0.14,0.27-0.21,0.43-0.21,0.48
				c0.19,0.07,0.29,0.13,0.29,0.18v0.17c-0.16,0-0.36-0.03-0.62-0.09c-0.19,0.06-0.36,0.09-0.5,0.09H8.12
				c-0.06,0-0.08-0.03-0.08-0.09v-0.09c0-0.04,0.04-0.09,0.13-0.13l0.12,0.09c0.39-0.08,0.58-0.21,0.58-0.39
				c0.08-0.2,0.14-0.3,0.17-0.3C8.7,28,8.51,27.55,8.45,27.32c-0.19-0.26-0.32-0.42-0.42-0.48v-0.18h0.25l0.29,0.04
				C8.59,26.65,8.61,26.63,8.66,26.63z"/>
			<path class="st0" d="M10.82,26.63h0.17c0,0.06,0.01,0.09,0.04,0.09c0.18-0.06,0.29-0.09,0.33-0.09l0.04,0.09v0.22
				c0.03,0,0.07,0.01,0.12,0.04c0.26-0.23,0.45-0.34,0.58-0.34h0.04v0.09h0.04v-0.09h0.12c0.15,0,0.27,0.09,0.37,0.26v0.09
				c0,0.06-0.03,0.09-0.08,0.09h-0.12c-0.04,0-0.11-0.07-0.21-0.22c-0.38,0.11-0.65,0.31-0.83,0.61c-0.03,0.27-0.04,0.54-0.04,0.78
				c0.11,0.14,0.24,0.22,0.37,0.22h0.45c0.06,0.01,0.08,0.04,0.08,0.09v0.09c0,0.06-0.03,0.09-0.08,0.09
				c-0.09,0-0.16-0.02-0.21-0.04c-0.19,0.03-0.34,0.04-0.46,0.04c-0.03,0-0.18-0.03-0.46-0.09c-0.18,0.06-0.3,0.09-0.37,0.09h-0.12
				c0-0.02-0.01-0.11-0.04-0.26c0.06-0.02,0.24-0.05,0.54-0.09v-0.61c0-0.1-0.01-0.17-0.04-0.22l0.04-0.26v-0.26
				c0-0.06-0.14-0.1-0.41-0.13v-0.13C10.69,26.71,10.74,26.67,10.82,26.63z"/>
			<path class="st0" d="M13,26.58c0.08,0,0.12,0.01,0.12,0.04l0.21-0.04c0.14,0.03,0.23,0.04,0.25,0.04l-0.04,0.09l0.21,0.04h0.04
				v-0.04l-0.08-0.13h0.08c0.06,0,0.12,0.26,0.16,0.78c-0.03,0.15-0.04,0.24-0.04,0.26c0.03,0.12,0.04,0.22,0.04,0.31
				c-0.06,0.01-0.08,0.04-0.08,0.09v0.3l0.29,0.04l0.17-0.09c0.25,0.08,0.37,0.13,0.37,0.17v0.05c0,0.06-0.03,0.09-0.08,0.09
				l0.04,0.09v0.04h-0.04c-0.28,0-0.41-0.04-0.41-0.13H14c0,0.09-0.1,0.13-0.29,0.13h-0.79c0-0.07-0.04-0.14-0.13-0.22
				c0.03-0.09,0.06-0.13,0.08-0.13c0.13,0,0.24,0.04,0.33,0.13l0.41-0.26c0.03-0.21,0.04-0.32,0.04-0.35
				c-0.03-0.39-0.04-0.67-0.04-0.83c-0.13-0.12-0.27-0.17-0.41-0.17c-0.05,0.03-0.1,0.04-0.17,0.04L13,26.84V26.58z M13.54,25.58
				h0.08c0.17,0,0.25,0.09,0.25,0.26v0.35l-0.04,0.09l-0.25-0.04V26.1L13.54,25.58z"/>
			<path class="st0" d="M15.98,26.67c0.25,0.09,0.41,0.13,0.5,0.13l0.29-0.04v0.04l-0.04,0.09h0.12c0-0.09,0.03-0.13,0.08-0.13h0.25
				v0.18c0,0.04-0.07,0.08-0.21,0.13c0,0.06-0.04,0.09-0.12,0.09v0.56c0,0.06-0.03,0.21-0.08,0.44v0.04h0.04v-0.09
				c0.05,0.01,0.08,0.04,0.08,0.09v0.22c0,0.75-0.14,1.13-0.41,1.13c-0.09,0.12-0.23,0.17-0.41,0.17h-0.58
				c-0.16-0.08-0.25-0.18-0.25-0.3c0.09-0.06,0.16-0.09,0.21-0.09l0.08,0.04c0.09-0.06,0.17-0.09,0.25-0.09
				c0.06,0.01,0.08,0.04,0.08,0.09v0.04h-0.08v0.04h0.17c0.41-0.16,0.62-0.35,0.62-0.57v-0.26c0-0.06-0.03-0.09-0.08-0.09
				c-0.21,0.15-0.39,0.22-0.54,0.22H15.7c-0.14,0-0.28-0.07-0.41-0.22h0.08c0.05,0,0.13,0.03,0.25,0.09v-0.04
				c-0.36-0.16-0.54-0.27-0.54-0.31c-0.11-0.12-0.16-0.27-0.16-0.48v-0.18c0-0.27,0.14-0.52,0.41-0.74h0.25
				C15.57,26.74,15.71,26.67,15.98,26.67z M15.12,27.71c0,0.24,0.19,0.49,0.58,0.74h0.25c0.41-0.1,0.62-0.35,0.62-0.74v-0.04
				c0-0.07-0.01-0.12-0.04-0.17c0.03-0.06,0.04-0.1,0.04-0.13c-0.24-0.26-0.43-0.39-0.58-0.39h-0.25c-0.17,0-0.28,0.09-0.33,0.26
				C15.26,27.24,15.16,27.4,15.12,27.71z"/>
			<path class="st0" d="M17.68,25.75h0.16c0,0.08,0.07,0.15,0.21,0.22v-0.04l-0.08-0.13v-0.04c0.17,0.02,0.25,0.06,0.25,0.13v0.78
				c0,0.04,0.04,0.09,0.12,0.13c0.07-0.1,0.18-0.17,0.33-0.22c0.15,0.03,0.26,0.04,0.33,0.04l0.08-0.04
				c0.39,0.22,0.58,0.47,0.58,0.74c0,0.14-0.01,0.47-0.04,1c0.03,0.06,0.04,0.1,0.04,0.13h0.21c0.06,0.01,0.08,0.04,0.08,0.09
				c-0.03,0.12-0.11,0.18-0.25,0.18c-0.03,0-0.04-0.02-0.04-0.04l-0.08,0.04H19v-0.13c0-0.09,0.1-0.13,0.29-0.13v-0.7
				c0.01-0.06,0.04-0.09,0.08-0.09c0-0.52-0.15-0.78-0.46-0.78h-0.16c-0.36,0.09-0.54,0.28-0.54,0.57c-0.03,0.15-0.04,0.3-0.04,0.44
				c0,0.38,0.08,0.56,0.25,0.56h0.08v0.22l-0.21,0.04h-0.7v-0.13c0.01-0.06,0.04-0.09,0.08-0.09h0.04l0.12,0.09h0.04
				c0-0.03-0.01-0.05-0.04-0.05l0.04-0.22v-1.7c0-0.41-0.1-0.61-0.29-0.61h-0.04v-0.13C17.55,25.84,17.6,25.8,17.68,25.75z"/>
			<path class="st0" d="M20.66,26.01h0.08c0.08,0.03,0.13,0.12,0.13,0.26v0.43h0.41c0.06,0,0.12,0.01,0.17,0.04
				c0.05-0.03,0.1-0.04,0.16-0.04h0.25c0.06,0,0.08,0.04,0.08,0.13l-0.04,0.22c-0.14,0-0.22-0.04-0.25-0.13l-0.21,0.04h-0.54
				l-0.04,0.22v0.22h0.12v0.13h-0.12v0.43c0,0.33,0.14,0.52,0.41,0.56h0.04c0.16,0,0.31-0.03,0.45-0.09v0.09h0.04
				c0-0.1,0.11-0.17,0.33-0.22l0.08,0.13v0.05c0,0.13-0.27,0.23-0.83,0.3H21.2c-0.41-0.04-0.62-0.25-0.62-0.61v-0.35h0.08
				c-0.04-0.61-0.18-0.91-0.41-0.91c-0.08,0-0.12-0.03-0.12-0.09V26.8c0.01-0.06,0.04-0.09,0.08-0.09h0.29
				c0-0.09,0.04-0.13,0.12-0.13c0,0.03,0.01,0.04,0.04,0.04v-0.22c-0.06,0-0.1-0.06-0.12-0.17H20.5v-0.04
				C20.5,26.14,20.55,26.09,20.66,26.01z"/>
			<path class="st0" d="M24.96,25.23c0.62,0,0.98,0.19,1.08,0.57l0.08,0.39v0.09c0,0.3-0.32,0.74-0.95,1.3
				c-0.39,0.4-0.58,0.63-0.58,0.7l0.29,0.09h0.66c0.16,0,0.31-0.09,0.46-0.26h0.04c0,0.05,0.03,0.1,0.08,0.17v0.04
				c0,0.16-0.06,0.28-0.17,0.35h-0.21c-0.05,0-0.19-0.03-0.41-0.09c-0.41,0.06-0.71,0.09-0.91,0.09h-0.04
				c-0.22-0.04-0.33-0.12-0.33-0.26c0-0.18,0.33-0.56,0.99-1.13c0-0.04,0.19-0.23,0.58-0.57l0.04-0.22h0.04l0.08,0.04l0.08-0.3
				c0-0.43-0.23-0.66-0.7-0.7h-0.04c-0.24,0-0.46,0.13-0.66,0.39l0.04,0.09v0.09c0,0.06-0.08,0.1-0.25,0.13l-0.08-0.13v-0.04
				C24.17,25.71,24.43,25.43,24.96,25.23z"/>
			<path class="st0" d="M27.76,25.14c0.5,0.13,0.74,0.39,0.74,0.78c0.14,0,0.21,0.31,0.21,0.92v0.26c0,0.31-0.04,0.61-0.12,0.91
				v0.05h0.04c0-0.09,0.03-0.13,0.08-0.13l0.04,0.09c-0.1,0.15-0.17,0.22-0.21,0.22c-0.19,0-0.29,0.1-0.29,0.3
				c-0.21,0.12-0.38,0.18-0.54,0.18c-0.52,0-0.83-0.42-0.95-1.26c-0.03-0.14-0.04-0.33-0.04-0.57
				C26.72,25.72,27.07,25.14,27.76,25.14z M27.05,26.19l0.04,0.26c-0.06,0.39-0.08,0.64-0.08,0.74v0.09c0,0.42,0.17,0.77,0.5,1.05
				h0.25c0.33,0,0.57-0.36,0.7-1.09v-0.22c0-0.74-0.17-1.24-0.5-1.48l-0.25-0.04h-0.25c-0.05,0-0.12,0.17-0.21,0.52
				C27.12,26.01,27.05,26.07,27.05,26.19z M28.3,27.32h0.08c0,0.21-0.04,0.33-0.12,0.35v-0.04L28.3,27.32z"/>
			<path class="st0" d="M29.99,25.23c0.62,0,0.98,0.19,1.08,0.57l0.08,0.39v0.09c0,0.3-0.32,0.74-0.95,1.3
				c-0.39,0.4-0.58,0.63-0.58,0.7l0.29,0.09h0.66c0.16,0,0.31-0.09,0.46-0.26h0.04c0,0.05,0.03,0.1,0.08,0.17v0.04
				c0,0.16-0.06,0.28-0.17,0.35h-0.21c-0.05,0-0.19-0.03-0.41-0.09c-0.41,0.06-0.71,0.09-0.91,0.09h-0.04
				c-0.22-0.04-0.33-0.12-0.33-0.26c0-0.18,0.33-0.56,0.99-1.13c0-0.04,0.19-0.23,0.58-0.57l0.04-0.22h0.04l0.08,0.04l0.08-0.3
				c0-0.43-0.23-0.66-0.7-0.7h-0.04c-0.24,0-0.46,0.13-0.66,0.39l0.04,0.09v0.09c0,0.06-0.08,0.1-0.25,0.13L29.2,26.1v-0.04
				C29.2,25.71,29.46,25.43,29.99,25.23z"/>
			<path class="st0" d="M32.55,25.28l0.04,0.09v1.09c-0.06,0.21-0.08,0.32-0.08,0.35v0.04c0.06,0,0.1,0.07,0.12,0.22h0.08v0.18
				h-0.04l-0.08-0.04v0.43h0.08v0.13l-0.08,0.13v0.31c0,0.06,0.04,0.09,0.12,0.09l0.21-0.04c0.02,0.09,0.13,0.13,0.33,0.13h0.08
				c0,0.05,0.03,0.1,0.08,0.17v0.05c0,0.06-0.03,0.09-0.08,0.09h-0.04c-0.5,0-0.98-0.03-1.45-0.09c0,0.06-0.03,0.09-0.08,0.09H31.6
				c-0.07,0-0.11-0.06-0.12-0.17c0.03-0.06,0.04-0.1,0.04-0.13h0.5c0.05,0,0.16-0.04,0.33-0.13c0-0.04-0.01-0.25-0.04-0.61
				c0.03-0.21,0.04-0.32,0.04-0.35c0-0.03-0.01-0.04-0.04-0.04l0.04-0.22v-0.83c0-0.16-0.04-0.32-0.12-0.48
				c-0.27,0.06-0.46,0.15-0.54,0.26h-0.04c-0.04,0-0.08-0.04-0.12-0.13v-0.26l0.29-0.09c0.01,0.06,0.04,0.09,0.08,0.09
				C31.89,25.45,32.11,25.35,32.55,25.28z"/>
			<path class="st0" d="M36.02,27.76c0.25,0.14,0.37,0.22,0.37,0.26v0.05l-0.04,0.09c0.03,0.05,0.04,0.11,0.04,0.17
				c-0.07,0.23-0.2,0.35-0.37,0.35h-0.21c-0.14,0-0.23-0.04-0.25-0.13c0.03-0.05,0.04-0.11,0.04-0.17
				c-0.11-0.04-0.17-0.09-0.17-0.13c0-0.21,0.18-0.35,0.54-0.43C35.97,27.77,35.99,27.76,36.02,27.76z"/>
			<path class="st0" d="M39.56,25.4h0.62c0.2,0,0.34,0.22,0.41,0.65c0.14,0.29,0.21,0.48,0.21,0.57l-0.04,0.09
				c0.09,0,0.19,0.19,0.29,0.57h0.08v0.09c0,0.03-0.01,0.04-0.04,0.04c0.19,0.55,0.33,0.91,0.41,1.09c0.22,0.02,0.33,0.06,0.33,0.13
				v0.04c0,0.04-0.04,0.08-0.12,0.13h-0.95l-0.21-0.04v-0.13c0.03-0.09,0.11-0.13,0.25-0.13h0.21c0-0.07,0.01-0.13,0.04-0.18
				c-0.13-0.42-0.23-0.64-0.29-0.65h-1.24c-0.07,0-0.16,0.2-0.25,0.61l0.46,0.35v0.09c0,0.06-0.03,0.09-0.08,0.09h-1.07
				c-0.04,0-0.08-0.04-0.13-0.13v-0.04c0.03-0.09,0.11-0.13,0.25-0.13h0.12c0.33-1.1,0.54-1.66,0.62-1.66
				c0.08,0,0.12-0.04,0.12-0.13l-0.04-0.3l0.25-0.7h-0.21l-0.5,0.04l-0.08-0.13v-0.17h0.12l0.21,0.13
				C39.34,25.58,39.42,25.52,39.56,25.4z M40.06,25.93l-0.46,1.35h0.04c0.18,0,0.42,0.06,0.75,0.18c0.04,0,0.13-0.06,0.29-0.18
				c-0.29-0.84-0.47-1.29-0.54-1.35H40.06z"/>
			<path class="st0" d="M42.16,25.36c0.15,0.03,0.26,0.04,0.33,0.04c0.03,0,0.07-0.01,0.12-0.04c0.03,0,0.04,0.01,0.04,0.04
				l0.41-0.04h0.25c0.88,0,1.32,0.33,1.32,1v0.13c-0.24,0.46-0.49,0.7-0.74,0.7v0.04c0.4,0.27,0.7,0.68,0.91,1.22l0.21,0.05h0.12
				l0.04,0.17l-0.12,0.09h-0.41c-0.05-0.01-0.2-0.26-0.45-0.74c-0.23-0.42-0.51-0.67-0.83-0.74h-0.41c-0.04,0-0.08,0.05-0.12,0.13v1
				c0.36,0.04,0.54,0.1,0.54,0.17v0.09c0,0.06-0.03,0.09-0.08,0.09h-1.16c-0.04,0-0.08-0.04-0.12-0.13v-0.04
				c0.03-0.06,0.18-0.14,0.45-0.22l-0.04-0.17c0.03-0.09,0.05-0.13,0.08-0.13l-0.04-0.44V26.8c0-0.07,0.03-0.2,0.08-0.39
				c-0.03-0.46-0.08-0.7-0.17-0.7c-0.06-0.03-0.18-0.06-0.37-0.09v-0.13C42,25.45,42.05,25.41,42.16,25.36z M42.83,25.97v0.91
				c0.04,0,0.1,0.03,0.17,0.09h0.37c0.64-0.08,0.95-0.31,0.95-0.69c-0.11-0.18-0.17-0.29-0.17-0.35l-0.08,0.04h-0.04
				c0-0.12-0.03-0.18-0.08-0.18v0.04c-0.05-0.03-0.1-0.04-0.12-0.04l0.04-0.09l-0.21-0.04h-0.5C42.94,25.67,42.83,25.77,42.83,25.97
				z"/>
			<path class="st0" d="M45.85,25.36c0.03,0,0.04,0.01,0.04,0.04l0.21-0.04h1.03c0.64,0,0.95,0.04,0.95,0.13
				c0,0.07-0.01,0.19-0.04,0.35c0.03,0.22,0.04,0.47,0.04,0.74C48.03,26.59,48,26.62,48,26.67l-0.25-0.04l0.04-0.31v-0.04
				l-0.08-0.13V25.8c-0.09,0-0.2-0.04-0.33-0.13h-0.17c-0.06,0-0.16,0.23-0.29,0.7v0.96l0.08-0.05h0.04v0.22
				c0,0.06-0.03,0.09-0.08,0.09v-0.22h-0.04v0.96l0.7,0.22c0.03,0,0.04,0.02,0.04,0.05v0.04c0,0.04-0.04,0.08-0.12,0.13H47.3
				c-0.1,0-0.22-0.01-0.37-0.04l-0.08,0.04c-0.15-0.03-0.23-0.04-0.25-0.04c-0.33,0.03-0.56,0.04-0.7,0.04l-0.08-0.13
				c0-0.12,0.23-0.19,0.7-0.22l0.04-0.09v-2.27c-0.04-0.26-0.16-0.39-0.37-0.39h-0.33l-0.08,0.3v0.57l-0.08,0.13
				c-0.19,0-0.29-0.09-0.29-0.26v-0.83C45.39,25.48,45.55,25.41,45.85,25.36z"/>
			<path class="st0" d="M48.47,25.36c0.18,0.06,0.27,0.09,0.29,0.09c0.09-0.06,0.17-0.09,0.25-0.09h1.16c0.2,0,0.31,0.04,0.33,0.13
				v0.13l-0.21,0.05h-0.54c-0.07,0.06-0.14,0.09-0.21,0.09l0.04,0.3c0,0.03-0.01,0.04-0.04,0.04c0,0.03,0.01,0.04,0.04,0.04
				c0,0.03-0.01,0.08-0.04,0.13c0.03,0.3,0.04,0.53,0.04,0.69v0.05c0,0.15-0.01,0.29-0.04,0.39c0.03,0.15,0.04,0.3,0.04,0.44v0.17
				l-0.04,0.26c0.04,0.12,0.08,0.17,0.12,0.17l0.21-0.04c0,0.04,0.06,0.09,0.17,0.13c0.11-0.06,0.2-0.09,0.25-0.09
				c0.14,0.04,0.21,0.08,0.21,0.13v0.13l-0.21,0.04h-0.5c-0.2,0-0.5-0.03-0.91-0.09c-0.09,0.06-0.17,0.09-0.25,0.09h-0.25
				c-0.04,0-0.08-0.04-0.12-0.13c0-0.1,0.15-0.17,0.45-0.22l0.29,0.04l0.21-0.04v-0.52l-0.08,0.04V27.8
				c0.06-0.07,0.08-0.13,0.08-0.18c0-0.2,0.01-0.37,0.04-0.52c0-0.96-0.08-1.44-0.25-1.44h-0.62c-0.04,0-0.08-0.05-0.12-0.13
				C48.29,25.42,48.36,25.36,48.47,25.36z"/>
			<path class="st0" d="M52.91,25.32c0.1,0.06,0.21,0.08,0.33,0.08h0.5c0.06,0.01,0.08,0.04,0.08,0.09v0.09
				c0,0.06-0.03,0.09-0.08,0.09h-0.21c-0.03,0.26-0.06,0.42-0.08,0.48c0.03,0.41,0.04,0.76,0.04,1.05v1.44
				c0,0.04-0.04,0.08-0.12,0.13h-0.04c-0.24,0-0.56-0.42-0.95-1.26c-0.54-0.96-0.83-1.44-0.87-1.44v1.05c0,0.12,0.01,0.28,0.04,0.48
				c-0.03,0.03-0.04,0.15-0.04,0.35v0.09h0.08l-0.04,0.09c0,0.23,0.08,0.35,0.25,0.35c0.18,0,0.27,0.04,0.29,0.13v0.13l-0.21,0.04
				h-0.95c-0.04,0-0.08-0.04-0.12-0.13v-0.04c0-0.07,0.07-0.11,0.21-0.13c0.05,0.03,0.09,0.05,0.12,0.05
				c0.05-0.11,0.08-0.22,0.08-0.35c0-0.07-0.02-0.12-0.04-0.17c0-0.03,0.01-0.04,0.04-0.04l-0.04-0.44v-0.3
				c0-0.2-0.01-0.52-0.04-0.96h0.04c-0.04-0.38-0.13-0.57-0.29-0.57l-0.17-0.05V25.4c0.06,0,0.08-0.01,0.08-0.04l0.41,0.04h0.33
				c0.11,0.05,0.33,0.44,0.66,1.18c0.49,0.78,0.77,1.19,0.83,1.22h0.04l0.04-0.31v-1.74c-0.39-0.08-0.58-0.15-0.58-0.22v-0.04
				C52.54,25.43,52.66,25.37,52.91,25.32z"/>
			<path class="st0" d="M56.62,27.76c0.25,0.14,0.37,0.22,0.37,0.26v0.05l-0.04,0.09c0.03,0.05,0.04,0.11,0.04,0.17
				c-0.07,0.23-0.2,0.35-0.37,0.35h-0.21c-0.14,0-0.23-0.04-0.25-0.13c0.03-0.05,0.04-0.11,0.04-0.17
				c-0.11-0.04-0.17-0.09-0.17-0.13c0-0.21,0.18-0.35,0.54-0.43C56.57,27.77,56.59,27.76,56.62,27.76z"/>
			<path class="st0" d="M60.16,25.4h0.62c0.2,0,0.34,0.22,0.41,0.65c0.14,0.29,0.21,0.48,0.21,0.57l-0.04,0.09
				c0.09,0,0.19,0.19,0.29,0.57h0.08v0.09c0,0.03-0.01,0.04-0.04,0.04c0.19,0.55,0.33,0.91,0.41,1.09c0.22,0.02,0.33,0.06,0.33,0.13
				v0.04c0,0.04-0.04,0.08-0.12,0.13h-0.95l-0.21-0.04v-0.13c0.03-0.09,0.11-0.13,0.25-0.13h0.21c0-0.07,0.01-0.13,0.04-0.18
				c-0.13-0.42-0.23-0.64-0.29-0.65h-1.24c-0.07,0-0.16,0.2-0.25,0.61l0.46,0.35v0.09c0,0.06-0.03,0.09-0.08,0.09h-1.07
				c-0.04,0-0.08-0.04-0.13-0.13v-0.04c0.03-0.09,0.11-0.13,0.25-0.13h0.12c0.33-1.1,0.54-1.66,0.62-1.66
				c0.08,0,0.12-0.04,0.12-0.13l-0.04-0.3l0.25-0.7h-0.21l-0.5,0.04l-0.08-0.13v-0.17h0.12l0.21,0.13
				C59.94,25.58,60.02,25.52,60.16,25.4z M60.66,25.93l-0.46,1.35h0.04c0.18,0,0.42,0.06,0.75,0.18c0.04,0,0.13-0.06,0.29-0.18
				c-0.29-0.84-0.47-1.29-0.54-1.35H60.66z"/>
			<path class="st0" d="M62.86,25.71h0.08v0.09h0.25l0.12-0.09h0.12c0.08,0.03,0.12,0.12,0.12,0.26v0.13c0,0.1-0.01,0.17-0.04,0.22
				c0.04,0.53,0.08,0.83,0.12,0.92c-0.06,0.09-0.08,0.18-0.08,0.26v0.61l0.08,0.31h0.54l0.21,0.04v0.13c0,0.06-0.03,0.09-0.08,0.09
				h-0.08c-0.08,0-0.12-0.01-0.12-0.04l-0.21,0.04h-1.37c-0.06,0-0.08-0.03-0.08-0.09v-0.13l0.21-0.04h0.08v0.09h0.16
				c0-0.09,0.12-0.13,0.37-0.13v-2.09c-0.05-0.07-0.08-0.13-0.08-0.18c-0.39,0-0.58-0.09-0.58-0.26V25.8
				C62.7,25.74,62.79,25.71,62.86,25.71z"/>
			<path class="st0" d="M64.87,25.71h0.08v0.09h0.25l0.12-0.09h0.12c0.08,0.03,0.12,0.12,0.12,0.26v0.13c0,0.1-0.01,0.17-0.04,0.22
				c0.04,0.53,0.08,0.83,0.12,0.92c-0.06,0.09-0.08,0.18-0.08,0.26v0.61l0.08,0.31h0.54l0.21,0.04v0.13c0,0.06-0.03,0.09-0.08,0.09
				h-0.08c-0.08,0-0.12-0.01-0.12-0.04l-0.21,0.04h-1.37c-0.06,0-0.08-0.03-0.08-0.09v-0.13l0.21-0.04h0.08v0.09h0.16
				c0-0.09,0.12-0.13,0.37-0.13v-2.09c-0.05-0.07-0.08-0.13-0.08-0.18c-0.39,0-0.58-0.09-0.58-0.26V25.8
				C64.71,25.74,64.8,25.71,64.87,25.71z"/>
			<path class="st0" d="M68.5,26.63h0.17c0,0.06,0.01,0.09,0.04,0.09c0.18-0.06,0.29-0.09,0.33-0.09l0.04,0.09v0.22
				c0.03,0,0.07,0.01,0.12,0.04c0.26-0.23,0.45-0.34,0.58-0.34h0.04v0.09h0.04v-0.09h0.12c0.15,0,0.27,0.09,0.37,0.26v0.09
				c0,0.06-0.03,0.09-0.08,0.09h-0.12c-0.04,0-0.11-0.07-0.21-0.22c-0.38,0.11-0.65,0.31-0.83,0.61c-0.03,0.27-0.04,0.54-0.04,0.78
				c0.11,0.14,0.24,0.22,0.37,0.22h0.46c0.06,0.01,0.08,0.04,0.08,0.09v0.09c0,0.06-0.03,0.09-0.08,0.09
				c-0.09,0-0.16-0.02-0.21-0.04c-0.19,0.03-0.34,0.04-0.46,0.04c-0.03,0-0.18-0.03-0.46-0.09c-0.18,0.06-0.3,0.09-0.37,0.09H68.3
				c0-0.02-0.01-0.11-0.04-0.26c0.06-0.02,0.24-0.05,0.54-0.09v-0.61c0-0.1-0.01-0.17-0.04-0.22l0.04-0.26v-0.26
				c0-0.06-0.14-0.1-0.41-0.13v-0.13C68.38,26.71,68.42,26.67,68.5,26.63z"/>
			<path class="st0" d="M70.69,26.58c0.08,0,0.12,0.01,0.12,0.04l0.21-0.04c0.15,0.03,0.23,0.04,0.25,0.04l-0.04,0.09l0.21,0.04
				h0.04v-0.04l-0.08-0.13h0.08c0.06,0,0.12,0.26,0.16,0.78c-0.03,0.15-0.04,0.24-0.04,0.26c0.03,0.12,0.04,0.22,0.04,0.31
				c-0.06,0.01-0.08,0.04-0.08,0.09v0.3l0.29,0.04l0.17-0.09c0.25,0.08,0.37,0.13,0.37,0.17v0.05c0,0.06-0.03,0.09-0.08,0.09
				l0.04,0.09v0.04h-0.04c-0.28,0-0.41-0.04-0.41-0.13h-0.21c0,0.09-0.1,0.13-0.29,0.13h-0.79c0-0.07-0.04-0.14-0.13-0.22
				c0.03-0.09,0.06-0.13,0.08-0.13c0.13,0,0.24,0.04,0.33,0.13l0.41-0.26c0.03-0.21,0.04-0.32,0.04-0.35
				c-0.03-0.39-0.04-0.67-0.04-0.83c-0.13-0.12-0.27-0.17-0.41-0.17c-0.05,0.03-0.11,0.04-0.17,0.04l-0.04-0.09V26.58z M71.23,25.58
				h0.08c0.17,0,0.25,0.09,0.25,0.26v0.35l-0.04,0.09l-0.25-0.04V26.1L71.23,25.58z"/>
			<path class="st0" d="M73.67,26.67c0.25,0.09,0.42,0.13,0.5,0.13l0.29-0.04v0.04l-0.04,0.09h0.12c0-0.09,0.03-0.13,0.08-0.13h0.25
				v0.18c0,0.04-0.07,0.08-0.21,0.13c0,0.06-0.04,0.09-0.12,0.09v0.56c0,0.06-0.03,0.21-0.08,0.44v0.04h0.04v-0.09
				c0.05,0.01,0.08,0.04,0.08,0.09v0.22c0,0.75-0.14,1.13-0.41,1.13c-0.09,0.12-0.23,0.17-0.41,0.17h-0.58
				c-0.17-0.08-0.25-0.18-0.25-0.3c0.09-0.06,0.16-0.09,0.21-0.09l0.08,0.04c0.09-0.06,0.17-0.09,0.25-0.09
				c0.06,0.01,0.08,0.04,0.08,0.09v0.04h-0.08v0.04h0.17c0.41-0.16,0.62-0.35,0.62-0.57v-0.26c0-0.06-0.03-0.09-0.08-0.09
				c-0.21,0.15-0.39,0.22-0.54,0.22h-0.25c-0.14,0-0.28-0.07-0.41-0.22h0.08c0.05,0,0.13,0.03,0.25,0.09v-0.04
				c-0.36-0.16-0.54-0.27-0.54-0.31c-0.11-0.12-0.16-0.27-0.16-0.48v-0.18c0-0.27,0.14-0.52,0.41-0.74h0.25
				C73.26,26.74,73.39,26.67,73.67,26.67z M72.8,27.71c0,0.24,0.19,0.49,0.58,0.74h0.25c0.41-0.1,0.62-0.35,0.62-0.74v-0.04
				c0-0.07-0.01-0.12-0.04-0.17c0.03-0.06,0.04-0.1,0.04-0.13c-0.24-0.26-0.43-0.39-0.58-0.39h-0.25c-0.17,0-0.28,0.09-0.33,0.26
				C72.94,27.24,72.84,27.4,72.8,27.71z"/>
			<path class="st0" d="M75.37,25.75h0.16c0,0.08,0.07,0.15,0.21,0.22v-0.04l-0.08-0.13v-0.04c0.17,0.02,0.25,0.06,0.25,0.13v0.78
				c0,0.04,0.04,0.09,0.12,0.13c0.07-0.1,0.18-0.17,0.33-0.22c0.15,0.03,0.26,0.04,0.33,0.04l0.08-0.04
				c0.39,0.22,0.58,0.47,0.58,0.74c0,0.14-0.01,0.47-0.04,1c0.03,0.06,0.04,0.1,0.04,0.13h0.21c0.05,0.01,0.08,0.04,0.08,0.09
				c-0.03,0.12-0.11,0.18-0.25,0.18c-0.03,0-0.04-0.02-0.04-0.04l-0.08,0.04h-0.58v-0.13c0-0.09,0.1-0.13,0.29-0.13v-0.7
				c0.01-0.06,0.04-0.09,0.08-0.09c0-0.52-0.15-0.78-0.46-0.78h-0.16c-0.36,0.09-0.54,0.28-0.54,0.57c-0.03,0.15-0.04,0.3-0.04,0.44
				c0,0.38,0.08,0.56,0.25,0.56h0.08v0.22l-0.21,0.04h-0.7v-0.13c0.01-0.06,0.04-0.09,0.08-0.09h0.04l0.12,0.09h0.04
				c0-0.03-0.01-0.05-0.04-0.05l0.04-0.22v-1.7c0-0.41-0.1-0.61-0.29-0.61h-0.04v-0.13C75.24,25.84,75.28,25.8,75.37,25.75z"/>
			<path class="st0" d="M78.35,26.01h0.08c0.09,0.03,0.13,0.12,0.13,0.26v0.43h0.41c0.06,0,0.12,0.01,0.17,0.04
				c0.05-0.03,0.1-0.04,0.17-0.04h0.25c0.06,0,0.08,0.04,0.08,0.13l-0.04,0.22c-0.14,0-0.22-0.04-0.25-0.13l-0.21,0.04H78.6
				l-0.04,0.22v0.22h0.12v0.13h-0.12v0.43c0,0.33,0.14,0.52,0.41,0.56h0.04c0.16,0,0.31-0.03,0.45-0.09v0.09h0.04
				c0-0.1,0.11-0.17,0.33-0.22l0.08,0.13v0.05c0,0.13-0.27,0.23-0.83,0.3h-0.21c-0.41-0.04-0.62-0.25-0.62-0.61v-0.35h0.08
				c-0.04-0.61-0.18-0.91-0.41-0.91c-0.08,0-0.12-0.03-0.12-0.09V26.8c0.01-0.06,0.04-0.09,0.08-0.09h0.29
				c0-0.09,0.04-0.13,0.12-0.13c0,0.03,0.01,0.04,0.04,0.04v-0.22c-0.06,0-0.1-0.06-0.12-0.17h-0.04v-0.04
				C78.18,26.14,78.24,26.09,78.35,26.01z"/>
			<path class="st0" d="M80.99,26.58h0.12c0.23,0,0.44,0.06,0.62,0.17c0.01-0.06,0.04-0.09,0.08-0.09h0.12v0.04
				c-0.03,0.09-0.06,0.13-0.08,0.13c0.06,0.13,0.08,0.28,0.08,0.43l-0.08,0.05h-0.12c-0.03-0.32-0.25-0.48-0.66-0.48
				c-0.33,0.06-0.5,0.17-0.5,0.35c0,0.15,0.22,0.25,0.66,0.3c0.01,0.06,0.04,0.09,0.08,0.09h0.08V27.5
				c0.44,0.12,0.66,0.32,0.66,0.61c0,0.37-0.26,0.61-0.79,0.7h-0.29c-0.14,0-0.32-0.06-0.54-0.18c0,0.06-0.03,0.09-0.08,0.09h-0.08
				l-0.12-0.09c0.03-0.44,0.1-0.65,0.21-0.65h0.04c0.05,0.01,0.08,0.04,0.08,0.09l-0.08,0.13v0.09l0.08-0.04
				c0.19,0.18,0.39,0.26,0.58,0.26h0.17c0.05,0,0.19-0.03,0.41-0.09c0,0.03,0.01,0.04,0.04,0.04c0-0.05,0.03-0.12,0.08-0.22
				c-0.03,0-0.04-0.01-0.04-0.04h0.08c0-0.29-0.39-0.46-1.16-0.53c-0.25-0.12-0.37-0.3-0.37-0.52c0-0.19,0.19-0.37,0.58-0.52h0.12
				V26.58z"/>
			<path class="st0" d="M84.39,26.63h0.17c0,0.06,0.01,0.09,0.04,0.09c0.18-0.06,0.29-0.09,0.33-0.09l0.04,0.09v0.22
				c0.03,0,0.07,0.01,0.12,0.04c0.26-0.23,0.45-0.34,0.58-0.34h0.04v0.09h0.04v-0.09h0.12c0.15,0,0.28,0.09,0.37,0.26v0.09
				c0,0.06-0.03,0.09-0.08,0.09h-0.12c-0.04,0-0.11-0.07-0.21-0.22c-0.38,0.11-0.65,0.31-0.83,0.61c-0.03,0.27-0.04,0.54-0.04,0.78
				c0.11,0.14,0.24,0.22,0.37,0.22h0.46c0.06,0.01,0.08,0.04,0.08,0.09v0.09c0,0.06-0.03,0.09-0.08,0.09
				c-0.09,0-0.16-0.02-0.21-0.04c-0.19,0.03-0.34,0.04-0.46,0.04c-0.03,0-0.18-0.03-0.46-0.09c-0.18,0.06-0.3,0.09-0.37,0.09h-0.12
				c0-0.02-0.01-0.11-0.04-0.26c0.06-0.02,0.24-0.05,0.54-0.09v-0.61c0-0.1-0.01-0.17-0.04-0.22l0.04-0.26v-0.26
				c0-0.06-0.14-0.1-0.41-0.13v-0.13C84.27,26.71,84.31,26.67,84.39,26.63z"/>
			<path class="st0" d="M87.7,26.41c0.34,0,0.59,0.17,0.74,0.52c0.07,0.09,0.14,0.13,0.21,0.13v0.04c0,0.03-0.01,0.04-0.04,0.04
				c0.03,0.06,0.06,0.19,0.08,0.39c-0.27,0.09-0.45,0.13-0.54,0.13h-0.12c-0.03,0-0.19-0.03-0.46-0.09h-0.66l-0.04,0.22
				c0.05,0.09,0.08,0.17,0.08,0.22c-0.03,0-0.04,0.01-0.04,0.05c0.3,0.17,0.55,0.26,0.75,0.26c0.31,0,0.54-0.09,0.7-0.26h0.21
				c0.06,0.01,0.08,0.04,0.08,0.09v0.09c0,0.16-0.37,0.29-1.12,0.39c-0.16,0-0.46-0.13-0.91-0.39c0.03-0.06,0.04-0.1,0.04-0.13
				c-0.09,0-0.16-0.22-0.21-0.65c0.02-0.23,0.06-0.35,0.12-0.35v0.04l-0.04,0.26c0.03,0.06,0.04,0.1,0.04,0.13h0.08
				c-0.03-0.06-0.04-0.1-0.04-0.13c0-0.46,0.14-0.75,0.42-0.87C87.3,26.45,87.52,26.41,87.7,26.41z M86.84,27.28v0.05h0.04
				c0.21,0,0.41-0.01,0.58-0.05c0.2,0.03,0.45,0.05,0.75,0.05h0.08v-0.05c0-0.26-0.18-0.42-0.54-0.48c0-0.04-0.06-0.09-0.17-0.13
				c-0.35,0-0.57,0.13-0.66,0.39C86.87,27.06,86.84,27.13,86.84,27.28z"/>
			<path class="st0" d="M89.92,26.58h0.12c0.23,0,0.44,0.06,0.62,0.17c0.01-0.06,0.04-0.09,0.08-0.09h0.12v0.04
				c-0.03,0.09-0.06,0.13-0.08,0.13c0.05,0.13,0.08,0.28,0.08,0.43l-0.08,0.05h-0.12C90.63,27,90.41,26.84,90,26.84
				c-0.33,0.06-0.5,0.17-0.5,0.35c0,0.15,0.22,0.25,0.66,0.3c0.01,0.06,0.04,0.09,0.08,0.09h0.08V27.5
				c0.44,0.12,0.66,0.32,0.66,0.61c0,0.37-0.26,0.61-0.79,0.7h-0.29c-0.14,0-0.32-0.06-0.54-0.18c0,0.06-0.03,0.09-0.08,0.09h-0.08
				l-0.12-0.09c0.03-0.44,0.1-0.65,0.21-0.65h0.04c0.06,0.01,0.08,0.04,0.08,0.09l-0.08,0.13v0.09l0.08-0.04
				c0.19,0.18,0.39,0.26,0.58,0.26h0.17c0.05,0,0.19-0.03,0.41-0.09c0,0.03,0.01,0.04,0.04,0.04c0-0.05,0.03-0.12,0.08-0.22
				c-0.03,0-0.04-0.01-0.04-0.04h0.08c0-0.29-0.39-0.46-1.16-0.53c-0.25-0.12-0.37-0.3-0.37-0.52c0-0.19,0.19-0.37,0.58-0.52h0.12
				V26.58z"/>
			<path class="st0" d="M92.65,26.41c0.34,0,0.59,0.17,0.74,0.52c0.07,0.09,0.14,0.13,0.21,0.13v0.04c0,0.03-0.01,0.04-0.04,0.04
				c0.03,0.06,0.06,0.19,0.08,0.39c-0.27,0.09-0.45,0.13-0.54,0.13h-0.12c-0.03,0-0.18-0.03-0.46-0.09h-0.66l-0.04,0.22
				c0.05,0.09,0.08,0.17,0.08,0.22c-0.03,0-0.04,0.01-0.04,0.05c0.3,0.17,0.55,0.26,0.75,0.26c0.31,0,0.54-0.09,0.71-0.26h0.21
				c0.06,0.01,0.08,0.04,0.08,0.09v0.09c0,0.16-0.37,0.29-1.12,0.39c-0.16,0-0.46-0.13-0.91-0.39c0.03-0.06,0.04-0.1,0.04-0.13
				c-0.09,0-0.16-0.22-0.21-0.65c0.02-0.23,0.06-0.35,0.12-0.35v0.04l-0.04,0.26c0.03,0.06,0.04,0.1,0.04,0.13h0.08
				c-0.03-0.06-0.04-0.1-0.04-0.13c0-0.46,0.14-0.75,0.41-0.87C92.25,26.45,92.47,26.41,92.65,26.41z M91.78,27.28v0.05h0.04
				c0.21,0,0.41-0.01,0.58-0.05c0.2,0.03,0.45,0.05,0.75,0.05h0.08v-0.05c0-0.26-0.18-0.42-0.54-0.48c0-0.04-0.06-0.09-0.17-0.13
				c-0.35,0-0.57,0.13-0.66,0.39C91.82,27.06,91.79,27.13,91.78,27.28z"/>
			<path class="st0" d="M94.22,26.63h0.17c0,0.06,0.01,0.09,0.04,0.09c0.18-0.06,0.29-0.09,0.33-0.09l0.04,0.09v0.22
				c0.03,0,0.07,0.01,0.12,0.04c0.26-0.23,0.45-0.34,0.58-0.34h0.04v0.09h0.04v-0.09h0.12c0.15,0,0.27,0.09,0.37,0.26v0.09
				c0,0.06-0.03,0.09-0.08,0.09h-0.12c-0.04,0-0.11-0.07-0.21-0.22c-0.38,0.11-0.65,0.31-0.83,0.61c-0.03,0.27-0.04,0.54-0.04,0.78
				c0.11,0.14,0.24,0.22,0.37,0.22h0.46c0.06,0.01,0.08,0.04,0.08,0.09v0.09c0,0.06-0.03,0.09-0.08,0.09
				c-0.09,0-0.16-0.02-0.21-0.04c-0.19,0.03-0.34,0.04-0.46,0.04c-0.03,0-0.18-0.03-0.46-0.09c-0.18,0.06-0.3,0.09-0.37,0.09h-0.12
				c0-0.02-0.01-0.11-0.04-0.26c0.06-0.02,0.24-0.05,0.54-0.09v-0.61c0-0.1-0.01-0.17-0.04-0.22l0.04-0.26v-0.26
				c0-0.06-0.14-0.1-0.41-0.13v-0.13C94.09,26.71,94.14,26.67,94.22,26.63z"/>
			<path class="st0" d="M96.43,26.58c0.14,0,0.21,0.04,0.21,0.13h0.17v-0.13h0.08l0.21,0.04v0.17c0,0.06-0.08,0.09-0.25,0.09v0.13
				c0,0.11,0.1,0.4,0.29,0.87c-0.06,0.01-0.08,0.04-0.08,0.09c0.08,0,0.19,0.12,0.33,0.35h0.04l0.54-1.44h-0.25
				c-0.06,0-0.08-0.03-0.08-0.09v-0.17c0.01,0,0.07-0.02,0.17-0.04c0.2,0.03,0.31,0.04,0.33,0.04l0.08-0.04l0.08,0.04l0.08-0.04
				c0.14,0.02,0.21,0.11,0.21,0.26c-0.25,0-0.48,0.35-0.7,1.05c-0.04,0.19-0.16,0.45-0.37,0.78h-0.04v-0.09h-0.04l-0.13,0.09h-0.08
				c-0.05-0.02-0.3-0.59-0.74-1.7c-0.25-0.08-0.37-0.15-0.37-0.22C96.1,26.67,96.21,26.61,96.43,26.58z M98.17,27.24h0.08
				c-0.03,0.05-0.04,0.11-0.04,0.17h-0.08v-0.04C98.15,27.31,98.17,27.27,98.17,27.24z"/>
			<path class="st0" d="M100.07,26.41c0.34,0,0.59,0.17,0.74,0.52c0.07,0.09,0.14,0.13,0.21,0.13v0.04c0,0.03-0.01,0.04-0.04,0.04
				c0.03,0.06,0.06,0.19,0.08,0.39c-0.27,0.09-0.45,0.13-0.54,0.13h-0.12c-0.03,0-0.19-0.03-0.46-0.09h-0.66l-0.04,0.22
				c0.05,0.09,0.08,0.17,0.08,0.22c-0.03,0-0.04,0.01-0.04,0.05c0.3,0.17,0.55,0.26,0.75,0.26c0.31,0,0.54-0.09,0.71-0.26h0.2
				c0.06,0.01,0.08,0.04,0.08,0.09v0.09c0,0.16-0.37,0.29-1.12,0.39c-0.16,0-0.46-0.13-0.91-0.39c0.03-0.06,0.04-0.1,0.04-0.13
				c-0.09,0-0.16-0.22-0.21-0.65c0.02-0.23,0.06-0.35,0.12-0.35v0.04l-0.04,0.26c0.03,0.06,0.04,0.1,0.04,0.13h0.08
				c-0.03-0.06-0.04-0.1-0.04-0.13c0-0.46,0.14-0.75,0.41-0.87C99.66,26.45,99.88,26.41,100.07,26.41z M99.2,27.28v0.05h0.04
				c0.21,0,0.41-0.01,0.58-0.05c0.2,0.03,0.45,0.05,0.75,0.05h0.08v-0.05c0-0.26-0.18-0.42-0.54-0.48c0-0.04-0.06-0.09-0.17-0.13
				c-0.35,0-0.57,0.13-0.66,0.39C99.23,27.06,99.2,27.13,99.2,27.28z"/>
			<path class="st0" d="M103.08,25.71c0.01,0.06,0.04,0.09,0.08,0.09h0.12l0.12-0.09h0.04v0.65c0,0.12-0.01,0.24-0.04,0.35
				c0.03,0.11,0.04,0.23,0.04,0.35v0.13c0,0.1-0.01,0.23-0.04,0.39c0.03,0.05,0.04,0.12,0.04,0.22c-0.06,0.1-0.08,0.18-0.08,0.26
				c0.05,0.01,0.08,0.04,0.08,0.09v0.26h0.29c0.06,0.01,0.08,0.04,0.08,0.09v0.04c-0.03,0.09-0.11,0.13-0.25,0.13h-0.41
				c0-0.05-0.03-0.1-0.08-0.17c-0.23,0.17-0.48,0.26-0.74,0.26h-0.04c-0.36,0-0.65-0.23-0.87-0.7c-0.08,0-0.12-0.1-0.12-0.3
				c0.06,0,0.13-0.2,0.21-0.61c0.05,0,0.15-0.13,0.29-0.39c0.08-0.03,0.17-0.04,0.25-0.04v0.04c0.19-0.14,0.32-0.22,0.41-0.22
				c0.21,0,0.42,0.09,0.62,0.26h0.04c0.03-0.29,0.06-0.44,0.08-0.44c0-0.23-0.12-0.35-0.37-0.35l-0.04-0.22L103.08,25.71z
				 M101.67,27.58c0,0.37,0.06,0.66,0.17,0.87h0.08l-0.04-0.22c0.18,0.18,0.39,0.26,0.62,0.26c0.47-0.12,0.7-0.45,0.7-1
				c-0.2-0.44-0.46-0.65-0.79-0.65C101.92,26.94,101.67,27.19,101.67,27.58z"/>
		</g>
	</g>
</g>
</svg>
