<?xml version="1.0" encoding="utf-8"?>
<!-- Generator: Adobe Illustrator 26.0.3, SVG Export Plug-In . SVG Version: 6.00 Build 0)  -->
<svg version="1.1" id="레이어_1" xmlns="http://www.w3.org/2000/svg" xmlns:xlink="http://www.w3.org/1999/xlink" x="0px"
	 y="0px" viewBox="0 0 114.16 15.25" style="enable-background:new 0 0 114.16 15.25;" xml:space="preserve">
<style type="text/css">
	.st0{fill:#d8c1a6;}
</style>
<g>
	<g>
		<g>
			<g>
				<path class="st0" d="M45.09,11.41l-5.53-3.56l5.53-3.63l6.08,3.6L45.09,11.41z M40.68,7.85l4.42,2.85l4.87-2.88l-4.87-2.88
					L40.68,7.85z"/>
			</g>
		</g>
		<g>
			<g>
				<path class="st0" d="M49.51,11.41l-5.53-3.56l5.53-3.63l6.08,3.6L49.51,11.41z M45.1,7.85l4.42,2.85l4.87-2.88l-4.87-2.88
					L45.1,7.85z"/>
			</g>
		</g>
	</g>
	<g>
		<g>
			<g>
				<path class="st0" d="M64.22,11.41l-5.53-3.56l5.53-3.63l6.08,3.6L64.22,11.41z M59.81,7.85l4.42,2.85l4.87-2.88l-4.87-2.88
					L59.81,7.85z"/>
			</g>
		</g>
		<g>
			<g>
				<path class="st0" d="M68.64,11.41l-5.53-3.56l5.53-3.63l6.08,3.6L68.64,11.41z M64.23,7.85l4.42,2.85l4.87-2.88l-4.87-2.88
					L64.23,7.85z"/>
			</g>
		</g>
	</g>
	<g>
		<path class="st0" d="M109.82,8.06H73.75c-0.18,0-0.32-0.13-0.32-0.3c0-0.16,0.14-0.3,0.32-0.3h36.07c0.18,0,0.32,0.13,0.32,0.3
			C110.14,7.93,109.99,8.06,109.82,8.06z"/>
	</g>
	<g>
		<path class="st0" d="M40.41,8.06H4.34c-0.18,0-0.32-0.13-0.32-0.3c0-0.16,0.14-0.3,0.32-0.3h36.07c0.18,0,0.32,0.13,0.32,0.3
			C40.73,7.93,40.58,8.06,40.41,8.06z"/>
	</g>
	<path class="st0" d="M108.29,7.79c1.01,0.01,2.8,1.8,2.8,1.8s1.26-1.82,3.08-1.82c-1.82,0-3.08-1.82-3.08-1.82
		S109.3,7.77,108.29,7.79z"/>
	<path class="st0" d="M5.9,7.75c-1.01-0.01-2.8-1.8-2.8-1.8S1.85,7.77,0.03,7.77c1.82,0,3.08,1.82,3.08,1.82S4.89,7.76,5.9,7.75z"/>
	<g>
		<g>
			<g>
				<path class="st0" d="M57.12,11.16l-3.88-5.63l3.84-5.12l3.92,5.12L57.12,11.16z M54.01,5.54l3.11,4.51l3.11-4.51l-3.14-4.1
					L54.01,5.54z"/>
			</g>
		</g>
		<g>
			<g>
				<path class="st0" d="M57.12,15.25l-3.88-5.63l3.84-5.12l3.92,5.12L57.12,15.25z M54.01,9.63l3.11,4.51l3.11-4.51l-3.14-4.1
					L54.01,9.63z"/>
			</g>
		</g>
	</g>
</g>
</svg>
