<?xml version="1.0" encoding="utf-8"?>
<!-- Generator: Adobe Illustrator 26.0.3, SVG Export Plug-In . SVG Version: 6.00 Build 0)  -->
<svg version="1.1" id="레이어_1" xmlns="http://www.w3.org/2000/svg" xmlns:xlink="http://www.w3.org/1999/xlink" x="0px"
	 y="0px" viewBox="0 0 93.63 11.18" style="enable-background:new 0 0 93.63 11.18;" xml:space="preserve">
<style type="text/css">
	.st0{fill:#464646;}
</style>
<g>
	<path class="st0" d="M3.31,0h1.13c0.34,0,0.7,0.03,1.07,0.1c0.38,0.07,0.72,0.19,1.03,0.35c0.31,0.17,0.57,0.39,0.77,0.66
		c0.2,0.28,0.3,0.62,0.3,1.04V2.2c0,0.48-0.13,0.86-0.39,1.15C6.97,3.63,6.65,3.86,6.27,4.02c1.07,0.15,1.89,0.55,2.47,1.19
		c0.57,0.65,0.86,1.43,0.86,2.36c0,0.51-0.09,0.99-0.28,1.43S8.86,9.82,8.5,10.14c-0.36,0.32-0.79,0.58-1.3,0.76
		c-0.51,0.18-1.1,0.27-1.76,0.27H3.31H0v-0.25h0.06c0.24,0,0.45-0.08,0.62-0.26c0.17-0.17,0.25-0.38,0.25-0.62V1.23
		c0-0.17-0.03-0.31-0.1-0.42S0.7,0.6,0.61,0.53c-0.09-0.07-0.19-0.12-0.3-0.16S0.1,0.31,0,0.29V0H3.31z M3.17,0.38
		c-0.3,0-0.5,0.06-0.62,0.19S2.37,0.89,2.37,1.13v2.82h2.08c0.46,0,0.8-0.09,1.03-0.28C5.72,3.49,5.89,3.29,6,3.08
		C6.11,2.82,6.17,2.53,6.17,2.2V2.15c0-0.32-0.06-0.61-0.18-0.88C5.89,1.05,5.72,0.85,5.48,0.66C5.24,0.48,4.89,0.38,4.44,0.38H3.17
		z M8.15,7.57c0-0.47-0.05-0.9-0.15-1.29c-0.1-0.39-0.26-0.73-0.48-1.02s-0.5-0.51-0.83-0.68C6.34,4.42,5.93,4.33,5.44,4.33H2.37
		v5.7c0,0.24,0.06,0.43,0.17,0.56s0.32,0.19,0.62,0.19h2.27c0.49,0,0.9-0.08,1.24-0.24c0.34-0.16,0.62-0.38,0.83-0.67
		c0.22-0.29,0.38-0.63,0.48-1.02C8.1,8.47,8.15,8.04,8.15,7.57z"/>
	<path class="st0" d="M15.93,0h0.38h0.25h2.67h2.13c0.66,0,1.24,0.09,1.76,0.28c0.51,0.19,0.95,0.44,1.3,0.76
		c0.36,0.32,0.63,0.71,0.81,1.15s0.28,0.92,0.28,1.43c0,0.84-0.24,1.57-0.72,2.19c-0.48,0.62-1.18,1.04-2.09,1.27
		c0.33,0.08,0.66,0.2,0.99,0.33c0.33,0.14,0.63,0.32,0.9,0.54c0.27,0.22,0.48,0.49,0.64,0.81c0.16,0.32,0.25,0.7,0.25,1.15v0.13
		c0,0.24,0.08,0.45,0.25,0.62c0.17,0.17,0.38,0.26,0.62,0.26h0.06v0.25h-3.31v-0.25h0.06c0.24,0,0.45-0.08,0.62-0.26
		c0.17-0.17,0.25-0.38,0.25-0.62V9.72c0-0.55-0.11-0.99-0.33-1.32c-0.22-0.33-0.48-0.58-0.78-0.76c-0.3-0.18-0.6-0.29-0.91-0.34
		c-0.31-0.05-0.55-0.08-0.72-0.08H18.3v2.82c0,0.24,0.08,0.45,0.25,0.62c0.17,0.17,0.38,0.26,0.62,0.26h0.06v0.25h-3.31v-0.25h0.06
		c0.24,0,0.45-0.08,0.62-0.26c0.17-0.17,0.25-0.38,0.25-0.62V1.13V1.1c-0.01-0.14-0.05-0.25-0.11-0.35
		c-0.06-0.1-0.14-0.17-0.24-0.23c-0.1-0.06-0.2-0.1-0.3-0.13s-0.2-0.05-0.29-0.06V0z M18.3,6.84h3.07c0.49,0,0.9-0.08,1.24-0.24
		c0.34-0.16,0.62-0.38,0.83-0.67c0.22-0.29,0.38-0.63,0.48-1.02c0.1-0.39,0.15-0.82,0.15-1.29c0-0.47-0.05-0.9-0.15-1.29
		c-0.1-0.39-0.26-0.73-0.48-1.02s-0.5-0.51-0.83-0.68c-0.34-0.16-0.75-0.25-1.24-0.25h-2.27c-0.3,0-0.5,0.06-0.62,0.19
		S18.3,0.89,18.3,1.13V6.84z"/>
	<path class="st0" d="M43.7,10.77c0.05,0.03,0.13,0.07,0.24,0.1c0.11,0.04,0.2,0.07,0.27,0.09v0.22h-0.35h-0.53H40.9v-0.27h0.06
		c0.23,0,0.41-0.07,0.54-0.22c0.13-0.15,0.15-0.32,0.08-0.51l-0.02-0.06l-1.08-2.5H36l-0.92,2.21c-0.08,0.21-0.12,0.39-0.1,0.53
		c0.02,0.14,0.08,0.25,0.17,0.33c0.1,0.08,0.22,0.14,0.37,0.18c0.15,0.04,0.32,0.06,0.5,0.06h0.06v0.27h-1.59h-0.41h-0.91v-0.27
		h0.06c0.3,0,0.56-0.08,0.8-0.26c0.24-0.17,0.45-0.46,0.63-0.86l0.8-1.93l0.27-0.64l3.02-7.22l4.33,10.02
		c0.05,0.12,0.13,0.24,0.22,0.37c0.1,0.13,0.2,0.24,0.32,0.33L43.7,10.77z M40.31,7.23l-2.1-4.89l-2.05,4.89H40.31z"/>
	<path class="st0" d="M50.97,0h2.21l6.28,9.45V1.4c0-0.23-0.04-0.42-0.13-0.57c-0.08-0.14-0.19-0.26-0.32-0.34
		c-0.13-0.08-0.26-0.14-0.41-0.18c-0.14-0.03-0.27-0.05-0.39-0.05h-0.06V0h2.94v0.27h-0.06c-0.12,0-0.25,0.02-0.39,0.05
		s-0.27,0.09-0.39,0.18s-0.21,0.2-0.29,0.34c-0.08,0.14-0.12,0.33-0.12,0.57v8.62l0.16,0.24c0.14,0.18,0.28,0.33,0.44,0.46
		c0.15,0.13,0.35,0.19,0.6,0.19h0.06v0.25H58.9l-6.3-9.45v8.06c0,0.23,0.04,0.42,0.13,0.57c0.08,0.14,0.19,0.26,0.32,0.34
		c0.13,0.08,0.26,0.14,0.41,0.18c0.14,0.03,0.27,0.05,0.39,0.05h0.06v0.25h-2.93v-0.25h0.06c0.12,0,0.24-0.02,0.38-0.05
		c0.14-0.03,0.27-0.09,0.38-0.18s0.21-0.2,0.29-0.34c0.08-0.14,0.12-0.33,0.12-0.57V1.15l-0.16-0.24c-0.12-0.17-0.28-0.3-0.48-0.4
		c-0.2-0.1-0.4-0.15-0.6-0.18V0z"/>
	<path class="st0" d="M67.87,0h0.06h0.21h4.47c0.71,0,1.37,0.13,1.96,0.39s1.12,0.63,1.55,1.12s0.78,1.07,1.03,1.76
		c0.25,0.69,0.37,1.47,0.37,2.33s-0.12,1.64-0.37,2.33c-0.25,0.69-0.59,1.27-1.03,1.75c-0.44,0.48-0.95,0.85-1.55,1.11
		s-1.25,0.39-1.96,0.39h-4.68v-0.25H68c0.24,0,0.45-0.08,0.62-0.26c0.17-0.17,0.25-0.38,0.25-0.62V1.13c0-0.21-0.04-0.37-0.12-0.49
		c-0.08-0.11-0.17-0.19-0.26-0.25c-0.1-0.05-0.23-0.09-0.4-0.11h-0.22V0z M71.1,0.38c-0.3,0-0.5,0.06-0.62,0.19S70.3,0.89,70.3,1.13
		l0.02,8.91c0,0.24,0.06,0.43,0.17,0.56s0.32,0.19,0.61,0.19h1.51c0.64,0,1.18-0.13,1.62-0.4s0.8-0.63,1.07-1.09
		c0.27-0.46,0.47-1.01,0.59-1.64c0.12-0.63,0.18-1.31,0.18-2.05V5.59V5.56c0-0.73-0.06-1.41-0.18-2.04
		c-0.12-0.63-0.32-1.17-0.59-1.64s-0.63-0.83-1.07-1.1c-0.44-0.27-0.98-0.4-1.63-0.4H71.1z"/>
	<path class="st0" d="M86.08,2.37c0,0.38,0.11,0.7,0.33,0.95c0.22,0.25,0.52,0.46,0.88,0.64c0.37,0.18,0.78,0.33,1.24,0.45
		s0.93,0.26,1.42,0.39c0.48,0.13,0.95,0.28,1.4,0.45c0.45,0.16,0.85,0.37,1.2,0.62c0.35,0.25,0.62,0.56,0.82,0.92
		c0.2,0.37,0.28,0.81,0.25,1.35c-0.02,0.41-0.15,0.8-0.37,1.17c-0.23,0.37-0.55,0.69-0.97,0.96c-0.42,0.28-0.93,0.49-1.54,0.65
		s-1.29,0.24-2.07,0.24c-0.53,0-1.03-0.06-1.51-0.18c-0.48-0.12-0.91-0.29-1.29-0.49s-0.71-0.45-0.98-0.73
		c-0.27-0.28-0.47-0.59-0.6-0.92c-0.02-0.06-0.02-0.12,0.01-0.16c0.03-0.04,0.06-0.07,0.1-0.09c0.04-0.02,0.09-0.02,0.14,0
		c0.05,0.02,0.08,0.05,0.1,0.09c0.11,0.3,0.29,0.57,0.56,0.83c0.26,0.25,0.58,0.48,0.94,0.67c0.36,0.19,0.76,0.34,1.2,0.45
		c0.44,0.11,0.89,0.16,1.36,0.16c0.65,0,1.2-0.07,1.66-0.2s0.84-0.32,1.14-0.55c0.3-0.23,0.51-0.51,0.63-0.82
		c0.12-0.31,0.16-0.65,0.12-1.01c-0.04-0.38-0.19-0.7-0.43-0.94c-0.24-0.24-0.55-0.45-0.92-0.62c-0.37-0.17-0.77-0.32-1.22-0.44
		c-0.45-0.12-0.91-0.25-1.38-0.37s-0.92-0.27-1.35-0.43c-0.44-0.16-0.82-0.36-1.15-0.61c-0.33-0.24-0.6-0.54-0.8-0.9
		c-0.2-0.36-0.28-0.8-0.26-1.33c0.01-0.33,0.11-0.65,0.3-0.95s0.46-0.57,0.82-0.81c0.35-0.24,0.8-0.43,1.32-0.57
		c0.52-0.14,1.13-0.22,1.82-0.23c0.41,0,0.79,0.04,1.13,0.11s0.64,0.17,0.91,0.29c0.27,0.12,0.49,0.26,0.68,0.41
		s0.34,0.31,0.45,0.45c0.03,0,0.06-0.03,0.09-0.09c0.03-0.06,0.05-0.13,0.07-0.21c0.02-0.08,0.04-0.16,0.05-0.25
		s0.02-0.17,0.02-0.23V0.45h0.25v2.9H92.4V3.28c0-0.48-0.09-0.9-0.27-1.27c-0.18-0.37-0.42-0.67-0.73-0.91s-0.66-0.42-1.06-0.54
		c-0.4-0.12-0.82-0.18-1.27-0.18c-0.42,0-0.82,0.05-1.19,0.14c-0.37,0.09-0.68,0.22-0.95,0.39s-0.47,0.38-0.63,0.62
		S86.08,2.06,86.08,2.37z"/>
</g>
</svg>
