<?xml version="1.0" encoding="utf-8"?>
<!-- Generator: Adobe Illustrator 26.0.3, SVG Export Plug-In . SVG Version: 6.00 Build 0)  -->
<svg version="1.1" id="레이어_1" xmlns="http://www.w3.org/2000/svg" xmlns:xlink="http://www.w3.org/1999/xlink" x="0px"
	 y="0px" viewBox="0 0 107.38 13.87" style="enable-background:new 0 0 107.38 13.87;" xml:space="preserve">
<g>
	<path d="M0.29,0.27h8.78v0.36H8.14c-0.79,0-1.38,0.2-1.76,0.61C6,1.64,5.81,2.26,5.81,3.11v10.4h3.34c0.66,0,1.28-0.15,1.86-0.46
		c0.58-0.31,1.09-0.74,1.52-1.29c0.26-0.34,0.49-0.68,0.68-1.02c0.2-0.34,0.39-0.74,0.56-1.23c0.18-0.48,0.35-1.03,0.53-1.65h0.34
		v6.02H0.29l-0.02-0.36h0.48c1.56,0,2.34-0.83,2.34-2.49V3.11c0-1.65-0.78-2.47-2.34-2.47H0.29V0.27z"/>
	<path d="M19.59,0.27h13.7v5.26h-0.28c-0.25-0.92-0.47-1.61-0.67-2.07c-0.2-0.46-0.46-0.89-0.78-1.3c-0.38-0.49-0.81-0.83-1.26-1.04
		c-0.75-0.34-1.67-0.5-2.75-0.5H25v6.46h0.68c1.01,0,1.82-0.46,2.41-1.38c0.3-0.47,0.53-1.03,0.68-1.69
		c0.07-0.28,0.14-0.69,0.2-1.24h0.32v8.91h-0.32c-0.07-0.48-0.16-0.93-0.26-1.36c-0.1-0.42-0.22-0.77-0.34-1.04
		c-0.13-0.27-0.29-0.54-0.49-0.8c-0.55-0.72-1.34-1.08-2.35-1.08H25v6.08h2.12c0.63,0,1.19-0.05,1.69-0.14
		c0.5-0.09,0.95-0.24,1.35-0.44c0.4-0.2,0.77-0.45,1.12-0.78c0.6-0.53,1.07-1.21,1.4-2.01c0.19-0.46,0.39-1.08,0.6-1.87h0.34v5.6
		H19.61l-0.02-0.36h0.35c1.56,0,2.34-0.83,2.34-2.49V3.11c0-0.84-0.19-1.46-0.57-1.87c-0.38-0.4-0.97-0.61-1.77-0.61h-0.35V0.27z"/>
	<path d="M51,0.54h0.32V5.2H51c-0.39-1.12-0.83-2-1.32-2.63c-0.36-0.44-0.8-0.83-1.34-1.16c-0.54-0.34-1.14-0.6-1.81-0.79
		c-0.66-0.19-1.34-0.29-2.02-0.29c-0.51,0-0.96,0.08-1.37,0.22c-0.4,0.15-0.73,0.37-1.01,0.66c-0.2,0.21-0.35,0.44-0.47,0.7
		c-0.12,0.26-0.18,0.51-0.18,0.75c0,0.45,0.17,0.85,0.49,1.18c0.16,0.16,0.38,0.32,0.66,0.47c0.29,0.15,0.65,0.3,1.11,0.44
		c0.45,0.14,1.08,0.31,1.89,0.53c0.22,0.07,0.37,0.11,0.45,0.12l0.45,0.12l0.72,0.19c1.22,0.33,2.1,0.62,2.66,0.88
		c0.56,0.25,1.04,0.58,1.43,1c0.31,0.3,0.54,0.66,0.71,1.07c0.17,0.41,0.25,0.85,0.25,1.32c0,0.46-0.1,0.94-0.29,1.41
		c-0.19,0.47-0.46,0.88-0.81,1.24c-0.45,0.49-1.01,0.86-1.68,1.11c-0.67,0.24-1.42,0.37-2.28,0.37c-0.6,0-1.16-0.06-1.68-0.19
		c-0.53-0.13-1.17-0.36-1.92-0.7c-0.49-0.21-0.87-0.35-1.13-0.42c-0.26-0.08-0.5-0.11-0.72-0.11c-0.44,0-0.81,0.12-1.12,0.36
		c-0.3,0.25-0.5,0.59-0.61,1.04h-0.32V7.81h0.32c0.13,1.12,0.56,2.13,1.28,3.04c0.44,0.53,1,1.03,1.68,1.49
		c0.67,0.45,1.38,0.81,2.13,1.06c0.74,0.26,1.45,0.38,2.12,0.38c0.59,0,1.14-0.11,1.63-0.31c0.5-0.21,0.88-0.5,1.16-0.86
		c0.28-0.37,0.42-0.79,0.42-1.26c0-0.49-0.19-0.93-0.56-1.33c-0.18-0.18-0.4-0.34-0.67-0.49c-0.28-0.15-0.63-0.3-1.06-0.46
		c-0.43-0.16-1.02-0.34-1.78-0.55l-0.92-0.26c-1.44-0.41-2.43-0.73-2.99-0.96c-0.62-0.24-1.11-0.48-1.46-0.72
		c-0.36-0.24-0.66-0.54-0.92-0.91c-0.38-0.52-0.57-1.09-0.57-1.71c0-0.76,0.21-1.43,0.64-2.03c0.43-0.6,1.02-1.07,1.78-1.4
		C42.76,0.17,43.6,0,44.53,0c1.4,0,2.85,0.41,4.36,1.24c0.53,0.28,0.88,0.42,1.08,0.42C50.45,1.66,50.78,1.28,51,0.54z"/>
	<path d="M57.42,0.27h15.1v6.9l-0.3,0.02c-0.16-1.73-0.65-3.21-1.47-4.45C69.76,1.34,68.52,0.63,67,0.63h-0.67v10.38
		c0,1.65,0.78,2.47,2.33,2.47h1.95v0.38H59.36v-0.38h1.93c1.56,0,2.34-0.83,2.34-2.47V0.63H62.8c-1.54,0-2.78,0.76-3.74,2.28
		c-0.48,0.75-0.84,1.64-1.08,2.67c-0.08,0.35-0.15,0.88-0.24,1.6h-0.32V0.27z"/>
	<path d="M78,13.49h0.36c0.79,0,1.38-0.2,1.76-0.61c0.38-0.41,0.57-1.03,0.57-1.87c0-0.38,0-0.73,0-1.03c0-0.3,0-0.6,0-0.88
		c0-0.28,0-0.7,0-1.25c0-2.28,0-3.97,0-5.05c-0.05-0.43-0.12-0.77-0.23-1.02c-0.1-0.25-0.25-0.47-0.46-0.63
		c-0.37-0.35-0.92-0.52-1.65-0.52H78V0.27h8.11v0.36h-0.36c-0.79,0-1.38,0.2-1.76,0.61c-0.38,0.4-0.57,1.02-0.57,1.87v7.91
		c0,0.84,0.2,1.46,0.57,1.87c0.38,0.41,0.97,0.61,1.76,0.61h0.36v0.38H78V13.49z"/>
	<path d="M98.71,0h0.34l5.18,11.89c0.16,0.37,0.35,0.68,0.56,0.91c0.2,0.24,0.44,0.41,0.69,0.52c0.26,0.1,0.56,0.16,0.91,0.16h0.34
		v0.38h-7.47v-0.38h0.98c0.49,0,0.84-0.07,1.06-0.21c0.22-0.14,0.34-0.36,0.34-0.65c0-0.18-0.05-0.4-0.14-0.66
		c-0.09-0.26-0.28-0.73-0.58-1.41c-0.02-0.04-0.05-0.11-0.08-0.2c-0.04-0.09-0.07-0.18-0.12-0.27l-0.21-0.5h-5.46l-0.41,1.01
		c-0.14,0.34-0.21,0.69-0.21,1.04c0,0.3,0.08,0.59,0.24,0.88c0.15,0.29,0.36,0.51,0.61,0.66c0.17,0.1,0.32,0.17,0.44,0.21
		c0.14,0.04,0.33,0.06,0.57,0.08v0.38h-5.25v-0.38c0.39-0.04,0.69-0.12,0.91-0.21c0.23-0.1,0.48-0.26,0.75-0.49
		c0.65-0.53,1.29-1.53,1.91-3.01L98.71,0z M97.73,3.18L95.2,9.25h5.12L97.73,3.18z"/>
</g>
</svg>
