<?xml version="1.0" encoding="utf-8"?>
<!-- Generator: Adobe Illustrator 26.0.3, SVG Export Plug-In . SVG Version: 6.00 Build 0)  -->
<svg version="1.1" id="레이어_1" xmlns="http://www.w3.org/2000/svg" xmlns:xlink="http://www.w3.org/1999/xlink" x="0px"
	 y="0px" viewBox="0 0 149.18 11.18" style="enable-background:new 0 0 149.18 11.18;" xml:space="preserve">
<style type="text/css">
	.st0{enable-background:new    ;}
	.st1{fill:#464646;}
</style>
<g class="st0">
	<path class="st1" d="M10.52,10.77c0.05,0.03,0.13,0.07,0.24,0.1c0.11,0.04,0.2,0.07,0.27,0.09v0.22h-0.35h-0.52H7.72v-0.27h0.06
		c0.23,0,0.41-0.07,0.54-0.22c0.13-0.15,0.15-0.32,0.08-0.51l-0.02-0.06L7.3,7.62H2.82L1.89,9.83c-0.08,0.21-0.12,0.39-0.1,0.53
		c0.02,0.14,0.08,0.25,0.17,0.33c0.1,0.08,0.22,0.14,0.37,0.17c0.15,0.04,0.32,0.06,0.5,0.06h0.06v0.27H1.32H0.91H0v-0.27h0.06
		c0.3,0,0.56-0.08,0.8-0.25C1.1,10.49,1.31,10.2,1.5,9.8l0.8-1.93l0.27-0.64l3.02-7.22l4.33,10.02c0.05,0.12,0.13,0.24,0.22,0.37
		c0.1,0.13,0.2,0.24,0.32,0.33L10.52,10.77z M7.13,7.23l-2.1-4.89L2.97,7.23H7.13z"/>
	<path class="st1" d="M18.72,0h1.13c0.34,0,0.7,0.03,1.07,0.1c0.38,0.07,0.72,0.19,1.03,0.35c0.31,0.17,0.57,0.39,0.77,0.66
		c0.2,0.28,0.3,0.62,0.3,1.04V2.2c0,0.48-0.13,0.86-0.39,1.15c-0.26,0.29-0.58,0.51-0.96,0.67c1.07,0.15,1.89,0.55,2.47,1.19
		s0.86,1.43,0.86,2.36c0,0.51-0.09,0.99-0.28,1.43c-0.19,0.44-0.46,0.82-0.81,1.15c-0.36,0.32-0.79,0.58-1.3,0.76
		c-0.51,0.18-1.1,0.27-1.76,0.27h-2.13h-3.31v-0.26h0.06c0.24,0,0.45-0.08,0.62-0.25c0.17-0.17,0.25-0.38,0.25-0.62V1.23
		c0-0.17-0.03-0.31-0.1-0.42c-0.06-0.11-0.14-0.2-0.23-0.27c-0.09-0.07-0.19-0.12-0.3-0.16s-0.21-0.07-0.31-0.09V0H18.72z
		 M18.58,0.38c-0.3,0-0.5,0.06-0.62,0.19s-0.17,0.31-0.17,0.56v2.82h2.08c0.46,0,0.8-0.09,1.03-0.28c0.23-0.19,0.4-0.38,0.51-0.6
		c0.12-0.25,0.17-0.55,0.17-0.88V2.15c0-0.32-0.06-0.61-0.17-0.88c-0.11-0.22-0.28-0.43-0.52-0.61c-0.24-0.19-0.59-0.28-1.04-0.28
		H18.58z M23.56,7.57c0-0.47-0.05-0.9-0.15-1.29c-0.1-0.39-0.26-0.73-0.48-1.02s-0.5-0.51-0.83-0.68c-0.34-0.16-0.75-0.25-1.24-0.25
		h-3.07v5.7c0,0.25,0.06,0.43,0.17,0.56s0.32,0.19,0.62,0.19h2.27c0.49,0,0.9-0.08,1.24-0.24s0.62-0.38,0.83-0.67
		s0.38-0.63,0.48-1.02C23.51,8.47,23.56,8.04,23.56,7.57z"/>
	<path class="st1" d="M39.53,5.59c0,0.86-0.12,1.64-0.37,2.33c-0.25,0.69-0.59,1.27-1.03,1.75c-0.44,0.48-0.95,0.85-1.55,1.11
		c-0.6,0.26-1.25,0.39-1.96,0.39c-0.71,0-1.37-0.13-1.96-0.39c-0.6-0.26-1.12-0.63-1.55-1.11c-0.44-0.48-0.77-1.06-1.02-1.75
		s-0.37-1.47-0.37-2.33s0.12-1.64,0.37-2.33c0.24-0.69,0.58-1.28,1.02-1.76c0.43-0.48,0.95-0.85,1.55-1.12S33.91,0,34.62,0
		c1.1,0,2.06,0.3,2.87,0.9c0.81,0.6,1.39,1.45,1.73,2.54c0.06,0.19,0.12,0.4,0.16,0.62c0.04,0.19,0.08,0.42,0.11,0.68
		C39.52,5,39.53,5.28,39.53,5.59z M38.08,5.56c0-0.61-0.04-1.15-0.12-1.63c-0.08-0.48-0.19-0.91-0.33-1.27
		c-0.14-0.36-0.29-0.67-0.46-0.92c-0.17-0.25-0.35-0.45-0.54-0.6c-0.37-0.31-0.72-0.52-1.03-0.65s-0.67-0.18-1.07-0.18
		c-0.18,0-0.45,0.05-0.8,0.14C33.39,0.54,33.04,0.73,32.68,1c-0.55,0.44-0.94,1.05-1.17,1.85c-0.23,0.8-0.34,1.7-0.34,2.71v0.03
		v0.02c0,0.73,0.06,1.42,0.18,2.05c0.12,0.63,0.32,1.18,0.59,1.64c0.27,0.46,0.63,0.83,1.07,1.09c0.44,0.27,0.98,0.4,1.61,0.4
		s1.18-0.13,1.62-0.4s0.8-0.63,1.07-1.09c0.27-0.46,0.47-1.01,0.59-1.64c0.12-0.63,0.18-1.31,0.18-2.05V5.59V5.56z"/>
	<path class="st1" d="M46.13,0.52c-0.17,0.16-0.25,0.37-0.25,0.61v5.16c0,0.7,0.04,1.33,0.11,1.89c0.07,0.56,0.21,1.03,0.42,1.42
		c0.21,0.39,0.49,0.68,0.85,0.88c0.36,0.2,0.83,0.3,1.42,0.3c0.68,0,1.22-0.11,1.61-0.33c0.4-0.22,0.7-0.52,0.91-0.92
		c0.21-0.39,0.34-0.86,0.39-1.4c0.05-0.54,0.08-1.14,0.08-1.79V1.4c0-0.23-0.04-0.42-0.12-0.57c-0.08-0.14-0.18-0.26-0.3-0.34
		S51,0.35,50.86,0.32c-0.14-0.03-0.27-0.05-0.38-0.05h-0.06V0h2.94v0.27h-0.06c-0.12,0-0.25,0.02-0.39,0.05
		c-0.14,0.03-0.28,0.09-0.41,0.18c-0.13,0.08-0.23,0.2-0.32,0.34c-0.08,0.14-0.13,0.33-0.13,0.57v4.99c0,0.59-0.02,1.18-0.07,1.75
		c-0.05,0.57-0.18,1.08-0.41,1.53c-0.22,0.45-0.56,0.81-1.01,1.08s-1.08,0.42-1.89,0.42c-1.52,0-2.6-0.4-3.26-1.21
		c-0.66-0.81-0.99-2.04-0.99-3.7V1.13c0-0.23-0.07-0.43-0.22-0.6c-0.15-0.16-0.35-0.25-0.6-0.26V0h3.21v0.27h-0.06
		C46.51,0.27,46.3,0.35,46.13,0.52z"/>
	<path class="st1" d="M67.59,0v1.88h-0.27V1.82c0-0.12-0.02-0.26-0.05-0.42c-0.03-0.16-0.09-0.32-0.17-0.47
		c-0.09-0.15-0.2-0.28-0.34-0.38c-0.14-0.11-0.33-0.16-0.56-0.16h-0.73h-1.23c-0.31,0-0.52,0.06-0.64,0.19s-0.18,0.31-0.18,0.56
		v8.91c0,0.25,0.08,0.45,0.25,0.62c0.16,0.17,0.37,0.25,0.61,0.25h0.05h0.02v0.26h-0.02h-3.29h-0.02v-0.26h0.02h0.05
		c0.24,0,0.45-0.08,0.61-0.25c0.16-0.17,0.25-0.38,0.25-0.62V1.13c0-0.24-0.06-0.43-0.18-0.56s-0.34-0.19-0.64-0.19h-1.24h-0.72
		c-0.23,0-0.42,0.05-0.56,0.16c-0.14,0.11-0.26,0.23-0.34,0.38s-0.14,0.31-0.17,0.47c-0.03,0.17-0.05,0.31-0.05,0.42v0.06h-0.27V0
		h2.12h2.8h2.8H67.59z"/>
</g>
<g class="st0">
	<path class="st1" d="M93.35,10.77c0.05,0.03,0.13,0.07,0.24,0.1c0.11,0.04,0.2,0.07,0.27,0.09v0.22h-0.35h-0.53h-2.43v-0.27h0.06
		c0.23,0,0.41-0.07,0.54-0.22c0.13-0.15,0.15-0.32,0.08-0.51l-0.02-0.06l-1.08-2.5h-4.49l-0.92,2.21c-0.09,0.21-0.12,0.39-0.1,0.53
		c0.02,0.14,0.08,0.25,0.17,0.33c0.1,0.08,0.22,0.14,0.37,0.17c0.15,0.04,0.32,0.06,0.5,0.06h0.06v0.27h-1.59h-0.41h-0.91v-0.27
		h0.06c0.3,0,0.56-0.08,0.8-0.25c0.24-0.17,0.45-0.46,0.63-0.86l0.8-1.93l0.27-0.64l3.02-7.22l4.33,10.02
		c0.05,0.12,0.13,0.24,0.22,0.37s0.2,0.24,0.32,0.33L93.35,10.77z M89.96,7.23l-2.1-4.89l-2.05,4.89H89.96z"/>
</g>
<g class="st0">
	<path class="st1" d="M99.35,0h0.38h0.25h2.67h2.13c0.66,0,1.24,0.09,1.76,0.28c0.51,0.19,0.95,0.44,1.3,0.76
		c0.36,0.32,0.63,0.71,0.81,1.15s0.28,0.92,0.28,1.43c0,0.84-0.24,1.57-0.72,2.19c-0.48,0.62-1.18,1.04-2.09,1.27
		c0.33,0.09,0.66,0.2,1,0.33s0.63,0.32,0.9,0.54c0.26,0.22,0.48,0.49,0.64,0.81s0.25,0.7,0.25,1.15v0.13c0,0.25,0.08,0.45,0.25,0.62
		c0.17,0.17,0.38,0.25,0.62,0.25h0.06v0.26h-3.31v-0.26h0.06c0.24,0,0.45-0.08,0.62-0.25c0.17-0.17,0.25-0.38,0.25-0.62V9.72
		c0-0.55-0.11-0.99-0.33-1.32c-0.22-0.33-0.48-0.58-0.78-0.76c-0.3-0.18-0.6-0.29-0.91-0.34c-0.31-0.05-0.55-0.08-0.71-0.08h-3.02
		v2.82c0,0.25,0.08,0.45,0.25,0.62c0.17,0.17,0.38,0.25,0.62,0.25h0.06v0.26h-3.31v-0.26h0.06c0.24,0,0.45-0.08,0.62-0.25
		c0.17-0.17,0.25-0.38,0.25-0.62V1.13V1.1c-0.01-0.14-0.05-0.25-0.11-0.35c-0.06-0.1-0.14-0.17-0.24-0.23
		c-0.1-0.06-0.2-0.1-0.3-0.13s-0.2-0.05-0.29-0.06V0z M101.72,6.83h3.07c0.49,0,0.9-0.08,1.24-0.24s0.62-0.38,0.83-0.67
		c0.22-0.29,0.38-0.63,0.48-1.02c0.1-0.39,0.15-0.82,0.15-1.29c0-0.47-0.05-0.9-0.15-1.29c-0.1-0.39-0.26-0.73-0.48-1.02
		c-0.22-0.29-0.5-0.51-0.83-0.68c-0.34-0.16-0.75-0.25-1.24-0.25h-2.27c-0.3,0-0.5,0.06-0.62,0.19c-0.12,0.13-0.18,0.31-0.18,0.56
		V6.83z"/>
</g>
<g class="st0">
	<path class="st1" d="M126.45,0v1.88h-0.27V1.82c0-0.12-0.02-0.26-0.05-0.42c-0.03-0.16-0.09-0.32-0.17-0.47
		c-0.09-0.15-0.2-0.28-0.34-0.38c-0.14-0.11-0.33-0.16-0.57-0.16h-0.73h-1.22c-0.31,0-0.52,0.06-0.64,0.19
		c-0.12,0.13-0.18,0.31-0.18,0.56v8.91c0,0.25,0.08,0.45,0.25,0.62c0.16,0.17,0.37,0.25,0.61,0.25h0.05h0.02v0.26h-0.02h-3.29h-0.02
		v-0.26h0.02h0.05c0.24,0,0.45-0.08,0.61-0.25c0.16-0.17,0.25-0.38,0.25-0.62V1.13c0-0.24-0.06-0.43-0.18-0.56s-0.34-0.19-0.64-0.19
		h-1.24H118c-0.23,0-0.42,0.05-0.56,0.16c-0.14,0.11-0.26,0.23-0.34,0.38s-0.14,0.31-0.17,0.47c-0.03,0.17-0.05,0.31-0.05,0.42v0.06
		h-0.27V0h2.12h2.8h2.8H126.45z"/>
	<path class="st1" d="M133.47,0.52c-0.17,0.16-0.25,0.37-0.25,0.61v8.91c0,0.25,0.08,0.45,0.25,0.62c0.17,0.17,0.38,0.25,0.62,0.25
		h0.06v0.26h-3.31v-0.26h0.06c0.24,0,0.45-0.08,0.62-0.25c0.17-0.17,0.25-0.38,0.25-0.62V1.13c0-0.24-0.08-0.45-0.25-0.61
		c-0.17-0.16-0.38-0.25-0.62-0.25h-0.06V0h3.31v0.27h-0.06C133.84,0.27,133.64,0.35,133.47,0.52z"/>
</g>
<g class="st0">
	<path class="st1" d="M140.11,0h2.21l6.28,9.45V1.4c0-0.23-0.04-0.42-0.13-0.57c-0.08-0.14-0.19-0.26-0.32-0.34
		s-0.26-0.14-0.41-0.18c-0.14-0.03-0.27-0.05-0.39-0.05h-0.06V0h2.94v0.27h-0.06c-0.12,0-0.25,0.02-0.39,0.05
		c-0.14,0.03-0.27,0.09-0.39,0.18c-0.12,0.08-0.21,0.2-0.29,0.34c-0.08,0.14-0.12,0.33-0.12,0.57v8.62l0.16,0.24
		c0.14,0.18,0.28,0.33,0.44,0.46c0.15,0.13,0.35,0.19,0.6,0.19h0.06v0.26h-2.21l-6.3-9.45v8.06c0,0.23,0.04,0.42,0.13,0.57
		c0.08,0.14,0.19,0.26,0.32,0.34s0.26,0.14,0.41,0.18c0.14,0.03,0.27,0.05,0.39,0.05h0.06v0.26h-2.93v-0.26h0.06
		c0.12,0,0.24-0.02,0.38-0.05c0.14-0.03,0.27-0.09,0.38-0.18s0.21-0.2,0.29-0.34c0.08-0.14,0.12-0.33,0.12-0.57V1.15l-0.16-0.24
		c-0.12-0.17-0.28-0.3-0.48-0.4c-0.2-0.1-0.4-0.15-0.6-0.18V0z"/>
</g>
</svg>
