<?xml version="1.0" encoding="utf-8"?>
<!-- Generator: Adobe Illustrator 25.4.1, SVG Export Plug-In . SVG Version: 6.00 Build 0)  -->
<svg version="1.1" id="Layer_1" xmlns="http://www.w3.org/2000/svg" xmlns:xlink="http://www.w3.org/1999/xlink" x="0px" y="0px"
	 viewBox="0 0 43.3 11.4" style="enable-background:new 0 0 43.3 11.4;" xml:space="preserve">
<g>
	<path d="M4.2,9.6C1.8,9.6,0,7.8,0,4.8C0,1.8,1.8,0,4.2,0c1.9,0,3.4,1.1,4,3c0,0,0.3,0.8,0.3,1.9C8.5,7.8,6.7,9.6,4.2,9.6z M7.2,4.8
		C7.2,2.7,6.6,1.5,6,1C5.3,0.5,4.8,0.3,4.2,0.3c-0.3,0-1,0.1-1.6,0.6C1.6,1.6,1.2,3.1,1.2,4.8c0,0,0,0,0,0v0c0,2.5,0.8,4.5,3,4.5
		C6.4,9.3,7.2,7.3,7.2,4.8L7.2,4.8C7.2,4.8,7.2,4.8,7.2,4.8z M5.2,11c3.7,1.1,4.5-0.7,4.5-0.7c-1.7,0.9-3.3,0.3-4.4-0.1
		c-1.2-0.4-2.4,0-2.9,0.9C2.4,11.1,3.5,10.4,5.2,11z"/>
	<path d="M23.2,7.9c-0.2,0-0.4,0.2-0.4,0.4c-0.2,1.1-1,3.1-3.2,3.1c-3,0-4-2.4-4-3.6c0,0,0,0,0,0c0,0,0,0,0-0.1c0-1.7,0.8-2.8,2-3.3
		c-0.4-0.4-0.7-1-0.7-1.8C16.9,1,18,0,19.2,0c1.6,0,2.2,1.2,2.2,1.7c0,0.4-0.3,0.8-0.7,0.8c-0.5,0-0.8-0.3-0.9-0.8
		c0-0.5,0.3-0.8,0.8-0.8c0,0,0.1,0,0.1,0c-0.3-0.4-0.8-0.7-1.4-0.7c-2.1,0-1.8,3.8-0.4,3.8c0.3,0,0.4,0.3,0.4,0.6v0.6
		c-1.7,0-2.7,0.9-2.7,2.5c0,1.6,1.1,3.3,2.9,3.3h0c1.2,0,2.1-0.7,2.6-1.8c0.3-0.6-0.2-1.2-0.8-1.2h-0.9c-0.6,0-1.2-0.5-1.2-1.2H23
		c0.6,0,1.2,0.5,1.2,1.2H23.2z"/>
	<path d="M43.3,11.2v0.2h-0.4h-0.5h-2.5v-0.3H40c0.5,0,0.8-0.4,0.6-0.7l0-0.1l-1.1-2.5h-4.6L34,10c-0.3,0.8,0.2,1.1,1,1.1H35v0.3
		h-1.6h-0.4H32v-0.3h0.1c0.6,0,1.1-0.3,1.5-1.1l0.8-2l0.3-0.6l3.1-7.3l4.4,10.2c0.1,0.2,0.3,0.5,0.6,0.7c0,0,0,0,0.1,0
		C42.8,11.1,43.1,11.2,43.3,11.2z M39.3,7.4l-2.1-5l-2.1,5H39.3z"/>
</g>
</svg>
