<?xml version="1.0" encoding="utf-8"?>
<!-- Generator: Adobe Illustrator 25.4.1, SVG Export Plug-In . SVG Version: 6.00 Build 0)  -->
<svg version="1.1" id="Layer_1" xmlns="http://www.w3.org/2000/svg" xmlns:xlink="http://www.w3.org/1999/xlink" x="0px" y="0px"
	 viewBox="0 0 114.2 11.4" style="enable-background:new 0 0 114.2 11.4;" xml:space="preserve">
<g>
	<path d="M0,0c0.1,0,0.3,0,0.4,0h0.3h2.7h2.2c2.7,0,4.2,1.6,4.2,3.7c0,1.7-1,3.1-2.9,3.5c1.4,0.3,2.8,1.1,2.8,2.9c0,0.1,0,0.1,0,0.1
		c0,0.5,0.4,0.9,0.9,0.9h0.1v0.3H7.3v-0.3h0.1c0.5,0,0.9-0.4,0.9-0.9c0,0,0-0.1,0-0.3c0-2.3-2.1-2.5-2.8-2.5H2.4v2.9
		c0,0.5,0.4,0.9,0.9,0.9h0.1v0.3H0v-0.3h0.1c0.5,0,0.9-0.4,0.9-0.9V1.2c0,0,0,0,0,0c0-0.6-0.6-0.7-1-0.8V0z M2.4,7h3.1
		c2,0,2.8-1.4,2.8-3.3c0-1.9-0.8-3.3-2.8-3.3H3.2c-0.6,0-0.8,0.3-0.8,0.8V7z"/>
	<path d="M27.4,9.5h0.3v1.9h-9.1v-0.3h0.1c0.5,0,0.9-0.4,0.9-0.9V1.2c0-0.5-0.4-0.9-0.9-0.9h-0.1V0h8.8L27.7,2h-0.3V1.9
		c-0.1-0.6-0.6-1.5-1.6-1.5h-4c-0.6,0-0.9,0.3-0.9,0.8v3.7h1.5c0.9,0,1.2-1,1.2-1.5V3.4h0.3v3.4h-0.3v0c0-0.5-0.2-1.5-1.2-1.5H21v5
		c0,0.5,0.2,0.8,0.9,0.8h4.5C27.2,11,27.4,10.1,27.4,9.5L27.4,9.5z"/>
	<path d="M38.2,1.1L38.2,1.1l3.5,8l3.2-7.6c0.3-0.8-0.3-1.1-1-1.1h0V0h1.6h0.4h0.9v0.3h-0.1c-0.7,0-1.1,0.3-1.5,1.1l-4.2,10
		L36.6,1.2c-0.1-0.3-0.6-0.8-1.1-0.9V0h3.3v0.3h-0.1C38.4,0.3,38,0.7,38.2,1.1z"/>
	<path d="M57.1,1.2v9.1c0,0.5,0.4,0.9,0.9,0.9H58v0.3h-3.4v-0.3h0.1c0.5,0,0.9-0.4,0.9-0.9V1.2c0-0.5-0.4-0.9-0.9-0.9h-0.1V0H58v0.3
		h-0.1C57.5,0.3,57.1,0.7,57.1,1.2z"/>
	<path d="M74.7,9.5H75v1.9h-9.1v-0.3h0.1c0.5,0,0.9-0.4,0.9-0.9V1.2c0-0.5-0.4-0.9-0.9-0.9h-0.1V0h8.8L75,2h-0.3V1.9
		c-0.1-0.6-0.6-1.5-1.6-1.5h-4c-0.6,0-0.9,0.3-0.9,0.8v3.7h1.5c0.9,0,1.2-1,1.2-1.5V3.4h0.3v3.4h-0.3v0c0-0.5-0.2-1.5-1.2-1.5h-1.5
		v5c0,0.5,0.2,0.8,0.9,0.8h4.5C74.5,11,74.7,10.1,74.7,9.5L74.7,9.5z"/>
	<path d="M85.4,1.1L85.4,1.1l3.4,8L90.1,6l-2.1-4.8c-0.2-0.4-0.6-0.9-1.1-0.9h-0.1V0h3.4v0.3h-0.1c-0.5,0-0.8,0.4-0.6,0.7l0,0.1
		l1.3,3L92,1.4c0.3-0.8-0.3-1.1-1-1.1H91V0h1.6H93h0.9v0.3h0c-0.7,0-1.1,0.3-1.5,1.1l-1.2,2.7l-0.2,0.4L93.1,9l3.2-7.6
		c0.3-0.8-0.2-1.1-1-1.1h-0.1V0h1.6h0.4h0.9v0.3h-0.1c-0.7,0-1.1,0.3-1.5,1.1l-4.2,10l-2.1-5l-2.1,5L83.8,1.2
		c-0.2-0.4-0.5-0.8-1-0.9V0h3.2v0.3h0C85.6,0.3,85.2,0.7,85.4,1.1z"/>
	<path d="M114.2,8.3c-0.1,1.7-1.9,3.1-5,3.1c-2.2,0-4-1-4.5-2.4c-0.1-0.2,0.3-0.4,0.4-0.2c0.5,1.2,2.2,2.1,4.1,2.1
		c2.6,0,3.8-1.2,3.6-2.6c-0.4-3.1-7.8-1.5-7.7-5.7c0-1.3,1.6-2.6,4.3-2.6c1.7,0,2.8,0.7,3.2,1.3c0.1,0,0.2-0.5,0.2-0.8v0h0.3v3h-0.3
		V3.4c0-2-1.6-3-3.4-3c-1.7,0-3,0.7-3,2C106.5,5.5,114.4,4,114.2,8.3z"/>
</g>
</svg>
