<?xml version="1.0" encoding="utf-8"?>
<!-- Generator: Adobe Illustrator 26.0.3, SVG Export Plug-In . SVG Version: 6.00 Build 0)  -->
<svg version="1.1" id="레이어_1" xmlns="http://www.w3.org/2000/svg" xmlns:xlink="http://www.w3.org/1999/xlink" x="0px"
	 y="0px" viewBox="0 0 149 15.95" style="enable-background:new 0 0 149 15.95;" xml:space="preserve">
<g>
	<path d="M97.01,3.94c0-0.05-0.01-0.1-0.04-0.15l-1.62-2.21c0,0-0.01-0.01-0.01-0.01c-0.01-0.01-0.02-0.02-0.04-0.04
		c-0.01-0.01-0.02-0.02-0.04-0.02c-0.01-0.01-0.03-0.01-0.05-0.02c-0.01,0-0.03-0.01-0.04-0.01c-0.01,0-0.01,0-0.02,0h-7.16
		c-0.01,0-0.01,0-0.02,0c-0.02,0-0.03,0-0.04,0.01c-0.02,0.01-0.03,0.01-0.05,0.02c-0.01,0.01-0.02,0.01-0.03,0.02
		c-0.01,0.01-0.03,0.02-0.04,0.04c0,0-0.01,0.01-0.01,0.01l-1.63,2.21c0,0.01,0,0.02-0.01,0.02c-0.01,0.01-0.02,0.03-0.02,0.05
		c-0.01,0.02-0.01,0.03-0.01,0.05C86.1,3.92,86.1,3.93,86.1,3.94v9.54c0,0.01,0,0.02,0.01,0.03c0,0.02,0,0.03,0.01,0.05
		c0.01,0.02,0.01,0.03,0.02,0.05c0.01,0.01,0.01,0.02,0.01,0.02l1.63,2.21c0,0,0.01,0.01,0.01,0.01c0.02,0.02,0.04,0.04,0.06,0.05
		c0.01,0.01,0.02,0.01,0.03,0.02c0.03,0.01,0.06,0.02,0.1,0.02h7.16c0.04,0,0.08-0.01,0.1-0.02c0.01-0.01,0.02-0.01,0.02-0.02
		c0.03-0.01,0.04-0.03,0.06-0.05c0,0,0.01-0.01,0.01-0.01l1.62-2.21c0.04-0.05,0.04-0.1,0.04-0.15h0L97.01,3.94L97.01,3.94z
		 M96.49,4l-1.51,1.25l-0.81-1.11L95.1,2.1L96.49,4z M94.83,5.48v6.47l-0.88,1.2h-4.8l-0.88-1.2V5.48l0.88-1.2h4.8L94.83,5.48z
		 M94.88,1.98l-0.94,2.04h-4.77l-0.94-2.04H94.88z M88.01,2.1l0.93,2.03l-0.82,1.11L86.62,4L88.01,2.1z M86.6,4.31l1.42,1.18v6.44
		l-1.42,1.18V4.31z M86.62,13.42l1.5-1.25l0.82,1.12l-0.93,2.03L86.62,13.42z M88.23,15.44l0.94-2.05h4.77l0.94,2.05H88.23z
		 M95.1,15.32l-0.93-2.03l0.81-1.12l1.51,1.25L95.1,15.32z M96.51,13.11l-1.42-1.18V5.49l1.42-1.18V13.11z"/>
	<path d="M34.97,11.16c-0.19,0.47-0.46,0.87-0.8,1.21c-0.35,0.34-0.7,0.55-1.05,0.64c-0.36,0.09-0.84,0.13-1.46,0.13h-3.21V0.55
		h2.38V0.03h-7.18v0.52h2.25v12.6h-2.25v0.52h12.03l0.39-4.45h-0.5C35.36,10.04,35.16,10.69,34.97,11.16z M46.07,0.55h2.59
		l-4.13,6.02l-4.2-6.02h2.36V0.03h-7.15v0.52h1.91l4.8,6.87v5.72h-2.43v0.52h7.35v-0.52H44.8V7.06l4.48-6.52h1.86V0.03h-5.07V0.55z
		 M14.29,0.55h2.34v12.6h-2.34v0.52h7.24v-0.52h-2.36V0.55h2.36V0.03h-7.24V0.55z M11.51,11.16c-0.19,0.47-0.46,0.87-0.8,1.21
		c-0.35,0.34-0.7,0.55-1.05,0.64c-0.36,0.09-0.84,0.13-1.46,0.13H4.98V0.55h2.38V0.03H0.19v0.52h2.25v12.6H0.19v0.52h12.03l0.4-4.45
		h-0.5C11.9,10.04,11.7,10.69,11.51,11.16z M83.07,2.07c0.07-0.14,0.1-0.29,0.1-0.47c0-0.31-0.11-0.57-0.34-0.78
		c-0.23-0.21-0.5-0.32-0.82-0.32c-0.31,0-0.59,0.11-0.82,0.32c-0.17,0.16-0.28,0.35-0.32,0.55h-0.01c0,0-0.19,1.05-0.21,2.27
		C80.65,3.65,82.74,2.9,83.07,2.07z M136.04,8.87c0-0.87-0.08-1.51-0.22-1.92c-0.15-0.41-0.42-0.77-0.82-1.08
		c-0.41-0.31-0.92-0.46-1.55-0.46c-1.34,0-2.38,0.69-3.11,2.08h-0.04V5.52c-0.78,0.1-1.65,0.15-2.62,0.15h-0.97v0.52h1.52v6.95
		h-1.52v0.52h4.99v-0.52h-1.4V9.72c0-1.14,0.27-2.04,0.83-2.72c0.55-0.68,1.17-1.01,1.86-1.01c0.43,0,0.71,0.15,0.81,0.45
		c0.1,0.3,0.16,0.84,0.16,1.62v5.08h-1.42v0.52h5.17v-0.52h-1.67V8.87z M147.56,13.14V-0.12c-0.71,0.1-1.43,0.15-2.14,0.15h-1.94
		v0.52h1.94v6.3h-0.04c-0.53-0.96-1.35-1.43-2.47-1.43c-1.1,0-2.05,0.43-2.85,1.3c-0.81,0.87-1.21,1.88-1.21,3.03
		c0,1.08,0.38,2.04,1.15,2.89c0.76,0.85,1.65,1.28,2.65,1.28c1.25,0,2.16-0.6,2.73-1.8h0.04v1.67c0.84-0.08,1.64-0.12,2.39-0.12h1.2
		v-0.52H147.56z M145.27,11.48c-0.14,0.5-0.44,0.94-0.9,1.32c-0.46,0.39-0.98,0.58-1.58,0.58c-0.55,0-0.95-0.19-1.21-0.57
		c-0.25-0.38-0.37-1.3-0.37-2.75c0-1.69,0.1-2.81,0.29-3.36c0.2-0.55,0.68-0.83,1.46-0.83c0.78,0,1.4,0.27,1.85,0.81
		c0.45,0.54,0.67,1.34,0.67,2.4C145.48,10.18,145.42,10.99,145.27,11.48z M73.8,0.63c-1.06-0.4-2.34-0.61-3.84-0.61h-6.76v0.52h2.23
		v12.6h-2.23v0.52h6.72c1.47,0,2.71-0.2,3.73-0.6c1.02-0.41,1.92-1.18,2.71-2.32c0.78-1.15,1.18-2.45,1.18-3.9
		c0-1.38-0.36-2.65-1.07-3.83C75.76,1.82,74.87,1.04,73.8,0.63z M74.57,9.61c-0.14,0.87-0.42,1.59-0.82,2.16
		c-0.4,0.57-0.91,0.94-1.53,1.11c-0.61,0.17-1.41,0.25-2.39,0.25h-1.86V0.55h1.9c1.06,0,1.91,0.1,2.57,0.3
		c0.65,0.2,1.21,0.72,1.66,1.55c0.45,0.83,0.68,2.1,0.68,3.79C74.78,7.6,74.71,8.74,74.57,9.61z M120.73,5.42
		c-1.25,0-2.3,0.41-3.15,1.24c-0.84,0.82-1.27,1.82-1.27,2.99c0,1.2,0.43,2.21,1.29,3.03c0.86,0.83,1.88,1.24,3.06,1.24
		c1.2,0,2.25-0.42,3.13-1.27c0.89-0.84,1.33-1.87,1.33-3.08c0-1.19-0.43-2.17-1.28-2.96C122.99,5.81,121.95,5.42,120.73,5.42z
		 M122.58,12.13c-0.09,0.42-0.3,0.75-0.63,0.98c-0.33,0.23-0.74,0.35-1.24,0.35c-0.49,0-0.9-0.12-1.22-0.35
		c-0.32-0.23-0.54-0.55-0.63-0.95c-0.09-0.41-0.14-1.24-0.14-2.49c0-1.25,0.04-2.07,0.12-2.47c0.08-0.4,0.28-0.72,0.61-0.96
		c0.33-0.24,0.75-0.36,1.26-0.36c0.54,0,0.96,0.12,1.28,0.35c0.31,0.24,0.51,0.55,0.6,0.95c0.09,0.4,0.13,1.22,0.13,2.47
		C122.71,10.88,122.67,11.71,122.58,12.13z M113.31,9.03c0-0.92-0.05-1.58-0.16-1.98c-0.1-0.4-0.37-0.75-0.81-1.06
		c-0.44-0.3-0.97-0.46-1.62-0.46c-1.44,0-2.47,0.69-3.08,2.08h-0.04c-0.17-1.39-1.03-2.08-2.61-2.08c-1.44,0-2.45,0.65-3.01,1.96
		h-0.04V5.54c-0.65,0.09-1.54,0.13-2.65,0.13h-0.94v0.52h1.51v6.95h-1.51v0.52h4.97v-0.52h-1.38v-2.56c0-1.05,0.06-1.82,0.17-2.3
		c0.11-0.48,0.39-0.98,0.84-1.48c0.45-0.51,0.98-0.76,1.58-0.76c0.44,0,0.72,0.14,0.84,0.44c0.12,0.29,0.17,1.2,0.17,2.73v3.93
		h-1.39v0.52H109v-0.52h-1.38V10.5c0-1.74,0.3-2.91,0.91-3.54c0.61-0.62,1.2-0.93,1.78-0.93c0.42,0,0.68,0.15,0.78,0.45
		c0.09,0.3,0.14,0.84,0.14,1.64v5.02h-1.4v0.52h4.97v-0.52h-1.49V9.03z M82.99,5.52c-0.64,0.1-1.32,0.15-2.05,0.15h-1.52v0.52h1.49
		v6.95h-1.49v0.52h4.96v-0.52h-1.4V5.52z"/>
</g>
</svg>
