<?xml version="1.0" encoding="utf-8"?>
<!-- Generator: Adobe Illustrator 26.0.3, SVG Export Plug-In . SVG Version: 6.00 Build 0)  -->
<svg version="1.1" id="레이어_1" xmlns="http://www.w3.org/2000/svg" xmlns:xlink="http://www.w3.org/1999/xlink" x="0px"
	 y="0px" viewBox="0 0 95.7 13.87" style="enable-background:new 0 0 95.7 13.87;" xml:space="preserve">
<style type="text/css">
	.st0{fill:#040000;}
</style>
<g>
	<path class="st0" d="M2.4,5.34c0-2.82,0-3.33-0.06-3.91c-0.07-0.62-0.23-0.92-1.15-1C0.96,0.4,0.48,0.38,0.22,0.38
		C0.13,0.38,0,0.3,0,0.23c0-0.11,0.13-0.15,0.45-0.15c1.28,0,3,0.04,3.16,0.04c0.26,0,1.95-0.04,2.78-0.04
		c0.32,0,0.45,0.04,0.45,0.15c0,0.06-0.09,0.15-0.22,0.15c-0.19,0-0.35,0-0.7,0.04c-0.73,0.11-0.93,0.36-0.99,1
		C4.85,2.01,4.85,2.52,4.85,5.34v1.09h0.13c0.45-0.34,5.46-3.66,6.51-4.38c0.8-0.53,1.53-1.01,1.53-1.3c0-0.24-0.13-0.34-0.35-0.36
		c-0.16-0.02-0.26-0.11-0.26-0.17c0-0.08,0.13-0.13,0.32-0.13c0.57,0,1.44,0.04,2.11,0.04c0.16,0,2.01-0.04,2.71-0.04
		c0.29,0,0.42,0.04,0.42,0.13c0,0.09-0.06,0.15-0.29,0.15c-0.41,0-1.02,0.11-1.56,0.26c-1.15,0.34-1.69,0.75-2.94,1.54
		c-0.7,0.43-5.49,3.51-6.1,3.95c0.73,0.53,6.57,4.45,7.72,5.15c2.36,1.41,2.68,1.65,4.02,2.01c0.73,0.19,1.53,0.26,1.72,0.26
		c0.19,0,0.35,0.06,0.35,0.15c0,0.09-0.13,0.15-0.61,0.15h-1.44c-0.8,0-1.31,0-1.95-0.04c-1.47-0.08-2.2-0.49-3.42-1.11
		c-1.28-0.66-7.18-4.83-8.52-5.9H4.85v1.78c0,1.75,0,3.19,0.13,3.93c0.09,0.53,0.22,0.88,1.09,0.96c0.38,0.04,0.83,0.09,1.08,0.09
		c0.16,0,0.22,0.08,0.22,0.15c0,0.09-0.13,0.15-0.45,0.15c-1.37,0-3.06-0.06-3.29-0.06c-0.22,0-1.91,0.06-2.78,0.06
		c-0.29,0-0.45-0.04-0.45-0.15c0-0.06,0.06-0.15,0.22-0.15c0.25,0,0.61-0.04,0.86-0.09c0.54-0.08,0.6-0.43,0.73-0.96
		C2.4,11.74,2.4,10.3,2.4,8.55V5.34z"/>
	<path class="st0" d="M26.21,8.59c0,2.67,0.06,3.76,0.57,4.08c0.45,0.3,1.53,0.43,3.74,0.43c1.47,0,2.71-0.02,3.38-0.56
		c0.35-0.28,0.57-0.66,0.67-1.03c0.03-0.13,0.13-0.23,0.29-0.23c0.13,0,0.19,0.09,0.19,0.28c0,0.19-0.19,1.28-0.41,1.82
		c-0.19,0.43-0.29,0.49-1.79,0.49c-2.01,0-3.57-0.02-4.88-0.06c-1.28-0.02-2.23-0.04-3.07-0.04c-0.13,0-0.61,0-1.15,0.02
		c-0.57,0.02-1.18,0.04-1.63,0.04c-0.29,0-0.45-0.04-0.45-0.15c0-0.06,0.06-0.15,0.22-0.15c0.25,0,0.61-0.04,0.86-0.09
		c0.55-0.08,0.61-0.43,0.74-0.96c0.16-0.75,0.16-2.18,0.16-3.93V5.34c0-2.82,0-3.33-0.06-3.91c-0.06-0.62-0.22-0.92-1.15-1
		c-0.22-0.02-0.7-0.04-0.96-0.04c-0.1,0-0.22-0.08-0.22-0.15c0-0.11,0.13-0.15,0.44-0.15c1.28,0,3.03,0.04,3.19,0.04
		c0.13,0,2.24-0.04,3.1-0.04c0.29,0,0.45,0.04,0.45,0.15c0,0.06-0.13,0.13-0.22,0.13c-0.19,0-0.61,0.02-0.93,0.04
		c-0.83,0.11-0.99,0.39-1.05,1.03c-0.03,0.58-0.03,1.09-0.03,3.91V8.59z"/>
	<path class="st0" d="M43.29,8.55c0,1.75,0,3.19,0.12,3.93c0.1,0.53,0.19,0.88,1.02,0.96c0.42,0.04,1.02,0.09,1.28,0.09
		c0.16,0,0.22,0.08,0.22,0.15c0,0.09-0.13,0.15-0.45,0.15c-1.56,0-3.38-0.06-3.51-0.06c-0.16,0-1.92,0.06-2.78,0.06
		c-0.29,0-0.45-0.04-0.45-0.15c0-0.06,0.06-0.15,0.22-0.15c0.26,0,0.61-0.04,0.86-0.09c0.54-0.08,0.64-0.43,0.73-0.96
		c0.13-0.75,0.16-2.18,0.16-3.93V5.34c0-2.82,0-3.33-0.06-3.91c-0.06-0.62-0.29-0.9-0.89-0.99c-0.32-0.04-0.67-0.06-0.86-0.06
		c-0.13,0-0.22-0.08-0.22-0.15c0-0.11,0.13-0.15,0.45-0.15c0.93,0,2.68,0.04,2.84,0.04c0.13,0,1.95-0.04,2.81-0.04
		c0.32,0,0.45,0.04,0.45,0.15c0,0.06-0.13,0.15-0.22,0.15c-0.19,0-0.38,0-0.7,0.04c-0.77,0.11-0.92,0.36-0.99,1
		c-0.03,0.58-0.03,1.09-0.03,3.91V8.55z"/>
	<path class="st0" d="M74.18,11.5c0.1,0.64,0.29,1.63,1.44,1.88c0.8,0.17,1.53,0.17,1.82,0.17c0.13,0,0.22,0.05,0.22,0.13
		c0,0.11-0.26,0.17-0.57,0.17c-0.64,0-3.77-0.02-4.79-0.08c-0.67-0.05-0.8-0.11-0.8-0.19c0-0.06,0.06-0.13,0.19-0.15
		c0.16-0.02,0.19-0.3,0.13-0.64l-1.34-9.24h-0.06l-6.77,9.28c-0.58,0.79-0.73,0.96-0.99,0.96c-0.25,0-0.41-0.17-0.95-0.83
		c-0.74-0.9-2.59-3.23-3.29-4.21c-0.83-1.15-3.09-4.21-3.57-4.96h-0.13l-1.08,8.21c-0.03,0.28-0.03,0.62-0.03,0.92
		c0,0.28,0.26,0.45,0.67,0.51c0.48,0.09,0.89,0.11,1.09,0.11c0.09,0,0.22,0.06,0.22,0.13c0,0.13-0.19,0.17-0.51,0.17
		c-1.05,0-2.39-0.06-2.62-0.06c-0.26,0-1.59,0.06-2.36,0.06c-0.29,0-0.48-0.04-0.48-0.17c0-0.06,0.13-0.13,0.29-0.13
		c0.22,0,0.42-0.02,0.83-0.06c0.92-0.11,0.96-0.77,1.09-1.46l2.04-11.87c0.03-0.19,0.16-0.32,0.32-0.32c0.19,0,0.41,0.06,0.58,0.28
		l8.49,11.29l8.17-11.27c0.13-0.17,0.26-0.3,0.45-0.3s0.35,0.15,0.41,0.49L74.18,11.5z"/>
	<path class="st0" d="M88.2,8.55c0,1.75,0,3.19,0.13,3.93c0.1,0.53,0.22,0.88,1.09,0.96c0.38,0.04,1.02,0.09,1.28,0.09
		c0.19,0,0.22,0.08,0.22,0.15c0,0.09-0.13,0.15-0.45,0.15c-1.53,0-3.32-0.06-3.48-0.06c-0.13,0-2.07,0.06-2.9,0.06
		c-0.32,0-0.45-0.04-0.45-0.15c0-0.06,0.06-0.13,0.22-0.13c0.26,0,0.57-0.04,0.83-0.08c0.57-0.09,0.73-0.45,0.83-0.99
		c0.13-0.75,0.13-2.18,0.13-3.93V0.92L81.6,0.96c-1.76,0.02-2.43,0.15-2.84,0.58c-0.32,0.32-0.35,0.45-0.45,0.58
		c-0.06,0.15-0.16,0.17-0.29,0.17c-0.06,0-0.19-0.04-0.19-0.15c0-0.19,0.54-1.81,0.61-1.97c0.03-0.1,0.19-0.34,0.29-0.34
		c0.19,0,0.48,0.15,1.24,0.21c0.8,0.06,1.89,0.09,2.2,0.09h10.6c0.92,0,1.56-0.04,2.01-0.09c0.41-0.04,0.67-0.08,0.8-0.08
		c0.13,0,0.13,0.11,0.13,0.21c0,0.56-0.1,1.86-0.1,2.08c0,0.15-0.13,0.24-0.25,0.24c-0.13,0-0.19-0.07-0.22-0.32l-0.03-0.19
		c-0.09-0.55-0.7-0.96-3.38-1L88.2,0.92V8.55z"/>
</g>
</svg>
