<?xml version="1.0" encoding="utf-8"?>
<!-- Generator: Adobe Illustrator 26.0.3, SVG Export Plug-In . SVG Version: 6.00 Build 0)  -->
<svg version="1.1" id="레이어_1" xmlns="http://www.w3.org/2000/svg" xmlns:xlink="http://www.w3.org/1999/xlink" x="0px"
	 y="0px" viewBox="0 0 180.41 11.18" style="enable-background:new 0 0 180.41 11.18;" xml:space="preserve">
<style type="text/css">
	.st0{fill:#424142;}
</style>
<g>
	<path class="st0" d="M10.52,10.77c0.05,0.03,0.13,0.07,0.24,0.1c0.11,0.04,0.2,0.07,0.27,0.09v0.22h-0.35h-0.53H7.72v-0.27h0.06
		c0.23,0,0.41-0.07,0.54-0.22c0.13-0.15,0.15-0.32,0.08-0.51l-0.02-0.06L7.3,7.62H2.82L1.89,9.83c-0.08,0.21-0.12,0.39-0.1,0.53
		c0.02,0.14,0.08,0.25,0.17,0.33c0.1,0.08,0.22,0.14,0.37,0.18c0.15,0.04,0.32,0.06,0.5,0.06h0.06v0.27H1.32H0.91H0v-0.27h0.06
		c0.3,0,0.56-0.08,0.8-0.26C1.11,10.49,1.31,10.2,1.5,9.8l0.8-1.93l0.27-0.64l3.02-7.22l4.33,10.02c0.05,0.12,0.13,0.24,0.22,0.37
		c0.1,0.13,0.2,0.24,0.32,0.33L10.52,10.77z M7.13,7.23l-2.1-4.89L2.98,7.23H7.13z"/>
	<path class="st0" d="M16.51,0h0.38h0.25h2.67h2.13c0.66,0,1.24,0.09,1.76,0.28c0.51,0.19,0.95,0.44,1.3,0.76
		c0.36,0.32,0.63,0.71,0.81,1.15s0.28,0.92,0.28,1.43c0,0.84-0.24,1.57-0.72,2.19c-0.48,0.62-1.18,1.04-2.09,1.27
		c0.33,0.08,0.66,0.2,0.99,0.33c0.33,0.14,0.63,0.32,0.9,0.54c0.27,0.22,0.48,0.49,0.64,0.81c0.16,0.32,0.25,0.7,0.25,1.15v0.13
		c0,0.24,0.08,0.45,0.25,0.62c0.17,0.17,0.38,0.26,0.62,0.26h0.06v0.25H23.7v-0.25h0.06c0.24,0,0.45-0.08,0.62-0.26
		c0.17-0.17,0.25-0.38,0.25-0.62V9.72c0-0.55-0.11-0.99-0.33-1.32c-0.22-0.33-0.48-0.58-0.78-0.76c-0.3-0.18-0.6-0.29-0.91-0.34
		c-0.31-0.05-0.55-0.08-0.72-0.08h-3.02v2.82c0,0.24,0.08,0.45,0.25,0.62c0.17,0.17,0.38,0.26,0.62,0.26h0.06v0.25h-3.31v-0.25h0.06
		c0.24,0,0.45-0.08,0.62-0.26c0.17-0.17,0.25-0.38,0.25-0.62V1.13V1.1c-0.01-0.14-0.05-0.25-0.11-0.35
		c-0.06-0.1-0.14-0.17-0.24-0.23c-0.1-0.06-0.2-0.1-0.3-0.13s-0.2-0.05-0.29-0.06V0z M18.88,6.83h3.07c0.49,0,0.9-0.08,1.24-0.24
		c0.34-0.16,0.62-0.38,0.83-0.67c0.22-0.29,0.38-0.63,0.48-1.02c0.1-0.39,0.15-0.82,0.15-1.29c0-0.47-0.05-0.9-0.15-1.29
		c-0.1-0.39-0.26-0.73-0.48-1.02s-0.5-0.51-0.83-0.68c-0.34-0.16-0.75-0.25-1.24-0.25h-2.27c-0.3,0-0.5,0.06-0.62,0.19
		s-0.17,0.31-0.17,0.56V6.83z"/>
	<path class="st0" d="M42.56,0v1.88h-0.27V1.82c0-0.12-0.02-0.26-0.05-0.42c-0.03-0.16-0.09-0.32-0.18-0.47s-0.2-0.28-0.34-0.38
		c-0.14-0.11-0.33-0.16-0.56-0.16h-0.73H39.2c-0.31,0-0.52,0.06-0.64,0.19c-0.12,0.13-0.18,0.31-0.18,0.56v8.91
		c0,0.24,0.08,0.45,0.25,0.62c0.16,0.17,0.37,0.26,0.61,0.26h0.05h0.02v0.25h-0.02h-3.29h-0.02v-0.25h0.02h0.05
		c0.24,0,0.45-0.08,0.61-0.26c0.16-0.17,0.25-0.38,0.25-0.62V1.13c0-0.24-0.06-0.43-0.18-0.56s-0.34-0.19-0.64-0.19h-1.24h-0.72
		c-0.23,0-0.42,0.05-0.56,0.16c-0.14,0.11-0.26,0.23-0.34,0.38s-0.14,0.31-0.17,0.47C33,1.56,32.98,1.7,32.98,1.82v0.06h-0.27V0
		h2.12h2.8h2.8H42.56z"/>
	<path class="st0" d="M50.35,0.52c-0.17,0.16-0.25,0.37-0.25,0.61v8.91c0,0.24,0.08,0.45,0.25,0.62c0.17,0.17,0.38,0.26,0.62,0.26
		h0.06v0.25h-3.31v-0.25h0.06c0.24,0,0.45-0.08,0.62-0.26c0.17-0.17,0.25-0.38,0.25-0.62V1.13c0-0.24-0.08-0.45-0.25-0.61
		c-0.17-0.16-0.38-0.25-0.62-0.25h-0.06V0h3.31v0.27h-0.06C50.73,0.27,50.52,0.35,50.35,0.52z"/>
	<path class="st0" d="M56.21,0h2.21l6.28,9.45V1.4c0-0.23-0.04-0.42-0.13-0.57c-0.08-0.14-0.19-0.26-0.32-0.34
		c-0.13-0.08-0.26-0.14-0.41-0.18c-0.14-0.03-0.27-0.05-0.39-0.05H63.4V0h2.94v0.27h-0.06c-0.12,0-0.25,0.02-0.39,0.05
		s-0.27,0.09-0.39,0.18s-0.21,0.2-0.29,0.34c-0.08,0.14-0.12,0.33-0.12,0.57v8.62l0.16,0.24c0.14,0.18,0.28,0.33,0.44,0.46
		c0.15,0.13,0.35,0.19,0.6,0.19h0.06v0.25h-2.21l-6.3-9.45v8.06c0,0.23,0.04,0.42,0.13,0.57c0.08,0.14,0.19,0.26,0.32,0.34
		c0.13,0.08,0.26,0.14,0.41,0.18c0.14,0.03,0.27,0.05,0.39,0.05h0.06v0.25h-2.93v-0.25h0.06c0.12,0,0.24-0.02,0.38-0.05
		c0.14-0.03,0.27-0.09,0.38-0.18s0.21-0.2,0.29-0.34c0.08-0.14,0.12-0.33,0.12-0.57V1.15l-0.16-0.24c-0.12-0.17-0.28-0.3-0.48-0.4
		c-0.2-0.1-0.4-0.15-0.6-0.18V0z"/>
	<path class="st0" d="M92.8,0v0.25h-0.06c-0.23,0-0.43,0.08-0.6,0.25c-0.16,0.17-0.25,0.36-0.25,0.6v5.64c0,0.08,0,0.17,0,0.27
		s-0.01,0.19-0.02,0.27c0,0.16-0.02,0.33-0.06,0.53c-0.03,0.17-0.08,0.37-0.14,0.59c-0.06,0.22-0.14,0.46-0.25,0.72
		c-0.34,0.72-0.83,1.25-1.48,1.58c-0.65,0.33-1.39,0.49-2.23,0.49c-0.6,0-1.13-0.08-1.57-0.25c-0.45-0.16-0.81-0.38-1.1-0.65
		c-0.29-0.27-0.5-0.58-0.64-0.92c-0.14-0.34-0.21-0.7-0.21-1.06V8.17h0.43v0.19c0,0.31,0.06,0.61,0.18,0.9
		c0.12,0.29,0.31,0.56,0.56,0.79c0.25,0.23,0.57,0.42,0.95,0.56s0.85,0.21,1.39,0.21c0.46,0,0.84-0.06,1.16-0.19
		c0.32-0.13,0.58-0.31,0.79-0.54c0.21-0.23,0.37-0.52,0.48-0.85s0.2-0.71,0.25-1.12c0.02-0.15,0.04-0.33,0.05-0.53
		c0.01-0.21,0.02-0.4,0.03-0.58c0.01-0.21,0.02-0.44,0.02-0.67V1.1c0-0.23-0.06-0.41-0.18-0.54s-0.33-0.19-0.63-0.19h-3.28
		c-0.25,0-0.47,0.05-0.65,0.14c-0.18,0.1-0.33,0.21-0.45,0.35C85.19,1,85.1,1.15,85.03,1.31c-0.07,0.17-0.12,0.32-0.15,0.45v0.05
		H84.6L84.94,0H92.8z"/>
	<path class="st0" d="M106.03,9.29h0.27v1.88h-8.97v-0.25h0.06c0.24,0,0.45-0.08,0.62-0.26c0.17-0.17,0.25-0.38,0.25-0.62V1.15
		c0-0.24-0.08-0.45-0.25-0.61c-0.17-0.16-0.38-0.25-0.62-0.25h-0.06V0h8.64l0.33,1.88h-0.27V1.82c-0.03-0.14-0.08-0.29-0.15-0.46
		c-0.07-0.17-0.17-0.33-0.29-0.47s-0.28-0.26-0.47-0.36s-0.41-0.14-0.68-0.14h-3.9c-0.31,0-0.53,0.07-0.65,0.2
		C99.77,0.71,99.7,0.9,99.7,1.15v3.62h1.45c0.23,0,0.42-0.05,0.56-0.15c0.14-0.1,0.26-0.23,0.34-0.37s0.14-0.31,0.17-0.47
		c0.03-0.16,0.05-0.31,0.05-0.44V3.27h0.27v3.38h-0.27V6.6c0-0.13-0.02-0.27-0.05-0.44s-0.09-0.32-0.17-0.47
		c-0.08-0.15-0.2-0.28-0.34-0.38c-0.14-0.11-0.33-0.16-0.56-0.16H99.7v4.89c0,0.24,0.06,0.43,0.19,0.56
		c0.13,0.13,0.34,0.19,0.65,0.19h4.38c0.22,0,0.41-0.05,0.56-0.15s0.26-0.23,0.34-0.37s0.14-0.31,0.17-0.47
		c0.03-0.16,0.05-0.31,0.05-0.44V9.29z"/>
	<path class="st0" d="M112.74,0.49c-0.13,0.15-0.16,0.32-0.09,0.51l0.03,0.06l3.34,7.78l1.27-3.03l-2.02-4.68
		c-0.08-0.19-0.22-0.38-0.4-0.57c-0.18-0.19-0.39-0.29-0.64-0.29h-0.06V0h3.31v0.27h-0.06c-0.23,0-0.41,0.07-0.54,0.22
		c-0.13,0.15-0.15,0.32-0.08,0.51l0.02,0.06l1.26,2.9l1.1-2.61c0.07-0.2,0.1-0.37,0.08-0.52c-0.02-0.14-0.08-0.25-0.17-0.33
		c-0.1-0.08-0.22-0.14-0.37-0.18c-0.15-0.04-0.32-0.06-0.5-0.06h-0.06V0h1.59h0.41h0.91v0.27H121c-0.37,0-0.66,0.08-0.87,0.25
		c-0.21,0.17-0.4,0.46-0.56,0.86l-1.13,2.69l-0.16,0.37l1.89,4.4l3.13-7.49c0.08-0.2,0.12-0.37,0.1-0.52
		c-0.02-0.14-0.08-0.25-0.17-0.33c-0.1-0.08-0.22-0.14-0.37-0.18c-0.15-0.04-0.32-0.06-0.5-0.06h-0.06V0h1.59h0.41h0.91v0.27h-0.06
		c-0.36,0-0.64,0.08-0.85,0.25c-0.21,0.17-0.4,0.46-0.58,0.86l-4.1,9.78l-2.1-4.88l-2.04,4.88l-4.33-10.04
		c-0.08-0.18-0.21-0.36-0.37-0.54c-0.16-0.18-0.35-0.29-0.56-0.32V0h3.13v0.27h-0.05C113.06,0.27,112.87,0.35,112.74,0.49z"/>
	<path class="st0" d="M138.44,9.29h0.27v1.88h-8.97v-0.25h0.06c0.24,0,0.45-0.08,0.62-0.26c0.17-0.17,0.25-0.38,0.25-0.62V1.15
		c0-0.24-0.08-0.45-0.25-0.61c-0.17-0.16-0.38-0.25-0.62-0.25h-0.06V0h8.64l0.33,1.88h-0.27V1.82c-0.03-0.14-0.08-0.29-0.15-0.46
		c-0.07-0.17-0.17-0.33-0.29-0.47s-0.28-0.26-0.47-0.36s-0.41-0.14-0.68-0.14h-3.9c-0.31,0-0.53,0.07-0.65,0.2
		c-0.13,0.13-0.19,0.32-0.19,0.57v3.62h1.45c0.23,0,0.42-0.05,0.56-0.15c0.14-0.1,0.26-0.23,0.34-0.37s0.14-0.31,0.17-0.47
		c0.03-0.16,0.05-0.31,0.05-0.44V3.27h0.27v3.38h-0.27V6.6c0-0.13-0.02-0.27-0.05-0.44s-0.09-0.32-0.17-0.47
		c-0.08-0.15-0.2-0.28-0.34-0.38c-0.14-0.11-0.33-0.16-0.56-0.16h-1.45v4.89c0,0.24,0.06,0.43,0.19,0.56
		c0.13,0.13,0.34,0.19,0.65,0.19h4.38c0.22,0,0.41-0.05,0.56-0.15s0.26-0.23,0.34-0.37s0.14-0.31,0.17-0.47
		c0.03-0.16,0.05-0.31,0.05-0.44V9.29z"/>
	<path class="st0" d="M142.93,0h3.33v0.27h-0.06c-0.24,0-0.45,0.08-0.62,0.25c-0.17,0.17-0.25,0.38-0.25,0.62v8.89
		c0,0.24,0.06,0.43,0.19,0.56c0.13,0.13,0.34,0.19,0.65,0.19h4.42c0.23,0,0.42-0.05,0.56-0.16c0.14-0.11,0.26-0.23,0.34-0.38
		c0.08-0.15,0.14-0.31,0.18-0.47c0.03-0.16,0.05-0.31,0.05-0.42V9.29h0.27v1.88h-9.04v-0.25h0.06c0.24,0,0.45-0.08,0.61-0.26
		c0.16-0.17,0.25-0.38,0.25-0.62V1.15c0-0.08-0.01-0.15-0.02-0.19c-0.04-0.19-0.14-0.35-0.29-0.48s-0.34-0.19-0.55-0.19h-0.08V0z"/>
	<path class="st0" d="M156.2,0h0.38h0.25h2.67h2.13c0.66,0,1.24,0.09,1.76,0.28c0.51,0.19,0.95,0.44,1.3,0.76
		c0.36,0.32,0.63,0.71,0.81,1.15s0.28,0.92,0.28,1.43c0,0.84-0.24,1.57-0.72,2.19c-0.48,0.62-1.18,1.04-2.09,1.27
		c0.33,0.08,0.66,0.2,0.99,0.33c0.33,0.14,0.63,0.32,0.9,0.54c0.27,0.22,0.48,0.49,0.64,0.81c0.16,0.32,0.25,0.7,0.25,1.15v0.13
		c0,0.24,0.08,0.45,0.25,0.62c0.17,0.17,0.38,0.26,0.62,0.26h0.06v0.25h-3.31v-0.25h0.06c0.24,0,0.45-0.08,0.62-0.26
		c0.17-0.17,0.25-0.38,0.25-0.62V9.72c0-0.55-0.11-0.99-0.33-1.32c-0.22-0.33-0.48-0.58-0.78-0.76c-0.3-0.18-0.6-0.29-0.91-0.34
		c-0.31-0.05-0.55-0.08-0.72-0.08h-3.02v2.82c0,0.24,0.08,0.45,0.25,0.62c0.17,0.17,0.38,0.26,0.62,0.26h0.06v0.25h-3.31v-0.25h0.06
		c0.24,0,0.45-0.08,0.62-0.26c0.17-0.17,0.25-0.38,0.25-0.62V1.13V1.1c-0.01-0.14-0.05-0.25-0.11-0.35
		c-0.06-0.1-0.14-0.17-0.24-0.23c-0.1-0.06-0.2-0.1-0.3-0.13s-0.2-0.05-0.29-0.06V0z M158.57,6.83h3.07c0.49,0,0.9-0.08,1.24-0.24
		c0.34-0.16,0.62-0.38,0.83-0.67c0.22-0.29,0.38-0.63,0.48-1.02c0.1-0.39,0.15-0.82,0.15-1.29c0-0.47-0.05-0.9-0.15-1.29
		c-0.1-0.39-0.26-0.73-0.48-1.02s-0.5-0.51-0.83-0.68c-0.34-0.16-0.75-0.25-1.24-0.25h-2.27c-0.3,0-0.5,0.06-0.62,0.19
		s-0.17,0.31-0.17,0.56V6.83z"/>
	<path class="st0" d="M180.41,0v0.27h-0.06c-0.21,0-0.46,0.08-0.75,0.23c-0.29,0.15-0.56,0.39-0.81,0.69l-0.16,0.21l-2.91,3.76v4.88
		c0,0.24,0.08,0.45,0.25,0.62c0.17,0.17,0.38,0.26,0.62,0.26h0.06v0.25h-3.31v-0.25h0.06c0.24,0,0.45-0.08,0.62-0.26
		c0.17-0.17,0.25-0.38,0.25-0.62V5.61l-3.13-4.48c-0.15-0.21-0.33-0.41-0.53-0.59c-0.21-0.18-0.43-0.27-0.68-0.27h-0.03h-0.06V0
		h2.24h1.1v0.27h-0.06c-0.21,0-0.35,0.06-0.42,0.19c-0.07,0.13-0.04,0.3,0.09,0.51l2.7,3.86l2.66-3.43c0.15-0.19,0.22-0.36,0.22-0.5
		c0-0.14-0.04-0.26-0.12-0.35s-0.19-0.16-0.33-0.21c-0.14-0.05-0.27-0.07-0.38-0.07h-0.06V0H180.41z"/>
</g>
</svg>
