<?xml version="1.0" encoding="utf-8"?>
<!-- Generator: Adobe Illustrator 26.0.3, SVG Export Plug-In . SVG Version: 6.00 Build 0)  -->
<svg version="1.1" id="레이어_1" xmlns="http://www.w3.org/2000/svg" xmlns:xlink="http://www.w3.org/1999/xlink" x="0px"
	 y="0px" viewBox="0 0 133.22 11.18" style="enable-background:new 0 0 133.22 11.18;" xml:space="preserve">
<style type="text/css">
	.st0{fill:#464646;}
</style>
<g>
	<path class="st0" d="M2.62,0.52C2.46,0.68,2.37,0.89,2.37,1.13v8.91c0,0.24,0.08,0.45,0.25,0.62c0.17,0.17,0.38,0.26,0.62,0.26
		h0.06v0.25H0v-0.25h0.06c0.24,0,0.45-0.08,0.62-0.26c0.17-0.17,0.25-0.38,0.25-0.62V1.13c0-0.24-0.08-0.45-0.25-0.61
		C0.51,0.35,0.31,0.27,0.06,0.27H0V0h3.31v0.27H3.25C3,0.27,2.79,0.35,2.62,0.52z"/>
	<path class="st0" d="M9.75,0h2.21l6.28,9.45V1.4c0-0.23-0.04-0.42-0.13-0.57c-0.08-0.14-0.19-0.26-0.32-0.34
		c-0.13-0.08-0.26-0.14-0.41-0.18c-0.14-0.03-0.27-0.05-0.39-0.05h-0.06V0h2.94v0.27h-0.06c-0.12,0-0.25,0.02-0.39,0.05
		s-0.27,0.09-0.39,0.18s-0.21,0.2-0.29,0.34c-0.08,0.14-0.12,0.33-0.12,0.57v8.62l0.16,0.24c0.14,0.18,0.28,0.33,0.44,0.46
		c0.15,0.13,0.35,0.19,0.6,0.19h0.06v0.25h-2.21l-6.3-9.45v8.06c0,0.23,0.04,0.42,0.13,0.57c0.08,0.14,0.19,0.26,0.32,0.34
		c0.13,0.08,0.26,0.14,0.41,0.18c0.14,0.03,0.27,0.05,0.39,0.05h0.06v0.25H9.75v-0.25h0.06c0.12,0,0.24-0.02,0.38-0.05
		c0.14-0.03,0.27-0.09,0.38-0.18s0.21-0.2,0.29-0.34c0.08-0.14,0.12-0.33,0.12-0.57V1.15l-0.16-0.24c-0.12-0.17-0.28-0.3-0.48-0.4
		c-0.2-0.1-0.4-0.15-0.6-0.18V0z"/>
	<path class="st0" d="M27.7,2.37c0,0.38,0.11,0.7,0.33,0.95c0.22,0.25,0.52,0.46,0.88,0.64c0.37,0.18,0.78,0.33,1.24,0.45
		s0.93,0.26,1.42,0.39c0.48,0.13,0.95,0.28,1.4,0.45c0.45,0.16,0.85,0.37,1.2,0.62c0.35,0.25,0.62,0.56,0.82,0.92
		c0.2,0.37,0.28,0.81,0.25,1.35c-0.02,0.41-0.15,0.8-0.37,1.17c-0.23,0.37-0.55,0.69-0.97,0.96c-0.42,0.28-0.93,0.49-1.54,0.65
		s-1.29,0.24-2.07,0.24c-0.53,0-1.03-0.06-1.51-0.18c-0.48-0.12-0.91-0.29-1.29-0.49s-0.71-0.45-0.98-0.73
		c-0.27-0.28-0.47-0.59-0.6-0.92c-0.02-0.06-0.02-0.12,0.01-0.16c0.03-0.04,0.06-0.07,0.1-0.09c0.04-0.02,0.09-0.02,0.14,0
		c0.05,0.02,0.08,0.05,0.1,0.09c0.11,0.3,0.29,0.57,0.56,0.83c0.26,0.25,0.58,0.48,0.94,0.67c0.36,0.19,0.76,0.34,1.2,0.45
		c0.44,0.11,0.89,0.16,1.36,0.16c0.65,0,1.2-0.07,1.66-0.2s0.84-0.32,1.14-0.55c0.3-0.23,0.51-0.51,0.63-0.82
		c0.12-0.31,0.16-0.65,0.12-1.01c-0.04-0.38-0.19-0.7-0.43-0.94c-0.24-0.24-0.55-0.45-0.92-0.62c-0.37-0.17-0.77-0.32-1.22-0.44
		c-0.45-0.12-0.91-0.25-1.38-0.37s-0.92-0.27-1.35-0.43c-0.44-0.16-0.82-0.36-1.15-0.61c-0.33-0.24-0.6-0.54-0.8-0.9
		c-0.2-0.36-0.28-0.8-0.26-1.33c0.01-0.33,0.11-0.65,0.3-0.95s0.46-0.57,0.82-0.81c0.35-0.24,0.8-0.43,1.32-0.57
		c0.52-0.14,1.13-0.22,1.82-0.23c0.41,0,0.79,0.04,1.13,0.11s0.64,0.17,0.91,0.29c0.27,0.12,0.49,0.26,0.68,0.41
		s0.34,0.31,0.45,0.45c0.03,0,0.06-0.03,0.09-0.09c0.03-0.06,0.05-0.13,0.07-0.21C33.97,0.9,33.99,0.82,34,0.73s0.02-0.17,0.02-0.23
		V0.45h0.25v2.9h-0.25V3.28c0-0.48-0.09-0.9-0.27-1.27c-0.18-0.37-0.42-0.67-0.73-0.91s-0.66-0.42-1.06-0.54
		c-0.4-0.12-0.82-0.18-1.27-0.18c-0.42,0-0.82,0.05-1.19,0.14c-0.37,0.09-0.68,0.22-0.95,0.39s-0.47,0.38-0.63,0.62
		S27.7,2.06,27.7,2.37z"/>
	<path class="st0" d="M51.02,0v1.88h-0.27V1.82c0-0.12-0.02-0.26-0.05-0.42c-0.03-0.16-0.09-0.32-0.18-0.47s-0.2-0.28-0.34-0.38
		c-0.14-0.11-0.33-0.16-0.56-0.16h-0.73h-1.22c-0.31,0-0.52,0.06-0.64,0.19c-0.12,0.13-0.18,0.31-0.18,0.56v8.91
		c0,0.24,0.08,0.45,0.25,0.62c0.16,0.17,0.37,0.26,0.61,0.26h0.05h0.02v0.25h-0.02h-3.29h-0.02v-0.25h0.02h0.05
		c0.24,0,0.45-0.08,0.61-0.26c0.16-0.17,0.25-0.38,0.25-0.62V1.13c0-0.24-0.06-0.43-0.18-0.56s-0.34-0.19-0.64-0.19h-1.24h-0.72
		c-0.23,0-0.42,0.05-0.56,0.16c-0.14,0.11-0.26,0.23-0.34,0.38s-0.14,0.31-0.17,0.47c-0.03,0.17-0.05,0.31-0.05,0.42v0.06h-0.27V0
		h2.12h2.8h2.8H51.02z"/>
	<path class="st0" d="M65.55,10.77c0.05,0.03,0.13,0.07,0.24,0.1c0.11,0.04,0.2,0.07,0.27,0.09v0.22h-0.35h-0.53h-2.43v-0.27h0.06
		c0.23,0,0.41-0.07,0.54-0.22c0.13-0.15,0.15-0.32,0.08-0.51l-0.02-0.06l-1.08-2.5h-4.49l-0.92,2.21c-0.08,0.21-0.12,0.39-0.1,0.53
		c0.02,0.14,0.08,0.25,0.17,0.33c0.1,0.08,0.22,0.14,0.37,0.18c0.15,0.04,0.32,0.06,0.5,0.06h0.06v0.27h-1.59h-0.41h-0.91v-0.27
		h0.06c0.3,0,0.56-0.08,0.8-0.26c0.24-0.17,0.45-0.46,0.63-0.86l0.8-1.93l0.27-0.64l3.02-7.22l4.33,10.02
		c0.05,0.12,0.13,0.24,0.22,0.37c0.1,0.13,0.2,0.24,0.32,0.33L65.55,10.77z M62.16,7.23l-2.1-4.89L58,7.23H62.16z"/>
	<path class="st0" d="M80.31,11.17h-1.43V9.5c-0.17,0.32-0.39,0.6-0.67,0.84c-0.24,0.21-0.56,0.4-0.95,0.57
		c-0.39,0.17-0.87,0.25-1.44,0.25h-0.03c-0.56,0-1.1-0.08-1.61-0.25c-0.51-0.16-0.98-0.41-1.4-0.73c-0.42-0.32-0.79-0.71-1.11-1.16
		c-0.32-0.46-0.56-0.97-0.73-1.55V7.44c-0.02-0.07-0.04-0.15-0.06-0.21c-0.02-0.07-0.03-0.15-0.06-0.23
		c-0.02-0.12-0.04-0.23-0.06-0.34c-0.02-0.11-0.03-0.21-0.04-0.29c-0.01-0.11-0.02-0.21-0.03-0.3c-0.01-0.07-0.02-0.15-0.02-0.21
		c0-0.07,0-0.14,0-0.22V5.54c0-0.86,0.13-1.63,0.4-2.32c0.26-0.69,0.62-1.27,1.07-1.74c0.45-0.48,0.98-0.84,1.6-1.1S75.03,0,75.73,0
		h0.03c0.83,0.01,1.56,0.19,2.21,0.54c0.65,0.35,1.18,0.84,1.59,1.48c0.06,0,0.11-0.03,0.14-0.1c0.03-0.06,0.06-0.14,0.08-0.24
		c0.02-0.1,0.03-0.19,0.04-0.29c0.01-0.1,0.01-0.18,0.01-0.24V1.1h0.27v3.36h-0.27V4.4c0-0.31-0.04-0.65-0.13-1.03
		c-0.08-0.38-0.21-0.69-0.37-0.93c-0.38-0.66-0.88-1.16-1.5-1.51c-0.62-0.35-1.32-0.53-2.1-0.54h-0.03c-0.86,0-1.55,0.23-2.07,0.7
		c-0.52,0.47-0.91,1.09-1.16,1.86c-0.15,0.37-0.25,0.77-0.3,1.2c-0.05,0.43-0.08,0.83-0.08,1.2c0,0.47,0.02,0.83,0.05,1.1
		c0.02,0.16,0.04,0.3,0.06,0.43c0.07,0.57,0.21,1.1,0.4,1.58c0.19,0.48,0.44,0.89,0.74,1.23c0.3,0.35,0.66,0.61,1.07,0.8
		c0.41,0.19,0.87,0.29,1.39,0.29c0.62,0,1.12-0.11,1.51-0.33c0.39-0.22,0.71-0.46,0.94-0.73c0.28-0.31,0.48-0.66,0.62-1.05V6.72
		c0-0.21-0.07-0.39-0.2-0.53c-0.13-0.14-0.31-0.22-0.53-0.22h-0.52V5.59h3.63v0.25h-0.06c-0.24,0-0.45,0.09-0.62,0.25
		c-0.17,0.17-0.25,0.38-0.25,0.62V11.17z"/>
	<path class="st0" d="M87.17,0h0.38h0.25h2.67h2.13c0.66,0,1.24,0.09,1.76,0.28c0.51,0.19,0.95,0.44,1.3,0.76
		c0.36,0.32,0.63,0.71,0.81,1.15s0.28,0.92,0.28,1.43c0,0.84-0.24,1.57-0.72,2.19c-0.48,0.62-1.18,1.04-2.09,1.27
		c0.33,0.08,0.66,0.2,0.99,0.33c0.33,0.14,0.63,0.32,0.9,0.54c0.27,0.22,0.48,0.49,0.64,0.81c0.16,0.32,0.25,0.7,0.25,1.15v0.13
		c0,0.24,0.08,0.45,0.25,0.62c0.17,0.17,0.38,0.26,0.62,0.26h0.06v0.25h-3.31v-0.25h0.06c0.24,0,0.45-0.08,0.62-0.26
		c0.17-0.17,0.25-0.38,0.25-0.62V9.72c0-0.55-0.11-0.99-0.33-1.32c-0.22-0.33-0.48-0.58-0.78-0.76c-0.3-0.18-0.6-0.29-0.91-0.34
		c-0.31-0.05-0.55-0.08-0.72-0.08h-3.02v2.82c0,0.24,0.08,0.45,0.25,0.62c0.17,0.17,0.38,0.26,0.62,0.26h0.06v0.25h-3.31v-0.25h0.06
		c0.24,0,0.45-0.08,0.62-0.26c0.17-0.17,0.25-0.38,0.25-0.62V1.13V1.1c-0.01-0.14-0.05-0.25-0.11-0.35
		c-0.06-0.1-0.14-0.17-0.24-0.23c-0.1-0.06-0.2-0.1-0.3-0.13s-0.2-0.05-0.29-0.06V0z M89.54,6.84h3.07c0.49,0,0.9-0.08,1.24-0.24
		c0.34-0.16,0.62-0.38,0.83-0.67c0.22-0.29,0.38-0.63,0.48-1.02c0.1-0.39,0.15-0.82,0.15-1.29c0-0.47-0.05-0.9-0.15-1.29
		c-0.1-0.39-0.26-0.73-0.48-1.02s-0.5-0.51-0.83-0.68c-0.34-0.16-0.75-0.25-1.24-0.25h-2.27c-0.3,0-0.5,0.06-0.62,0.19
		s-0.17,0.31-0.17,0.56V6.84z"/>
	<path class="st0" d="M114.63,10.77c0.05,0.03,0.13,0.07,0.24,0.1c0.11,0.04,0.2,0.07,0.27,0.09v0.22h-0.35h-0.53h-2.43v-0.27h0.06
		c0.23,0,0.41-0.07,0.54-0.22c0.13-0.15,0.15-0.32,0.08-0.51l-0.02-0.06l-1.08-2.5h-4.49L106,9.83c-0.08,0.21-0.12,0.39-0.1,0.53
		c0.02,0.14,0.08,0.25,0.17,0.33c0.1,0.08,0.22,0.14,0.37,0.18c0.15,0.04,0.32,0.06,0.5,0.06h0.06v0.27h-1.59h-0.41h-0.91v-0.27
		h0.06c0.3,0,0.56-0.08,0.8-0.26c0.24-0.17,0.45-0.46,0.63-0.86l0.8-1.93l0.27-0.64l3.02-7.22l4.33,10.02
		c0.05,0.12,0.13,0.24,0.22,0.37c0.1,0.13,0.2,0.24,0.32,0.33L114.63,10.77z M111.24,7.23l-2.1-4.89l-2.05,4.89H111.24z"/>
	<path class="st0" d="M132.56,0.53c-0.17,0.17-0.25,0.38-0.25,0.62v8.89c0,0.24,0.08,0.45,0.25,0.62c0.17,0.17,0.38,0.26,0.62,0.26
		h0.05v0.25h-3.31v-0.25h0.06c0.24,0,0.45-0.08,0.62-0.26c0.17-0.17,0.25-0.38,0.25-0.62V2.01l-3.83,9.16l-3.82-8.83v7.44
		c0,0.23,0.04,0.42,0.13,0.57c0.08,0.14,0.19,0.26,0.32,0.34c0.13,0.08,0.26,0.14,0.41,0.18c0.14,0.03,0.27,0.05,0.39,0.05h0.06
		v0.25h-2.93v-0.25h0.06c0.12,0,0.24-0.02,0.38-0.05c0.14-0.03,0.27-0.09,0.38-0.18s0.21-0.2,0.29-0.34
		c0.08-0.14,0.12-0.33,0.12-0.57V1.47l-0.13-0.32c-0.06-0.15-0.16-0.3-0.28-0.45c-0.12-0.15-0.26-0.27-0.42-0.35
		c-0.05-0.02-0.11-0.04-0.17-0.05c-0.06-0.01-0.12-0.02-0.18-0.02h-0.06V0h2.23l3.77,8.84l3.13-7.49l0.14-0.33
		c-0.03-0.21-0.13-0.39-0.29-0.53c-0.16-0.14-0.36-0.21-0.58-0.21h-0.06V0h3.31v0.27h-0.05C132.93,0.27,132.73,0.36,132.56,0.53z"/>
</g>
</svg>
