<?xml version="1.0" encoding="utf-8"?>
<!-- Generator: Adobe Illustrator 26.0.3, SVG Export Plug-In . SVG Version: 6.00 Build 0)  -->
<svg version="1.1" id="레이어_1" xmlns="http://www.w3.org/2000/svg" xmlns:xlink="http://www.w3.org/1999/xlink" x="0px"
	 y="0px" viewBox="0 0 126.33 13.87" style="enable-background:new 0 0 126.33 13.87;" xml:space="preserve">
<style type="text/css">
	.st0{fill:#040000;}
</style>
<g>
	<g>
		<path id="SVGID_1_" class="st0" d="M1.5,10.52c0,0.98-0.36,1.67-1.1,2.06c-0.12,0.07-0.21,0.14-0.25,0.19
			c-0.04,0.06-0.06,0.14-0.06,0.24c0,0.33,0.25,0.5,0.74,0.5h2.48c0.49,0,0.74-0.17,0.74-0.51c0-0.18-0.12-0.35-0.37-0.5l-0.37-0.24
			c-0.25-0.15-0.44-0.36-0.58-0.65c-0.07-0.16-0.13-0.3-0.15-0.44c-0.03-0.13-0.03-0.35-0.03-0.66V7.54L1.5,4.56V10.52z M0.71,0.01
			c-0.23,0-0.41,0.05-0.53,0.14C0.06,0.25,0,0.38,0,0.55c0,0.32,0.21,0.52,0.64,0.61C0.85,1.21,1,1.27,1.09,1.36
			C1.23,1.49,1.37,1.75,1.5,2.13l3.84,11.39h0.52l2.29-7.67V2.56L7.29,5.55L5.34,0.01H0.71z M13.37,0.01H8.98v11.62
			c0,0.26-0.05,0.45-0.15,0.57c-0.05,0.06-0.09,0.09-0.14,0.11c-0.05,0.02-0.2,0.06-0.45,0.12c-0.32,0.07-0.48,0.25-0.48,0.54
			c0,0.18,0.07,0.31,0.22,0.4c0.15,0.09,0.36,0.13,0.66,0.13h0.32h4.41h0.27c0.49,0,0.74-0.17,0.74-0.52c0-0.27-0.13-0.45-0.4-0.53
			c-0.22-0.07-0.34-0.12-0.38-0.13c-0.04-0.02-0.07-0.05-0.11-0.11c-0.08-0.1-0.12-0.27-0.12-0.5v-9.9c0-0.23,0.04-0.4,0.12-0.5
			c0.04-0.06,0.08-0.1,0.11-0.11c0.04-0.02,0.16-0.06,0.38-0.14c0.26-0.08,0.4-0.26,0.4-0.53c0-0.35-0.25-0.52-0.74-0.52
			C13.64,0.01,13.37,0.01,13.37,0.01z"/>
	</g>
	<g>
		<defs>
			<path id="SVGID_00000016052979278051937500000013778928317081628316_" d="M6.28,13.52c0.74,0.64,1.02,1.37,0.83,2.18
				c-0.03,0.14-0.03,0.25-0.02,0.31c0.02,0.07,0.07,0.14,0.14,0.2c0.25,0.22,0.54,0.14,0.86-0.23l1.63-1.87
				c0.32-0.37,0.36-0.67,0.1-0.89c-0.14-0.12-0.34-0.14-0.62-0.05L8.78,13.3c-0.28,0.09-0.56,0.09-0.87,0.01
				c-0.17-0.05-0.31-0.1-0.43-0.18c-0.12-0.06-0.28-0.21-0.52-0.41l-2.24-1.95L1.79,9.6L6.28,13.52z M-2.16,7.2
				C-2.31,7.37-2.39,7.54-2.4,7.69c0,0.16,0.05,0.29,0.18,0.4c0.24,0.21,0.53,0.18,0.88-0.08c0.18-0.13,0.32-0.2,0.45-0.21
				C-0.7,7.78-0.41,7.85-0.04,8l11.1,4.6l0.34-0.39L7.14,5.44L4.66,3.28l1.69,2.61L0.89,3.71L-2.16,7.2z M6.18-2.33L3.29,0.97
				l8.75,7.65c0.2,0.17,0.31,0.33,0.33,0.49c0.01,0.08,0.01,0.13-0.01,0.18c-0.02,0.05-0.09,0.19-0.21,0.42
				c-0.16,0.29-0.13,0.53,0.09,0.72c0.14,0.12,0.28,0.15,0.45,0.1c0.17-0.05,0.33-0.19,0.53-0.41l0.21-0.24l2.9-3.32l0.18-0.2
				c0.32-0.37,0.36-0.67,0.1-0.9c-0.2-0.18-0.42-0.2-0.66-0.05c-0.2,0.12-0.31,0.18-0.35,0.2c-0.04,0.02-0.08,0.02-0.16,0.01
				c-0.13-0.01-0.28-0.09-0.46-0.24L7.53-1.15C7.36-1.3,7.26-1.44,7.23-1.57C7.21-1.64,7.21-1.69,7.22-1.72
				C7.23-1.77,7.28-1.88,7.37-2.1c0.11-0.25,0.07-0.47-0.14-0.65C6.97-2.98,6.68-2.91,6.35-2.54C6.35-2.54,6.18-2.33,6.18-2.33z"/>
		</defs>
		<clipPath id="SVGID_00000099626585478896508830000010832179579978629527_">
			<use xlink:href="#SVGID_00000016052979278051937500000013778928317081628316_"  style="overflow:visible;"/>
		</clipPath>
	</g>
</g>
<g>
	<g>
		<path id="SVGID_00000102508744371261260220000003557872521080566718_" class="st0" d="M31.76,0.01h-4.41h-0.26
			c-0.24,0-0.42,0.05-0.55,0.14s-0.19,0.21-0.19,0.38c0,0.27,0.13,0.45,0.4,0.53c0.22,0.08,0.35,0.12,0.38,0.14
			c0.04,0.02,0.08,0.05,0.12,0.11c0.08,0.1,0.11,0.27,0.11,0.5v9.9c0,0.23-0.03,0.4-0.11,0.5c-0.04,0.06-0.08,0.1-0.12,0.11
			c-0.03,0.02-0.16,0.06-0.38,0.13c-0.26,0.09-0.4,0.26-0.4,0.53c0,0.17,0.07,0.29,0.19,0.38c0.13,0.09,0.31,0.13,0.55,0.13h0.26
			h4.41h0.26c0.24,0,0.42-0.04,0.55-0.13s0.19-0.22,0.19-0.38c0-0.27-0.13-0.45-0.4-0.53c-0.22-0.07-0.34-0.12-0.38-0.13
			c-0.03-0.02-0.08-0.05-0.11-0.11c-0.08-0.1-0.12-0.27-0.12-0.5v-9.9c0-0.23,0.04-0.4,0.12-0.5c0.03-0.06,0.08-0.1,0.11-0.11
			c0.04-0.02,0.16-0.06,0.38-0.14c0.26-0.08,0.4-0.26,0.4-0.53c0-0.17-0.07-0.29-0.19-0.38c-0.13-0.09-0.31-0.14-0.55-0.14
			C32.02,0.01,31.76,0.01,31.76,0.01z"/>
	</g>
	<g>
		<defs>
			<path id="SVGID_00000058558675956977005970000006027623915672536734_" d="M25.92,0.66l-2.9,3.32l-0.17,0.2
				c-0.16,0.18-0.24,0.35-0.26,0.51s0.03,0.28,0.16,0.39c0.2,0.18,0.42,0.2,0.66,0.05c0.2-0.11,0.32-0.18,0.36-0.19
				c0.04-0.02,0.09-0.03,0.16-0.02c0.13,0.01,0.28,0.09,0.45,0.25l7.45,6.51c0.17,0.15,0.28,0.29,0.3,0.41
				c0.02,0.07,0.02,0.13,0,0.16c0,0.04-0.06,0.16-0.15,0.37c-0.1,0.26-0.07,0.47,0.14,0.65c0.13,0.11,0.26,0.14,0.41,0.11
				c0.15-0.04,0.3-0.15,0.46-0.33l0.17-0.2l2.9-3.32l0.17-0.2c0.16-0.18,0.25-0.34,0.26-0.5c0.02-0.16-0.04-0.29-0.16-0.39
				c-0.2-0.18-0.42-0.2-0.66-0.05c-0.2,0.12-0.31,0.18-0.35,0.2C35.3,8.6,35.25,8.62,35.18,8.6c-0.13-0.01-0.28-0.09-0.46-0.24
				l-7.45-6.51C27.1,1.7,27,1.56,26.98,1.43c-0.03-0.06-0.02-0.13-0.01-0.16c0.01-0.04,0.06-0.16,0.14-0.38
				c0.11-0.25,0.07-0.47-0.14-0.65c-0.13-0.11-0.26-0.14-0.41-0.11c-0.15,0.04-0.31,0.14-0.47,0.32C26.1,0.46,25.92,0.66,25.92,0.66
				z"/>
		</defs>
		<clipPath id="SVGID_00000028291960539498507150000011301682048590645411_">
			<use xlink:href="#SVGID_00000058558675956977005970000006027623915672536734_"  style="overflow:visible;"/>
		</clipPath>
	</g>
</g>
<g>
	<g>
		<path id="SVGID_00000011734114390672524450000015983427146169377410_" class="st0" d="M46.18,10.52c0,0.93-0.31,1.56-0.95,1.91
			c-0.21,0.12-0.34,0.21-0.41,0.28c-0.06,0.07-0.1,0.16-0.1,0.28c0,0.35,0.3,0.52,0.9,0.52h2.28c0.33,0,0.55-0.04,0.66-0.13
			c0.12-0.1,0.18-0.23,0.18-0.38c0-0.19-0.08-0.35-0.26-0.45l-0.3-0.16c-0.34-0.19-0.58-0.43-0.74-0.74
			c-0.15-0.29-0.23-0.68-0.23-1.14v-5.3l-1.05-1.74v7.05H46.18z M46,0.01c-0.5,0-0.8,0.02-0.91,0.07c-0.1,0.04-0.18,0.1-0.24,0.2
			c-0.05,0.09-0.08,0.2-0.08,0.31s0.03,0.2,0.08,0.29c0.06,0.08,0.14,0.14,0.24,0.17l0.37,0.15c0.15,0.04,0.26,0.12,0.36,0.21
			c0.09,0.1,0.21,0.27,0.36,0.52l6.72,11.58h2.7V9.15l-5.26-9.14C50.34,0.01,46,0.01,46,0.01z M53.81,0.01
			c-0.26,0-0.44,0.04-0.56,0.12c-0.12,0.08-0.17,0.21-0.17,0.39c0,0.12,0.03,0.21,0.08,0.29c0.05,0.08,0.15,0.15,0.29,0.21
			c0.41,0.21,0.7,0.46,0.86,0.76s0.24,0.71,0.24,1.27V5.8l1.05,1.77V3.06c0-0.47,0.06-0.83,0.19-1.1c0.18-0.37,0.44-0.64,0.79-0.82
			c0.24-0.12,0.39-0.21,0.45-0.28s0.09-0.18,0.09-0.32c0-0.15-0.05-0.27-0.17-0.37c-0.11-0.11-0.33-0.16-0.67-0.16
			C56.28,0.01,53.81,0.01,53.81,0.01z"/>
	</g>
	<g>
		<defs>
			<path id="SVGID_00000103246596277940747090000010959324026813983156_" d="M50.63,12.81c0.7,0.61,0.97,1.26,0.81,1.97
				c-0.05,0.24-0.07,0.39-0.06,0.49c0.01,0.09,0.05,0.18,0.15,0.26c0.26,0.23,0.59,0.12,0.98-0.34l1.5-1.72
				c0.22-0.25,0.33-0.44,0.34-0.58c0-0.16-0.05-0.29-0.17-0.39c-0.14-0.13-0.32-0.17-0.51-0.1l-0.32,0.12
				c-0.37,0.13-0.71,0.15-1.04,0.07c-0.32-0.08-0.66-0.27-1.01-0.58l-3.99-3.49l-2-0.35l5.31,4.64L50.63,12.81z M42.6,6.02
				c-0.33,0.38-0.51,0.62-0.55,0.73c-0.04,0.1-0.04,0.2-0.01,0.31c0.03,0.1,0.1,0.19,0.18,0.26c0.08,0.07,0.17,0.11,0.27,0.13
				c0.1,0.01,0.2-0.01,0.29-0.07l0.36-0.18c0.13-0.09,0.26-0.12,0.4-0.13c0.13,0,0.34,0.02,0.63,0.07l13.14,2.56l1.78-2.03
				L55.8,4.81L45.46,2.76C45.46,2.76,42.6,6.02,42.6,6.02z M47.74,0.14c-0.17,0.2-0.26,0.36-0.28,0.5
				c-0.02,0.14,0.05,0.27,0.18,0.38c0.09,0.08,0.18,0.12,0.27,0.13c0.09,0.02,0.21-0.01,0.35-0.08c0.43-0.17,0.81-0.22,1.14-0.15
				s0.69,0.29,1.11,0.66l2.07,1.81l2.02,0.37l-3.4-2.97c-0.35-0.31-0.59-0.59-0.7-0.87c-0.16-0.38-0.19-0.75-0.1-1.13
				c0.07-0.26,0.1-0.43,0.09-0.52C50.49-1.81,50.42-1.91,50.32-2c-0.11-0.1-0.24-0.14-0.39-0.12c-0.16,0.01-0.34,0.14-0.56,0.4
				C49.37-1.72,47.74,0.14,47.74,0.14z"/>
		</defs>
		<clipPath id="SVGID_00000173155003956566446490000002699332543191300765_">
			<use xlink:href="#SVGID_00000103246596277940747090000010959324026813983156_"  style="overflow:visible;"/>
		</clipPath>
	</g>
</g>
<g>
	<g>
		<path id="SVGID_00000178906906785070228650000014487438853783986592_" class="st0" d="M68.48,9c-0.41,0.43-0.62,0.95-0.62,1.54
			c0,0.5,0.12,0.96,0.37,1.39s0.6,0.8,1.05,1.09c0.49,0.32,1.16,0.55,1.97,0.69v-1.09c-0.2-0.04-0.35-0.08-0.45-0.12
			c-0.09-0.04-0.17-0.08-0.23-0.13c-0.06-0.05-0.09-0.09-0.09-0.13c0.01-0.03,0.07-0.08,0.19-0.14c0.37-0.16,0.64-0.36,0.83-0.6
			c0.29-0.36,0.42-0.75,0.42-1.18c0-0.54-0.19-1-0.57-1.39s-0.85-0.58-1.4-0.58C69.39,8.36,68.9,8.57,68.48,9 M77.18,0.01h-4.4
			l-0.32,0.01c-0.3,0-0.51,0.04-0.66,0.13c-0.15,0.1-0.23,0.23-0.23,0.41c0,0.28,0.16,0.47,0.48,0.55l0.39,0.1
			c0.24,0.05,0.35,0.28,0.35,0.69v9.36c0,0.34-0.04,0.61-0.12,0.83c-0.04,0.09-0.09,0.16-0.15,0.23c-0.06,0.06-0.15,0.14-0.28,0.24
			c-0.02,0.01-0.05,0.03-0.1,0.07v1.15c0.27,0.01,0.46,0.02,0.58,0.02c0.64,0,1.26-0.08,1.84-0.25c0.57-0.17,1.06-0.4,1.43-0.7
			c0.79-0.64,1.18-1.55,1.18-2.76V1.81c0-0.37,0.1-0.59,0.3-0.65l0.32-0.1c0.26-0.09,0.39-0.27,0.39-0.53
			c0-0.25-0.13-0.41-0.38-0.49L77.45,0L77.18,0.01z"/>
	</g>
	<g>
		<defs>
			<path id="SVGID_00000040560258968077828000000014448095345683253438_" d="M71.62,11.7c0.05,0.59,0.31,1.09,0.75,1.48
				c0.38,0.33,0.8,0.54,1.29,0.64s1,0.07,1.51-0.07c0.56-0.16,1.18-0.51,1.82-1.03L76.17,12c-0.16,0.12-0.29,0.21-0.39,0.26
				c-0.09,0.04-0.17,0.08-0.25,0.09c-0.08,0.01-0.13,0.01-0.16-0.02c-0.02-0.03-0.01-0.11,0.02-0.24c0.12-0.38,0.15-0.72,0.09-1.02
				c-0.08-0.46-0.29-0.81-0.61-1.09C74.47,9.63,74,9.47,73.45,9.5c-0.54,0.03-1,0.26-1.36,0.67C71.74,10.6,71.57,11.1,71.62,11.7
				 M70.57-0.76l-2.9,3.31l-0.2,0.25c-0.2,0.23-0.31,0.41-0.34,0.58c-0.02,0.18,0.02,0.32,0.16,0.44c0.21,0.18,0.46,0.19,0.73,0
				l0.33-0.23c0.2-0.15,0.44-0.08,0.75,0.19l7.05,6.16c0.26,0.22,0.43,0.43,0.55,0.64c0.04,0.09,0.06,0.17,0.07,0.26
				c0.01,0.08,0.01,0.21,0,0.37c-0.01,0.02-0.01,0.06-0.01,0.12l0.87,0.76c0.19-0.2,0.32-0.33,0.4-0.42c0.42-0.48,0.77-1,1.02-1.55
				c0.25-0.54,0.4-1.06,0.41-1.54c0.04-1.02-0.39-1.91-1.3-2.7l-6.23-5.45c-0.28-0.24-0.38-0.46-0.29-0.65l0.14-0.31
				c0.1-0.26,0.05-0.47-0.14-0.64C71.44-1.34,71.23-1.35,71-1.21l-0.26,0.24L70.57-0.76z"/>
		</defs>
		<clipPath id="SVGID_00000140713988721951460470000005815060988996648596_">
			<use xlink:href="#SVGID_00000040560258968077828000000014448095345683253438_"  style="overflow:visible;"/>
		</clipPath>
	</g>
</g>
<g>
	<g>
		<path id="SVGID_00000021832377254168213810000001938775342070421414_" class="st0" d="M95.13,0.01h-4.41h-0.25
			c-0.24,0-0.42,0.05-0.55,0.14c-0.13,0.09-0.19,0.22-0.19,0.39c0,0.26,0.13,0.44,0.39,0.52c0.22,0.08,0.35,0.12,0.38,0.14
			s0.08,0.05,0.11,0.11c0.08,0.1,0.12,0.27,0.12,0.5v7.76c0,0.88,0.11,1.55,0.34,2.02c0.21,0.43,0.57,0.83,1.07,1.18
			s1.09,0.61,1.75,0.79c0.57,0.16,1.28,0.23,2.14,0.23h0.22V12.5c-0.3-0.09-0.5-0.17-0.61-0.25c-0.1-0.07-0.2-0.19-0.29-0.36
			c-0.09-0.17-0.15-0.37-0.18-0.6c-0.03-0.22-0.04-0.61-0.04-1.17v-8.3c0-0.23,0.04-0.4,0.12-0.5c0.04-0.06,0.08-0.1,0.12-0.11
			c0.03-0.02,0.16-0.06,0.38-0.14c0.26-0.08,0.4-0.26,0.4-0.52c0-0.12-0.04-0.22-0.11-0.3c-0.07-0.09-0.16-0.15-0.28-0.18L95.4,0.03
			h-0.27V0.01z M98.82,0.01c-0.29,0-0.49,0.04-0.62,0.11c-0.12,0.07-0.19,0.2-0.19,0.37c0,0.14,0.03,0.25,0.1,0.33
			c0.06,0.08,0.19,0.17,0.4,0.27c0.69,0.36,1.04,0.99,1.04,1.89v6.44c0,0.98-0.25,1.73-0.75,2.25c-0.44,0.46-0.99,0.73-1.65,0.81
			v1.29c0.47-0.07,0.86-0.19,1.19-0.35c0.66-0.32,1.17-0.74,1.53-1.27c0.49-0.71,0.73-1.62,0.73-2.73V2.98
			c0-0.42,0.08-0.79,0.25-1.11c0.16-0.33,0.39-0.57,0.68-0.73c0.25-0.14,0.4-0.23,0.42-0.27c0.1-0.1,0.16-0.22,0.16-0.37
			c0-0.17-0.09-0.31-0.26-0.41c-0.06-0.04-0.13-0.06-0.2-0.07S101.44,0,101.24,0L98.82,0.01L98.82,0.01z"/>
	</g>
	<g>
		<defs>
			<path id="SVGID_00000097464361294904097840000011899184320721125050_" d="M90.22,2.96l-2.9,3.32l-0.16,0.19
				c-0.16,0.18-0.24,0.35-0.26,0.51c-0.02,0.16,0.04,0.29,0.17,0.4c0.2,0.17,0.42,0.19,0.65,0.05c0.2-0.11,0.32-0.18,0.36-0.19
				c0.03-0.01,0.09-0.03,0.16-0.01c0.13,0.01,0.28,0.09,0.46,0.24l5.84,5.11c0.66,0.58,1.24,0.94,1.74,1.07
				c0.46,0.12,1,0.12,1.59-0.03c0.59-0.15,1.18-0.42,1.75-0.8c0.5-0.32,1.02-0.81,1.58-1.46l0.14-0.17l-0.97-0.85
				c-0.27,0.17-0.46,0.26-0.59,0.29c-0.12,0.03-0.27,0.03-0.46-0.02c-0.19-0.04-0.38-0.13-0.57-0.26c-0.19-0.12-0.49-0.37-0.91-0.74
				l-6.25-5.46C91.41,4,91.3,3.85,91.28,3.73c-0.02-0.07-0.02-0.13,0-0.16c0-0.04,0.06-0.16,0.14-0.38
				c0.11-0.25,0.07-0.47-0.13-0.64C91.2,2.46,91.1,2.43,91,2.43c-0.11-0.01-0.22,0.02-0.32,0.09l-0.27,0.24l-0.18,0.2L90.22,2.96z
				 M92.64,0.18c-0.19,0.22-0.29,0.4-0.33,0.54c-0.03,0.14,0.03,0.27,0.15,0.39c0.11,0.09,0.21,0.14,0.31,0.14
				c0.1,0.01,0.25-0.03,0.47-0.12c0.73-0.28,1.43-0.13,2.11,0.46l4.85,4.24c0.74,0.64,1.14,1.33,1.2,2.05
				c0.06,0.63-0.1,1.23-0.48,1.78l0.97,0.85c0.26-0.4,0.42-0.77,0.52-1.13c0.19-0.71,0.21-1.37,0.05-1.99
				c-0.21-0.84-0.74-1.62-1.58-2.35l-4.85-4.24c-0.32-0.28-0.54-0.58-0.67-0.92c-0.14-0.34-0.17-0.67-0.1-0.99
				c0.06-0.28,0.09-0.45,0.07-0.49c-0.01-0.14-0.06-0.27-0.17-0.36c-0.13-0.11-0.29-0.14-0.48-0.07c-0.07,0.02-0.13,0.06-0.18,0.1
				c-0.05,0.05-0.15,0.14-0.28,0.3L92.64,0.18L92.64,0.18z"/>
		</defs>
		<clipPath id="SVGID_00000067230934499691007020000014487378426448011182_">
			<use xlink:href="#SVGID_00000097464361294904097840000011899184320721125050_"  style="overflow:visible;"/>
		</clipPath>
	</g>
</g>
<g>
	<g>
		<path id="SVGID_00000152262697769864037540000008497785162109986453_" class="st0" d="M115.4,10.52c0,0.93-0.32,1.56-0.95,1.91
			c-0.21,0.12-0.35,0.21-0.41,0.28c-0.06,0.07-0.09,0.16-0.09,0.28c0,0.35,0.3,0.52,0.9,0.52h2.28c0.33,0,0.55-0.04,0.65-0.13
			c0.12-0.1,0.19-0.23,0.19-0.38c0-0.19-0.09-0.35-0.26-0.45l-0.29-0.16c-0.34-0.19-0.59-0.43-0.74-0.74
			c-0.15-0.29-0.23-0.68-0.23-1.14v-5.3l-1.04-1.74v7.05H115.4z M115.21,0.01c-0.5,0-0.8,0.02-0.91,0.07
			c-0.1,0.04-0.18,0.1-0.23,0.2c-0.06,0.09-0.1,0.2-0.1,0.31s0.03,0.2,0.1,0.29c0.06,0.08,0.14,0.14,0.23,0.17l0.38,0.15
			c0.14,0.04,0.26,0.12,0.36,0.21c0.09,0.1,0.21,0.27,0.35,0.52l6.71,11.58h2.7V9.15l-5.26-9.14
			C119.54,0.01,115.21,0.01,115.21,0.01z M123.03,0.01c-0.26,0-0.45,0.04-0.56,0.12s-0.17,0.21-0.17,0.39
			c0,0.12,0.02,0.21,0.08,0.29c0.05,0.08,0.15,0.15,0.29,0.21c0.41,0.21,0.7,0.46,0.86,0.76s0.24,0.71,0.24,1.27V5.8l1.05,1.77V3.06
			c0-0.47,0.06-0.83,0.19-1.1c0.18-0.37,0.44-0.64,0.79-0.82c0.24-0.12,0.39-0.21,0.45-0.28s0.1-0.18,0.1-0.32
			c0-0.15-0.06-0.27-0.17-0.37c-0.1-0.11-0.33-0.16-0.66-0.16C125.52,0.01,123.03,0.01,123.03,0.01z"/>
	</g>
	<g>
		<defs>
			<path id="SVGID_00000176039096242483759790000015441985994507338143_" d="M119.85,12.8c0.7,0.61,0.96,1.27,0.81,1.97
				c-0.05,0.24-0.07,0.4-0.06,0.49c0.01,0.09,0.06,0.17,0.15,0.25c0.26,0.23,0.59,0.12,0.98-0.34l1.5-1.72
				c0.22-0.25,0.33-0.44,0.33-0.57c0-0.16-0.05-0.29-0.16-0.39c-0.14-0.13-0.32-0.16-0.51-0.1l-0.31,0.11
				c-0.37,0.13-0.71,0.16-1.04,0.07c-0.32-0.08-0.66-0.27-1.01-0.58l-3.99-3.49l-1.99-0.36L119.85,12.8L119.85,12.8z M111.82,6.02
				c-0.33,0.38-0.51,0.62-0.55,0.73c-0.04,0.1-0.04,0.2,0,0.3c0.03,0.1,0.08,0.21,0.17,0.28c0.08,0.07,0.17,0.11,0.28,0.12
				c0.1,0.01,0.2-0.01,0.28-0.06l0.36-0.19c0.12-0.08,0.26-0.12,0.4-0.13c0.13,0,0.34,0.02,0.62,0.08l13.14,2.57l1.78-2.03
				l-3.28-2.87l-10.34-2.06C114.67,2.76,111.82,6.02,111.82,6.02z M116.96,0.13c-0.17,0.2-0.27,0.37-0.28,0.5s0.05,0.27,0.18,0.38
				c0.09,0.08,0.17,0.12,0.27,0.13c0.09,0.02,0.21-0.01,0.35-0.08c0.43-0.17,0.81-0.22,1.14-0.15s0.69,0.29,1.11,0.66l2.07,1.81
				l2.02,0.37l-3.4-2.97c-0.35-0.31-0.59-0.59-0.7-0.87c-0.16-0.38-0.19-0.75-0.1-1.13c0.07-0.26,0.1-0.43,0.09-0.52
				c-0.01-0.09-0.07-0.19-0.18-0.29c-0.11-0.1-0.24-0.13-0.39-0.12c-0.15,0-0.34,0.14-0.55,0.39C118.6-1.74,116.96,0.13,116.96,0.13
				z"/>
		</defs>
		<clipPath id="SVGID_00000062885110527171191610000010276805557113739701_">
			<use xlink:href="#SVGID_00000176039096242483759790000015441985994507338143_"  style="overflow:visible;"/>
		</clipPath>
	</g>
</g>
</svg>
