<?xml version="1.0" encoding="utf-8"?>
<!-- Generator: Adobe Illustrator 26.0.3, SVG Export Plug-In . SVG Version: 6.00 Build 0)  -->
<svg version="1.1" id="레이어_1" xmlns="http://www.w3.org/2000/svg" xmlns:xlink="http://www.w3.org/1999/xlink" x="0px"
	 y="0px" viewBox="0 0 120.91 83.73" style="enable-background:new 0 0 120.91 83.73;" xml:space="preserve">
<style type="text/css">
	.st0{fill:#595757;}
</style>
<g>
	<g>
		<path class="st0" d="M54.83,13.58h0.41h0.28h2.89h2.31c0.71,0,1.34,0.1,1.9,0.3c0.56,0.2,1.03,0.48,1.41,0.83
			c0.38,0.35,0.68,0.76,0.88,1.24c0.2,0.48,0.3,0.99,0.3,1.54c0,0.91-0.26,1.7-0.78,2.37c-0.52,0.67-1.28,1.13-2.26,1.37
			c0.36,0.09,0.71,0.21,1.08,0.36c0.36,0.15,0.69,0.34,0.97,0.58c0.29,0.24,0.52,0.54,0.7,0.88c0.18,0.35,0.27,0.76,0.27,1.24v0.14
			c0,0.27,0.09,0.49,0.28,0.67c0.18,0.18,0.41,0.28,0.67,0.28h0.07v0.28h-3.58v-0.28h0.07c0.26,0,0.49-0.09,0.67-0.28
			c0.19-0.18,0.28-0.41,0.28-0.67v-0.34c0-0.6-0.12-1.07-0.36-1.43c-0.24-0.36-0.52-0.63-0.84-0.82c-0.32-0.19-0.65-0.31-0.98-0.37
			c-0.33-0.06-0.59-0.09-0.77-0.09h-3.26v3.04c0,0.27,0.09,0.49,0.28,0.67c0.18,0.18,0.41,0.28,0.67,0.28h0.07v0.28h-3.6v-0.28h0.07
			c0.26,0,0.49-0.09,0.67-0.28c0.18-0.18,0.28-0.41,0.28-0.67V14.8v-0.03c-0.01-0.15-0.05-0.28-0.12-0.38
			c-0.07-0.1-0.15-0.19-0.26-0.25c-0.1-0.06-0.21-0.11-0.33-0.14c-0.12-0.03-0.22-0.05-0.31-0.06V13.58z M57.42,20.96h3.31
			c0.53,0,0.97-0.09,1.34-0.26c0.37-0.17,0.67-0.41,0.9-0.72c0.23-0.31,0.41-0.68,0.52-1.1c0.11-0.42,0.16-0.89,0.16-1.39
			c0-0.5-0.05-0.97-0.16-1.39c-0.11-0.42-0.28-0.79-0.52-1.1c-0.23-0.31-0.53-0.55-0.9-0.73c-0.37-0.18-0.81-0.27-1.34-0.27h-2.46
			c-0.32,0-0.54,0.07-0.67,0.21c-0.13,0.14-0.19,0.34-0.19,0.6V20.96z"/>
	</g>
</g>
<g>
	<path class="st0" d="M70.4,52.13H50.63l-5.71-5.71V5.71L50.63,0H70.4l5.71,5.71v40.71L70.4,52.13z M51.1,50.98h18.82l5.04-5.04
		V6.19l-5.04-5.04H51.1l-5.04,5.04v39.76L51.1,50.98z"/>
	<path class="st0" d="M69.38,49.34H51.64l-3.79-3.79V6.58l3.79-3.79h17.74l3.79,3.79v38.96L69.38,49.34z M51.9,48.7h17.22l3.42-3.42
		V6.84l-3.42-3.42H51.9l-3.42,3.42v38.44L51.9,48.7z"/>
	<g>
		<g>
			<polygon class="st0" points="51.68,3.23 50.76,0.65 51.03,0.55 51.94,3.13 			"/>
			
				<rect x="46.68" y="4.91" transform="matrix(0.2775 -0.9607 0.9607 0.2775 27.7168 49.5763)" class="st0" width="0.28" height="2.89"/>
		</g>
		<g>
			
				<rect x="68.44" y="1.75" transform="matrix(0.3339 -0.9426 0.9426 0.3339 44.7195 67.0628)" class="st0" width="2.74" height="0.28"/>
			<polygon class="st0" points="73,6.9 75.78,6.1 75.7,5.82 72.92,6.63 			"/>
		</g>
		<g>
			<polygon class="st0" points="69.49,48.94 70.4,51.52 70.13,51.62 69.22,49.04 			"/>
			<polygon class="st0" points="73,45.27 75.78,46.07 75.7,46.34 72.92,45.54 			"/>
		</g>
		<g>
			<polygon class="st0" points="51.68,48.94 50.76,51.52 51.03,51.62 51.94,49.04 			"/>
			<polygon class="st0" points="48.17,45.27 45.39,46.07 45.47,46.34 48.25,45.54 			"/>
		</g>
	</g>
</g>
<path class="st0" d="M65.87,27.99v2.04h-0.29v-0.07c0-0.13-0.02-0.28-0.05-0.46c-0.04-0.18-0.1-0.35-0.19-0.51
	c-0.09-0.16-0.22-0.3-0.37-0.42c-0.16-0.12-0.36-0.17-0.62-0.17h-0.8h-1.33c-0.33,0-0.57,0.07-0.7,0.21
	c-0.13,0.14-0.2,0.34-0.2,0.61v9.67c0,0.27,0.09,0.49,0.27,0.68c0.18,0.18,0.4,0.28,0.66,0.28h0.05h0.02v0.28H62.3h-3.58H58.7v-0.28
	h0.02h0.05c0.27,0,0.49-0.09,0.67-0.28c0.18-0.18,0.27-0.41,0.27-0.68v-9.67c0-0.27-0.07-0.47-0.2-0.61s-0.37-0.21-0.7-0.21h-1.35
	h-0.78c-0.25,0-0.46,0.06-0.61,0.17c-0.16,0.12-0.28,0.25-0.37,0.42c-0.09,0.16-0.16,0.33-0.19,0.51c-0.03,0.18-0.05,0.33-0.05,0.46
	v0.07h-0.29v-2.04h2.3h3.04h3.04H65.87z"/>
<g>
	<path class="st0" d="M19.43,82.97c0.1,0.06,0.25,0.12,0.44,0.19c0.2,0.07,0.36,0.12,0.5,0.16v0.41h-0.65h-0.97h-4.5v-0.5h0.12
		c0.43,0,0.76-0.14,1-0.41c0.24-0.27,0.28-0.59,0.15-0.94l-0.03-0.12l-2-4.62H5.2L3.5,81.23c-0.16,0.39-0.22,0.72-0.18,0.97
		c0.04,0.26,0.15,0.46,0.32,0.6c0.18,0.15,0.41,0.25,0.69,0.32c0.28,0.07,0.59,0.1,0.93,0.1h0.12v0.5H2.44H1.68H0v-0.5h0.12
		c0.55,0,1.04-0.16,1.49-0.47c0.44-0.31,0.83-0.84,1.16-1.59l1.47-3.56l0.5-1.18l5.59-13.32l8,18.49c0.1,0.22,0.24,0.45,0.41,0.69
		c0.18,0.25,0.37,0.45,0.59,0.6L19.43,82.97z M13.17,76.44l-3.88-9.02L5.5,76.44H13.17z"/>
	<path class="st0" d="M29.92,63.09h0.71h0.47h4.94h3.94c1.21,0,2.3,0.17,3.25,0.51c0.95,0.34,1.75,0.81,2.41,1.41
		c0.66,0.6,1.16,1.3,1.5,2.12c0.34,0.81,0.51,1.69,0.51,2.63c0,1.55-0.45,2.89-1.34,4.04c-0.89,1.15-2.18,1.93-3.87,2.34
		c0.61,0.16,1.22,0.36,1.84,0.62c0.62,0.25,1.17,0.59,1.66,1c0.49,0.41,0.89,0.91,1.19,1.5c0.3,0.59,0.46,1.29,0.46,2.12v0.23
		c0,0.45,0.16,0.83,0.47,1.15c0.31,0.31,0.7,0.47,1.15,0.47h0.12v0.47h-6.11v-0.47h0.12c0.45,0,0.83-0.16,1.15-0.47
		c0.31-0.31,0.47-0.7,0.47-1.15v-0.59c0-1.02-0.21-1.83-0.62-2.44c-0.41-0.61-0.89-1.07-1.44-1.4c-0.55-0.32-1.1-0.53-1.67-0.63
		c-0.57-0.1-1.01-0.15-1.32-0.15h-5.57v5.2c0,0.45,0.16,0.83,0.47,1.15c0.31,0.31,0.7,0.47,1.15,0.47h0.12v0.47h-6.14v-0.47h0.12
		c0.45,0,0.83-0.16,1.15-0.47c0.31-0.31,0.47-0.7,0.47-1.15V65.18v-0.06c-0.02-0.25-0.09-0.47-0.21-0.65
		c-0.12-0.18-0.26-0.32-0.44-0.43c-0.18-0.11-0.36-0.19-0.56-0.23c-0.2-0.05-0.37-0.08-0.53-0.1V63.09z M34.33,75.7h5.66
		c0.9,0,1.66-0.15,2.29-0.44c0.63-0.29,1.14-0.71,1.54-1.23c0.4-0.53,0.69-1.16,0.88-1.88s0.28-1.52,0.28-2.38
		c0-0.86-0.09-1.66-0.28-2.38c-0.19-0.72-0.48-1.35-0.88-1.88c-0.4-0.53-0.91-0.95-1.54-1.25c-0.62-0.3-1.39-0.46-2.29-0.46H35.8
		c-0.55,0-0.93,0.12-1.14,0.35c-0.21,0.23-0.32,0.58-0.32,1.03V75.7z"/>
	<path class="st0" d="M77.08,63.09v3.47h-0.5v-0.12c0-0.22-0.03-0.47-0.09-0.78c-0.06-0.3-0.17-0.59-0.32-0.87
		c-0.16-0.27-0.37-0.51-0.63-0.71c-0.26-0.2-0.61-0.29-1.04-0.29h-1.35h-2.26c-0.57,0-0.97,0.12-1.19,0.35
		c-0.22,0.23-0.34,0.58-0.34,1.03v16.43c0,0.45,0.15,0.83,0.46,1.15c0.3,0.31,0.68,0.47,1.13,0.47h0.09h0.03v0.47h-0.03h-6.08h-0.03
		v-0.47h0.03h0.09c0.45,0,0.83-0.16,1.13-0.47c0.3-0.31,0.46-0.7,0.46-1.15V65.18c0-0.45-0.11-0.79-0.34-1.03
		c-0.23-0.24-0.62-0.35-1.19-0.35h-2.29h-1.32c-0.43,0-0.78,0.1-1.04,0.29c-0.26,0.2-0.47,0.43-0.63,0.71
		c-0.16,0.28-0.26,0.56-0.32,0.87c-0.06,0.3-0.09,0.56-0.09,0.78v0.12h-0.5v-3.47h3.91h5.17h5.17H77.08z"/>
	<path class="st0" d="M91.51,64.05c-0.31,0.3-0.47,0.68-0.47,1.13v13.08v3.35c0,0.45,0.16,0.83,0.47,1.15
		c0.31,0.31,0.7,0.47,1.15,0.47h0.12v0.47h-6.14v-0.47h0.12c0.45,0,0.83-0.16,1.15-0.47c0.31-0.31,0.47-0.7,0.47-1.15V68.53v-3.35
		c0-0.45-0.16-0.83-0.47-1.13c-0.31-0.3-0.7-0.46-1.15-0.46h-0.12v-0.5h6.14v0.5h-0.12C92.21,63.59,91.82,63.75,91.51,64.05z"/>
	<path class="st0" d="M102.3,63.09h0.59h3.5L118,80.53V65.68c0-0.43-0.08-0.78-0.23-1.04c-0.16-0.26-0.35-0.47-0.59-0.63
		c-0.24-0.16-0.49-0.27-0.75-0.32c-0.26-0.06-0.5-0.09-0.72-0.09h-0.12v-0.5h5.44v0.5h-0.12c-0.22,0-0.46,0.03-0.72,0.09
		c-0.26,0.06-0.5,0.17-0.72,0.32c-0.22,0.16-0.4,0.37-0.54,0.63c-0.15,0.27-0.22,0.61-0.22,1.04v15.9l0.29,0.44
		c0.25,0.33,0.52,0.62,0.81,0.85c0.28,0.24,0.65,0.35,1.1,0.35h0.12v0.47h-4.09L105.3,66.27v14.87c0,0.43,0.08,0.78,0.24,1.04
		c0.16,0.26,0.35,0.47,0.59,0.63c0.24,0.16,0.49,0.27,0.75,0.32c0.26,0.06,0.5,0.09,0.72,0.09h0.12v0.47h-5.41v-0.47h0.12
		c0.22,0,0.45-0.03,0.71-0.09c0.25-0.06,0.49-0.17,0.71-0.32c0.22-0.16,0.4-0.37,0.54-0.63c0.15-0.27,0.22-0.61,0.22-1.04V65.21
		l-0.29-0.44c-0.22-0.31-0.51-0.56-0.88-0.73c-0.37-0.18-0.75-0.28-1.12-0.32V63.09z"/>
</g>
</svg>
