<?xml version="1.0" encoding="utf-8"?>
<!-- Generator: Adobe Illustrator 26.0.3, SVG Export Plug-In . SVG Version: 6.00 Build 0)  -->
<svg version="1.1" id="레이어_1" xmlns="http://www.w3.org/2000/svg" xmlns:xlink="http://www.w3.org/1999/xlink" x="0px"
	 y="0px" viewBox="0 0 115.7 13.87" style="enable-background:new 0 0 115.7 13.87;" xml:space="preserve">
<path d="M8.26,10.15c0,0.91-0.25,1.68-0.73,2.33c-0.49,0.65-1.2,1.07-2.13,1.29c-0.4,0.1-0.83,0.16-1.29,0.17
	c-0.47,0.01-0.93,0-1.37-0.04c-0.45-0.04-0.87-0.09-1.26-0.16c-0.39-0.07-0.69-0.14-0.9-0.22c-0.16-0.05-0.27-0.15-0.33-0.3
	c-0.06-0.15-0.08-0.29-0.05-0.44c0.01-0.13,0.07-0.25,0.17-0.36c0.1-0.1,0.23-0.15,0.41-0.14c0.29,0.17,0.66,0.32,1.1,0.46
	c0.45,0.13,0.92,0.21,1.4,0.25c0.49,0.04,0.96,0.02,1.42-0.06c0.46-0.08,0.86-0.26,1.18-0.54c0.27-0.21,0.48-0.48,0.64-0.81
	c0.17-0.33,0.25-0.73,0.27-1.2c0-0.53-0.14-0.97-0.42-1.34c-0.28-0.37-0.65-0.7-1.1-0.99c-0.45-0.3-0.95-0.6-1.52-0.89
	C3.19,6.9,2.61,6.56,2.03,6.16c-0.45-0.33-0.85-0.74-1.2-1.24c-0.36-0.5-0.54-1.06-0.54-1.68c0-1.11,0.37-1.93,1.12-2.47
	c0.75-0.54,1.75-0.81,3.02-0.81C5.02-0.04,5.57,0,6.1,0.1c0.52,0.09,0.94,0.18,1.25,0.26v1.09C7.03,1.32,6.62,1.2,6.11,1.07
	C5.61,0.94,4.98,0.85,4.23,0.81c-0.78,0-1.4,0.18-1.88,0.52C1.88,1.68,1.64,2.19,1.64,2.86c0,0.54,0.11,1,0.35,1.39
	c0.23,0.39,0.68,0.79,1.35,1.22C3.75,5.74,4.24,6,4.8,6.27c0.57,0.27,1.11,0.58,1.62,0.94c0.51,0.36,0.95,0.77,1.3,1.24
	C8.08,8.91,8.26,9.48,8.26,10.15z"/>
<path d="M23.9,6.91c0,1.06-0.14,2.01-0.42,2.88c-0.28,0.87-0.69,1.6-1.21,2.2c-0.53,0.6-1.17,1.07-1.94,1.4
	c-0.76,0.33-1.62,0.49-2.57,0.49c-0.99,0-1.86-0.17-2.63-0.49c-0.76-0.33-1.41-0.8-1.94-1.42c-0.53-0.61-0.93-1.34-1.2-2.19
	c-0.27-0.86-0.4-1.81-0.4-2.85c0-1.04,0.14-1.99,0.43-2.86c0.29-0.86,0.71-1.6,1.25-2.2c0.54-0.6,1.19-1.08,1.95-1.41
	c0.76-0.34,1.6-0.5,2.52-0.5c0.92,0,1.76,0.16,2.52,0.49c0.76,0.33,1.4,0.8,1.95,1.4c0.54,0.61,0.96,1.34,1.25,2.19
	C23.75,4.91,23.9,5.86,23.9,6.91z M22.47,6.91c0-0.78-0.09-1.53-0.27-2.25c-0.18-0.72-0.46-1.37-0.84-1.94
	c-0.38-0.55-0.87-1-1.47-1.34c-0.6-0.34-1.32-0.51-2.17-0.51c-0.83,0-1.54,0.17-2.14,0.5c-0.6,0.33-1.1,0.78-1.49,1.33
	c-0.38,0.57-0.66,1.21-0.85,1.95c-0.18,0.73-0.28,1.49-0.28,2.28c0,0.74,0.08,1.46,0.26,2.18c0.17,0.72,0.45,1.35,0.83,1.91
	c0.38,0.57,0.87,1.03,1.48,1.38c0.61,0.35,1.35,0.52,2.21,0.52c0.84,0,1.56-0.17,2.16-0.5c0.6-0.34,1.09-0.79,1.47-1.35
	c0.37-0.55,0.64-1.19,0.82-1.92C22.39,8.42,22.47,7.68,22.47,6.91z"/>
<path d="M29.73,0.93v7.84c0,0.58,0.04,1.13,0.13,1.64c0.09,0.51,0.26,0.96,0.51,1.34c0.25,0.39,0.6,0.7,1.04,0.93
	c0.44,0.23,1.02,0.34,1.73,0.34c0.76,0,1.38-0.1,1.86-0.3c0.47-0.19,0.85-0.48,1.12-0.85c0.26-0.37,0.44-0.81,0.54-1.33
	c0.09-0.52,0.14-1.1,0.14-1.73V0.22h1.07v8.57c0,0.61-0.05,1.21-0.14,1.83c-0.1,0.61-0.31,1.16-0.65,1.65
	c-0.33,0.5-0.81,0.9-1.43,1.21c-0.63,0.3-1.46,0.45-2.5,0.45c-0.98,0-1.77-0.14-2.37-0.43c-0.6-0.28-1.07-0.65-1.4-1.12
	c-0.34-0.46-0.58-0.99-0.7-1.58c-0.12-0.59-0.18-1.2-0.17-1.82V2.67c0-0.33-0.04-0.63-0.11-0.92c-0.07-0.28-0.24-0.52-0.5-0.72
	c-0.07-0.04-0.13-0.07-0.2-0.1c-0.06-0.03-0.14-0.05-0.22-0.06c-0.06-0.01-0.14-0.02-0.22-0.04c-0.08-0.01-0.15-0.02-0.22-0.04
	c-0.2-0.01-0.29-0.11-0.29-0.3s0.1-0.28,0.29-0.28h1.99c0.25,0,0.44,0.07,0.55,0.21C29.68,0.58,29.73,0.74,29.73,0.93z"/>
<path d="M44.42,0.93v10.21c-0.01,0.2-0.01,0.37,0,0.52c0.03,0.13,0.07,0.27,0.13,0.41c0.06,0.15,0.15,0.26,0.28,0.36
	c0.21,0.16,0.45,0.26,0.71,0.3c0.26,0.05,0.56,0.07,0.92,0.07h2.21c0.55,0,0.96-0.1,1.2-0.3c0.25-0.21,0.44-0.56,0.57-1.08
	c0.03-0.13,0.07-0.42,0.14-0.85c0.01-0.13,0.09-0.2,0.25-0.19c0.15,0.01,0.22,0.07,0.22,0.19l-0.1,3.16h-7.8V2.69
	c0-0.35-0.04-0.67-0.11-0.95c-0.07-0.28-0.24-0.51-0.5-0.71c-0.07-0.04-0.14-0.07-0.2-0.1c-0.07-0.03-0.14-0.05-0.22-0.06
	c-0.07-0.01-0.14-0.02-0.22-0.04c-0.08-0.01-0.15-0.02-0.22-0.04c-0.2-0.01-0.29-0.11-0.29-0.3c0.01-0.18,0.1-0.28,0.29-0.28h2.01
	c0.25,0,0.43,0.07,0.54,0.21C44.37,0.58,44.42,0.74,44.42,0.93z"/>
<path d="M64.53,2.61h-1.52c-0.04-0.2-0.13-0.4-0.26-0.61c-0.14-0.21-0.33-0.41-0.56-0.59c-0.25-0.19-0.55-0.33-0.91-0.46
	c-0.36-0.12-0.76-0.18-1.23-0.18c-0.46,0-0.97,0.08-1.53,0.25c-0.56,0.17-1.08,0.47-1.57,0.89c-0.49,0.42-0.9,0.99-1.23,1.72
	c-0.33,0.73-0.49,1.65-0.49,2.77c0,1.58,0.26,2.88,0.8,3.9c0.53,1.02,1.51,1.83,2.93,2.42c0.28,0.12,0.63,0.2,1.06,0.24
	c0.43,0.04,0.88,0.04,1.37,0c0.47-0.04,0.96-0.12,1.46-0.25c0.5-0.12,0.96-0.29,1.38-0.5c0.18-0.04,0.31,0.05,0.38,0.27
	c0.06,0.22,0,0.38-0.18,0.49c-0.43,0.23-0.95,0.43-1.54,0.6c-0.59,0.16-1.21,0.27-1.86,0.3c-0.65,0.04-1.29,0.01-1.94-0.1
	c-0.65-0.11-1.25-0.32-1.8-0.63c-1.07-0.6-1.91-1.44-2.54-2.5c-0.63-1.06-0.95-2.36-0.98-3.9c0-0.66,0.07-1.3,0.2-1.93
	c0.13-0.63,0.34-1.21,0.61-1.75c0.28-0.54,0.62-1.02,1.03-1.45c0.41-0.43,0.88-0.77,1.42-1.04c0.45-0.21,0.93-0.37,1.45-0.48
	c0.52-0.11,1.04-0.17,1.57-0.17c0.63,0,1.21,0.08,1.75,0.25c0.54,0.17,0.99,0.38,1.37,0.64c0.39,0.25,0.71,0.54,0.94,0.86
	C64.35,1.99,64.49,2.3,64.53,2.61z"/>
<path d="M75.68,13.81L71.1,7.59c-0.14-0.12-0.21-0.28-0.19-0.47c0.02-0.2,0.12-0.29,0.31-0.29c0.23,0,0.54,0,0.92,0
	s0.68-0.01,0.92-0.04c0.3-0.03,0.62-0.08,0.96-0.18c0.34-0.09,0.66-0.24,0.95-0.46c0.28-0.21,0.51-0.49,0.7-0.86
	c0.19-0.36,0.3-0.83,0.32-1.39c0-1.03-0.29-1.74-0.86-2.14c-0.57-0.4-1.35-0.62-2.34-0.64c-0.11,0-0.25,0-0.42,0.01
	c-0.18,0.01-0.35,0.01-0.53,0.01c-0.18,0.01-0.35,0.02-0.51,0.03c-0.16,0.01-0.27,0.01-0.32,0.01c-0.36,0.05-0.61,0.16-0.75,0.33
	s-0.22,0.55-0.22,1.13v11.18h-1.21V2.61c0-0.51-0.04-0.86-0.12-1.03c-0.08-0.17-0.2-0.35-0.38-0.53c-0.08-0.05-0.2-0.11-0.37-0.17
	c-0.17-0.06-0.33-0.09-0.47-0.09c-0.2,0-0.3-0.1-0.31-0.29c-0.01-0.19,0.09-0.29,0.29-0.29h4.07c0.29,0,0.66,0,1.1,0.02
	c0.44,0.01,0.83,0.03,1.16,0.04c0.43,0.03,0.86,0.12,1.29,0.27c0.42,0.15,0.8,0.38,1.15,0.68c0.33,0.29,0.6,0.66,0.81,1.11
	c0.21,0.45,0.32,0.97,0.34,1.56c0,0.55-0.12,1.05-0.35,1.5c-0.23,0.45-0.53,0.84-0.9,1.16c-0.36,0.33-0.79,0.58-1.26,0.76
	c-0.48,0.18-0.96,0.27-1.45,0.27h-0.87l4.68,6.22H75.68z"/>
<path d="M91.38,13.79h-1.46L88.24,9.3h-5.41l-1.66,4.49h-1.05l3.97-10.77c0.08-0.22,0.14-0.42,0.18-0.59
	c0.04-0.17,0.08-0.36,0.12-0.57c0-0.32-0.09-0.57-0.27-0.76c-0.18-0.19-0.47-0.29-0.9-0.29c-0.09,0-0.16-0.02-0.21-0.07
	c-0.05-0.04-0.08-0.1-0.09-0.17c-0.03-0.08-0.01-0.15,0.05-0.22c0.06-0.07,0.13-0.1,0.21-0.1h3.07L91.38,13.79z M87.94,8.42
	l-2.43-6.58l-2.37,6.58H87.94z"/>
<path d="M95.22,13.83V2.64c0-0.39-0.04-0.7-0.12-0.92c-0.08-0.22-0.22-0.42-0.41-0.6c-0.08-0.06-0.21-0.13-0.39-0.2
	c-0.18-0.06-0.34-0.1-0.49-0.1c-0.22,0-0.33-0.1-0.33-0.3c0-0.21,0.11-0.31,0.32-0.31h9.01l0.1,2.45c0,0.1-0.08,0.16-0.24,0.16
	c-0.16,0-0.24-0.06-0.24-0.18c-0.15-0.5-0.28-0.85-0.41-1.05c-0.12-0.13-0.31-0.25-0.56-0.37c-0.26-0.12-0.58-0.18-0.98-0.18h-2.61
	c-0.25,0-0.45,0.02-0.6,0.05c-0.15,0.03-0.3,0.11-0.45,0.23c-0.15,0.12-0.24,0.26-0.29,0.43c-0.05,0.17-0.08,0.44-0.08,0.81v3.72
	h3.22c0.21,0,0.42,0,0.62-0.02c0.2-0.01,0.37-0.05,0.51-0.1c0.28-0.09,0.49-0.22,0.66-0.39c0.16-0.17,0.25-0.47,0.25-0.92
	c0-0.11,0.08-0.16,0.24-0.17c0.16,0,0.24,0.04,0.24,0.15v3.83c0,0.16-0.09,0.23-0.26,0.23c-0.17,0-0.26-0.08-0.26-0.23
	c-0.08-0.45-0.23-0.79-0.44-1.03c-0.13-0.15-0.3-0.26-0.5-0.36c-0.2-0.09-0.55-0.14-1.07-0.14h-3.22v6.68H95.22z"/>
<path d="M115.7,3.28c0,0.21-0.08,0.32-0.25,0.34c-0.17,0.01-0.25-0.09-0.27-0.32c-0.03-0.16-0.06-0.34-0.1-0.55
	c-0.04-0.21-0.09-0.41-0.15-0.61c-0.07-0.21-0.16-0.4-0.28-0.56c-0.12-0.16-0.27-0.29-0.46-0.36c-0.12-0.04-0.27-0.08-0.45-0.12
	c-0.18-0.04-0.38-0.06-0.6-0.06h-1.88v12.84h-1.24V1.03h-1.86c-0.22,0-0.42,0.01-0.6,0.04c-0.18,0.02-0.33,0.07-0.45,0.14
	c-0.24,0.11-0.42,0.25-0.54,0.42c-0.13,0.18-0.22,0.36-0.29,0.56c-0.07,0.2-0.11,0.4-0.13,0.59c-0.02,0.2-0.03,0.35-0.03,0.47
	c-0.01,0.23-0.11,0.33-0.29,0.31c-0.18-0.02-0.26-0.13-0.25-0.33l0.1-3.02h9.9L115.7,3.28z"/>
</svg>
