<?xml version="1.0" encoding="utf-8"?>
<!-- Generator: Adobe Illustrator 25.4.1, SVG Export Plug-In . SVG Version: 6.00 Build 0)  -->
<svg version="1.1" id="Layer_1" xmlns="http://www.w3.org/2000/svg" xmlns:xlink="http://www.w3.org/1999/xlink" x="0px" y="0px"
	 viewBox="0 0 173.2 11.4" style="enable-background:new 0 0 173.2 11.4;" xml:space="preserve">
<style type="text/css">
	.st0{fill:#232323;}
</style>
<g>
	<path class="st0" d="M0,0c0.1,0,0.3,0,0.4,0h0.3h2.7h2.2c2.7,0,4.2,1.6,4.2,3.7c0,1.7-1,3.1-2.9,3.5c1.4,0.3,2.8,1.1,2.8,2.9
		c0,0.1,0,0.1,0,0.1c0,0.5,0.4,0.9,0.9,0.9h0.1v0.3H7.3v-0.3h0.1c0.5,0,0.9-0.4,0.9-0.9c0,0,0-0.1,0-0.3c0-2.3-2.1-2.5-2.8-2.5H2.4
		v2.9c0,0.5,0.4,0.9,0.9,0.9h0.1v0.3H0v-0.3h0.1c0.5,0,0.9-0.4,0.9-0.9V1.2c0,0,0,0,0,0c0-0.6-0.6-0.7-1-0.8V0z M2.4,7h3.1
		c2,0,2.8-1.4,2.8-3.3c0-1.9-0.8-3.3-2.8-3.3H3.2c-0.6,0-0.8,0.3-0.8,0.8V7z"/>
	<path class="st0" d="M27.4,9.5h0.3v1.9h-9.1v-0.3h0.1c0.5,0,0.9-0.4,0.9-0.9V1.2c0-0.5-0.4-0.9-0.9-0.9h-0.1V0h8.8L27.7,2h-0.3V1.9
		c-0.1-0.6-0.6-1.5-1.6-1.5h-4c-0.6,0-0.9,0.3-0.9,0.8v3.7h1.5c0.9,0,1.2-1,1.2-1.5V3.4h0.3v3.4h-0.3v0c0-0.5-0.2-1.5-1.2-1.5H21v5
		c0,0.5,0.2,0.8,0.9,0.8h4.5C27.2,11,27.4,10.1,27.4,9.5L27.4,9.5z"/>
	<path class="st0" d="M45.1,8.3c-0.1,1.7-1.9,3.1-5,3.1c-2.2,0-4-1-4.5-2.4c-0.1-0.2,0.3-0.4,0.4-0.2c0.5,1.2,2.2,2.1,4.1,2.1
		c2.6,0,3.8-1.2,3.6-2.6c-0.4-3.1-7.8-1.5-7.7-5.7c0-1.3,1.6-2.6,4.3-2.6c1.7,0,2.8,0.7,3.2,1.3c0.1,0,0.2-0.5,0.2-0.8v0h0.3v3h-0.3
		V3.4c0-2-1.6-3-3.4-3c-1.7,0-3,0.7-3,2C37.4,5.5,45.4,4,45.1,8.3z"/>
	<path class="st0" d="M61.4,9.5h0.3v1.9h-9.1v-0.3h0.1c0.5,0,0.9-0.4,0.9-0.9V1.2c0-0.5-0.4-0.9-0.9-0.9h-0.1V0h8.8L61.7,2h-0.3V1.9
		c-0.1-0.6-0.6-1.5-1.6-1.5h-4c-0.6,0-0.9,0.3-0.9,0.8v3.7h1.5c0.9,0,1.2-1,1.2-1.5V3.4h0.3v3.4h-0.3v0c0-0.5-0.2-1.5-1.2-1.5H55v5
		c0,0.5,0.2,0.8,0.9,0.8h4.5C61.2,11,61.4,10.1,61.4,9.5L61.4,9.5z"/>
	<path class="st0" d="M69.6,0c0.1,0,0.3,0,0.4,0h0.3h2.7h2.2c2.7,0,4.2,1.6,4.2,3.7c0,1.7-1,3.1-2.9,3.5c1.4,0.3,2.8,1.1,2.8,2.9
		c0,0.1,0,0.1,0,0.1c0,0.5,0.4,0.9,0.9,0.9h0.1v0.3h-3.4v-0.3H77c0.5,0,0.9-0.4,0.9-0.9c0,0,0-0.1,0-0.3c0-2.3-2.1-2.5-2.8-2.5H72
		v2.9c0,0.5,0.4,0.9,0.9,0.9h0.1v0.3h-3.4v-0.3h0.1c0.5,0,0.9-0.4,0.9-0.9V1.2c0,0,0,0,0,0c0-0.6-0.6-0.7-1-0.8V0z M72,7h3.1
		c2,0,2.8-1.4,2.8-3.3c0-1.9-0.8-3.3-2.8-3.3h-2.3c-0.6,0-0.8,0.3-0.8,0.8V7z"/>
	<path class="st0" d="M88.6,1.1L88.6,1.1L92,9l3.2-7.6c0.3-0.8-0.3-1.1-1-1.1h0V0h1.6h0.4h0.9v0.3h-0.1c-0.7,0-1.1,0.3-1.5,1.1
		l-4.2,10L87,1.2c-0.1-0.3-0.6-0.8-1.1-0.9V0h3.3v0.3h-0.1C88.8,0.3,88.4,0.7,88.6,1.1z"/>
	<path class="st0" d="M111.6,11.2v0.2h-0.4h-0.5h-2.5v-0.3h0.1c0.5,0,0.8-0.4,0.6-0.7l0-0.1l-1.1-2.5h-4.6l-0.9,2.3
		c-0.3,0.8,0.2,1.1,1,1.1h0.1v0.3h-1.6h-0.4h-0.9v-0.3h0.1c0.6,0,1.1-0.3,1.5-1.1l0.8-2l0.3-0.6l3.1-7.3l4.4,10.2
		c0.1,0.2,0.3,0.5,0.6,0.7c0,0,0,0,0.1,0C111.2,11.1,111.5,11.2,111.6,11.2z M107.6,7.4l-2.1-5l-2.1,5H107.6z"/>
	<path class="st0" d="M127,0V2h-0.3V1.9c0-0.5-0.2-1.5-1.2-1.5h-0.7h-1.2c-0.6,0-0.8,0.3-0.8,0.8v9.1c0,0.5,0.4,0.9,0.9,0.9h0h0v0.3
		h0h-3.4h0v-0.3h0h0c0.5,0,0.9-0.4,0.9-0.9V1.2c0-0.5-0.2-0.8-0.8-0.8h-1.3h-0.7c-0.9,0-1.2,1-1.2,1.5V2H117V0h2.2h2.9h2.9H127z"/>
	<path class="st0" d="M137.3,1.2v9.1c0,0.5,0.4,0.9,0.9,0.9h0.1v0.3h-3.4v-0.3h0.1c0.5,0,0.9-0.4,0.9-0.9V1.2c0-0.5-0.4-0.9-0.9-0.9
		h-0.1V0h3.4v0.3h-0.1C137.7,0.3,137.3,0.7,137.3,1.2z"/>
	<path class="st0" d="M150.8,11.4c-2.9,0-5-2.2-5-5.7c0-3.5,2.1-5.7,5-5.7c2.2,0,4,1.3,4.7,3.5c0,0,0.3,1,0.3,2.2
		C155.8,9.2,153.7,11.4,150.8,11.4z M154.3,5.7c0-2.5-0.7-3.9-1.5-4.5c-0.7-0.6-1.3-0.8-2.1-0.8c-0.4,0-1.2,0.1-1.9,0.7
		c-1.1,0.9-1.5,2.6-1.5,4.6c0,0,0,0,0,0v0c0,3,0.9,5.3,3.5,5.3S154.3,8.7,154.3,5.7L154.3,5.7C154.3,5.7,154.3,5.7,154.3,5.7z"/>
	<path class="st0" d="M162.9,0h2.3l6.4,9.6V1.5c0-0.9-0.8-1.2-1.3-1.2h-0.1V0h3v0.3h-0.1c-0.5,0-1.2,0.2-1.2,1.2v8.8l0.2,0.2
		c0.3,0.4,0.6,0.7,1.1,0.7h0.1v0.3H171l-6.4-9.6V10c0,0.9,0.8,1.2,1.3,1.2h0.1v0.3h-3v-0.3h0.1c0.5,0,1.2-0.2,1.2-1.2V1.2L164,1
		c-0.2-0.3-0.7-0.5-1.1-0.6V0z"/>
</g>
</svg>
