<?xml version="1.0" encoding="utf-8"?>
<!-- Generator: Adobe Illustrator 26.0.3, SVG Export Plug-In . SVG Version: 6.00 Build 0)  -->
<svg version="1.1" id="레이어_1" xmlns="http://www.w3.org/2000/svg" xmlns:xlink="http://www.w3.org/1999/xlink" x="0px"
	 y="0px" viewBox="0 0 31.19 52.13" style="enable-background:new 0 0 31.19 52.13;" xml:space="preserve">
<style type="text/css">
	.st0{fill:#595757;}
</style>
<g>
	<g>
		<path class="st0" d="M9.92,13.58h0.41h0.28h2.89h2.31c0.71,0,1.34,0.1,1.9,0.3c0.56,0.2,1.03,0.48,1.41,0.83
			c0.38,0.35,0.68,0.76,0.88,1.24c0.2,0.48,0.3,0.99,0.3,1.54c0,0.91-0.26,1.7-0.78,2.37c-0.52,0.67-1.28,1.13-2.26,1.37
			c0.36,0.09,0.71,0.21,1.08,0.36c0.36,0.15,0.69,0.34,0.97,0.58c0.29,0.24,0.52,0.54,0.7,0.88c0.18,0.35,0.27,0.76,0.27,1.24v0.14
			c0,0.27,0.09,0.49,0.28,0.67c0.18,0.18,0.41,0.28,0.67,0.28h0.07v0.28H17.7v-0.28h0.07c0.26,0,0.49-0.09,0.67-0.28
			c0.19-0.18,0.28-0.41,0.28-0.67v-0.34c0-0.6-0.12-1.07-0.36-1.43c-0.24-0.36-0.52-0.63-0.84-0.82c-0.32-0.19-0.65-0.31-0.98-0.37
			c-0.33-0.06-0.59-0.09-0.77-0.09H12.5v3.04c0,0.27,0.09,0.49,0.28,0.67c0.18,0.18,0.41,0.28,0.67,0.28h0.07v0.28h-3.6v-0.28h0.07
			c0.26,0,0.49-0.09,0.67-0.28c0.18-0.18,0.28-0.41,0.28-0.67V14.8v-0.03c-0.01-0.15-0.05-0.28-0.12-0.38
			c-0.07-0.1-0.15-0.19-0.26-0.25c-0.1-0.06-0.21-0.11-0.33-0.14c-0.12-0.03-0.22-0.05-0.31-0.06V13.58z M12.5,20.96h3.31
			c0.53,0,0.97-0.09,1.34-0.26c0.37-0.17,0.67-0.41,0.9-0.72c0.23-0.31,0.41-0.68,0.52-1.1c0.11-0.42,0.16-0.89,0.16-1.39
			c0-0.5-0.05-0.97-0.16-1.39c-0.11-0.42-0.28-0.79-0.52-1.1c-0.23-0.31-0.53-0.55-0.9-0.73c-0.37-0.18-0.81-0.27-1.34-0.27h-2.46
			c-0.32,0-0.54,0.07-0.67,0.21c-0.13,0.14-0.19,0.34-0.19,0.6V20.96z"/>
	</g>
</g>
<g>
	<path class="st0" d="M25.48,52.13H5.71L0,46.42V5.71L5.71,0h19.77l5.71,5.71v40.71L25.48,52.13z M6.19,50.98h18.82l5.04-5.04V6.19
		l-5.04-5.04H6.19L1.14,6.19v39.76L6.19,50.98z"/>
	<path class="st0" d="M24.47,49.34H6.72l-3.79-3.79V6.58l3.79-3.79h17.74l3.79,3.79v38.96L24.47,49.34z M6.99,48.7H24.2l3.42-3.42
		V6.84L24.2,3.43H6.99L3.57,6.84v38.44L6.99,48.7z"/>
	<g>
		<g>
			<polygon class="st0" points="6.76,3.23 5.85,0.65 6.11,0.55 7.03,3.13 			"/>
			
				<rect x="1.76" y="4.91" transform="matrix(0.2775 -0.9607 0.9607 0.2775 -4.7373 6.4226)" class="st0" width="0.28" height="2.89"/>
		</g>
		<g>
			
				<rect x="23.53" y="1.75" transform="matrix(0.3339 -0.9426 0.9426 0.3339 14.8007 24.7235)" class="st0" width="2.74" height="0.28"/>
			<polygon class="st0" points="28.08,6.9 30.86,6.1 30.78,5.82 28,6.63 			"/>
		</g>
		<g>
			<polygon class="st0" points="24.57,48.94 25.48,51.52 25.22,51.62 24.3,49.04 			"/>
			<polygon class="st0" points="28.08,45.27 30.86,46.07 30.78,46.34 28,45.54 			"/>
		</g>
		<g>
			<polygon class="st0" points="6.76,48.94 5.85,51.52 6.11,51.62 7.03,49.04 			"/>
			<polygon class="st0" points="3.25,45.27 0.47,46.07 0.55,46.34 3.33,45.54 			"/>
		</g>
	</g>
</g>
<path class="st0" d="M20.95,27.99v2.04h-0.29v-0.07c0-0.13-0.02-0.28-0.05-0.46c-0.04-0.18-0.1-0.35-0.19-0.51
	c-0.09-0.16-0.22-0.3-0.37-0.42c-0.16-0.12-0.36-0.17-0.62-0.17h-0.79H17.3c-0.33,0-0.57,0.07-0.7,0.21
	c-0.13,0.14-0.2,0.34-0.2,0.61v9.67c0,0.27,0.09,0.49,0.27,0.68c0.18,0.18,0.4,0.28,0.66,0.28h0.05h0.02v0.28h-0.02H13.8h-0.02
	v-0.28h0.02h0.05c0.27,0,0.49-0.09,0.67-0.28c0.18-0.18,0.27-0.41,0.27-0.68v-9.67c0-0.27-0.07-0.47-0.2-0.61s-0.37-0.21-0.7-0.21
	h-1.35h-0.78c-0.25,0-0.46,0.06-0.61,0.17c-0.16,0.12-0.28,0.25-0.37,0.42c-0.09,0.16-0.16,0.33-0.19,0.51
	c-0.03,0.18-0.05,0.33-0.05,0.46v0.07h-0.29v-2.04h2.3h3.04h3.04H20.95z"/>
</svg>
